ISO-10303-21;
HEADER;
FILE_DESCRIPTION(('STEP AP242'),'1');
FILE_NAME('0039281023.stp','2024-11-06T19:17:34',('TraceParts'),('TraceParts S.A.'),'Spatial InterOp 3D',' ',' ');
FILE_SCHEMA(('AP242_MANAGED_MODEL_BASED_3D_ENGINEERING_MIM_LF  {1 0 10303 442 1 1 4}'));
ENDSEC;
DATA;
#1=PRODUCT_DEFINITION_CONTEXT('',#10,'design');
#2=APPLICATION_PROTOCOL_DEFINITION('INTERNATIONAL STANDARD','ap242_managed_model_based_3d_engineering',2014,#10);
#3=PRODUCT_CATEGORY_RELATIONSHIP('NONE','NONE',#11,#12);
#4=SHAPE_DEFINITION_REPRESENTATION(#13,#14);
#5=SHAPE_DEFINITION_REPRESENTATION(#13,#15);
#6= (GEOMETRIC_REPRESENTATION_CONTEXT(3)GLOBAL_UNCERTAINTY_ASSIGNED_CONTEXT((#18))GLOBAL_UNIT_ASSIGNED_CONTEXT((#20,#21,#22))REPRESENTATION_CONTEXT('NONE','WORKSPACE'));
#10=APPLICATION_CONTEXT('managed model based 3d engineering');
#11=PRODUCT_CATEGORY('part','NONE');
#12=PRODUCT_RELATED_PRODUCT_CATEGORY('detail',' ',(#24));
#13=PRODUCT_DEFINITION_SHAPE('NONE','NONE',#25);
#14=ADVANCED_BREP_SHAPE_REPRESENTATION('0039281023_1',(#26,#27),#6);
#15=GEOMETRICALLY_BOUNDED_SURFACE_SHAPE_REPRESENTATION('1',(#28,#29),#6);
#18=UNCERTAINTY_MEASURE_WITH_UNIT(LENGTH_MEASURE(1.0E-06),#20,'','');
#20= (CONVERSION_BASED_UNIT('MILLIMETRE',#32)LENGTH_UNIT()NAMED_UNIT(#35));
#21= (NAMED_UNIT(#37)PLANE_ANGLE_UNIT()SI_UNIT($,.RADIAN.));
#22= (NAMED_UNIT(#37)SOLID_ANGLE_UNIT()SI_UNIT($,.STERADIAN.));
#24=PRODUCT('0039281023_1','0039281023_1','PART-0039281023_1-DESC',(#43));
#25=PRODUCT_DEFINITION('','NONE',#44,#1);
#26=MANIFOLD_SOLID_BREP('0039281023_1',#45);
#27=AXIS2_PLACEMENT_3D('',#46,#47,#48);
#28=GEOMETRIC_SET('1',(#49,#50,#51,#52));
#29=AXIS2_PLACEMENT_3D('',#53,#54,#55);
#32=LENGTH_MEASURE_WITH_UNIT(LENGTH_MEASURE(1.0),#56);
#35=DIMENSIONAL_EXPONENTS(1.0,0.0,0.0,0.0,0.0,0.0,0.0);
#37=DIMENSIONAL_EXPONENTS(0.0,0.0,0.0,0.0,0.0,0.0,0.0);
#43=PRODUCT_CONTEXT('',#10,'mechanical');
#44=PRODUCT_DEFINITION_FORMATION_WITH_SPECIFIED_SOURCE(' ','NONE',#24,.NOT_KNOWN.);
#45=CLOSED_SHELL('',(#57,#58,#59,#60,#61,#62,#63,#64,#65,#66,#67,#68,#69,#70,#71,#72,#73,#74,#75,#76,#77,#78,#79,#80,#81,#82,#83,#84,#85,#86,#87,#88,#89,#90,#91,#92,#93,#94,#95,#96,#97,#98,#99,#100,#101,#102,#103,#104,#105,#106,#107,#108,#109,#110,#111,#112,#113,#114,#115,#116,#117,#118,#119,#120,#121,#122,#123,#124,#125,#126,#127,#128,#129,#130,#131,#132,#133,#134));
#46=CARTESIAN_POINT('',(0.0,0.0,0.0));
#47=DIRECTION('',(0.0,0.0,1.0));
#48=DIRECTION('',(1.0,0.0,0.0));
#49=COMPOSITE_CURVE('0039281023_2',(#135),.U.);
#50=COMPOSITE_CURVE('0039281023_3',(#136),.U.);
#51=COMPOSITE_CURVE('0039281023_4',(#137),.U.);
#52=COMPOSITE_CURVE('0039281023_5',(#138),.U.);
#53=CARTESIAN_POINT('',(0.0,0.0,0.0));
#54=DIRECTION('',(0.0,0.0,1.0));
#55=DIRECTION('',(1.0,0.0,0.0));
#56= (NAMED_UNIT(#35)LENGTH_UNIT()SI_UNIT(.MILLI.,.METRE.));
#57=ADVANCED_FACE('',(#140),#141,.T.);
#58=ADVANCED_FACE('',(#142),#143,.F.);
#59=ADVANCED_FACE('',(#144),#145,.F.);
#60=ADVANCED_FACE('',(#146),#147,.T.);
#61=ADVANCED_FACE('',(#148),#149,.T.);
#62=ADVANCED_FACE('',(#150),#151,.T.);
#63=ADVANCED_FACE('',(#152),#153,.T.);
#64=ADVANCED_FACE('',(#154),#155,.F.);
#65=ADVANCED_FACE('',(#156),#157,.F.);
#66=ADVANCED_FACE('',(#158),#159,.F.);
#67=ADVANCED_FACE('',(#160),#161,.F.);
#68=ADVANCED_FACE('',(#162),#163,.F.);
#69=ADVANCED_FACE('',(#164),#165,.F.);
#70=ADVANCED_FACE('',(#166),#167,.T.);
#71=ADVANCED_FACE('',(#168),#169,.T.);
#72=ADVANCED_FACE('',(#170),#171,.T.);
#73=ADVANCED_FACE('',(#172),#173,.T.);
#74=ADVANCED_FACE('',(#174),#175,.T.);
#75=ADVANCED_FACE('',(#176),#177,.F.);
#76=ADVANCED_FACE('',(#178),#179,.F.);
#77=ADVANCED_FACE('',(#180,#181),#182,.T.);
#78=ADVANCED_FACE('',(#183,#184),#185,.T.);
#79=ADVANCED_FACE('',(#186),#187,.T.);
#80=ADVANCED_FACE('',(#188),#189,.F.);
#81=ADVANCED_FACE('',(#190),#191,.F.);
#82=ADVANCED_FACE('',(#192),#193,.F.);
#83=ADVANCED_FACE('',(#194),#195,.F.);
#84=ADVANCED_FACE('',(#196),#197,.F.);
#85=ADVANCED_FACE('',(#198),#199,.T.);
#86=ADVANCED_FACE('',(#200),#201,.T.);
#87=ADVANCED_FACE('',(#202),#203,.T.);
#88=ADVANCED_FACE('',(#204,#205,#206),#207,.T.);
#89=ADVANCED_FACE('',(#208),#209,.T.);
#90=ADVANCED_FACE('',(#210),#211,.F.);
#91=ADVANCED_FACE('',(#212),#213,.T.);
#92=ADVANCED_FACE('',(#214),#215,.T.);
#93=ADVANCED_FACE('',(#216),#217,.T.);
#94=ADVANCED_FACE('',(#218),#219,.T.);
#95=ADVANCED_FACE('',(#220),#221,.F.);
#96=ADVANCED_FACE('',(#222),#223,.F.);
#97=ADVANCED_FACE('',(#224),#225,.T.);
#98=ADVANCED_FACE('',(#226),#227,.F.);
#99=ADVANCED_FACE('',(#228),#229,.F.);
#100=ADVANCED_FACE('',(#230),#231,.F.);
#101=ADVANCED_FACE('',(#232),#233,.F.);
#102=ADVANCED_FACE('',(#234,#235),#236,.T.);
#103=ADVANCED_FACE('',(#237,#238),#239,.T.);
#104=ADVANCED_FACE('',(#240),#241,.F.);
#105=ADVANCED_FACE('',(#242),#243,.F.);
#106=ADVANCED_FACE('',(#244),#245,.F.);
#107=ADVANCED_FACE('',(#246),#247,.F.);
#108=ADVANCED_FACE('',(#248),#249,.F.);
#109=ADVANCED_FACE('',(#250),#251,.F.);
#110=ADVANCED_FACE('',(#252),#253,.F.);
#111=ADVANCED_FACE('',(#254),#255,.F.);
#112=ADVANCED_FACE('',(#256),#257,.F.);
#113=ADVANCED_FACE('',(#258),#259,.F.);
#114=ADVANCED_FACE('',(#260),#261,.T.);
#115=ADVANCED_FACE('',(#262),#263,.T.);
#116=ADVANCED_FACE('',(#264),#265,.T.);
#117=ADVANCED_FACE('',(#266),#267,.T.);
#118=ADVANCED_FACE('',(#268),#269,.T.);
#119=ADVANCED_FACE('',(#270),#271,.T.);
#120=ADVANCED_FACE('',(#272),#273,.T.);
#121=ADVANCED_FACE('',(#274),#275,.T.);
#122=ADVANCED_FACE('',(#276),#277,.T.);
#123=ADVANCED_FACE('',(#278),#279,.T.);
#124=ADVANCED_FACE('',(#280),#281,.T.);
#125=ADVANCED_FACE('',(#282),#283,.T.);
#126=ADVANCED_FACE('',(#284),#285,.T.);
#127=ADVANCED_FACE('',(#286),#287,.T.);
#128=ADVANCED_FACE('',(#288),#289,.T.);
#129=ADVANCED_FACE('',(#290),#291,.T.);
#130=ADVANCED_FACE('',(#292),#293,.T.);
#131=ADVANCED_FACE('',(#294),#295,.T.);
#132=ADVANCED_FACE('',(#296),#297,.T.);
#133=ADVANCED_FACE('',(#298),#299,.T.);
#134=ADVANCED_FACE('',(#300),#301,.F.);
#135=COMPOSITE_CURVE_SEGMENT(.CONTINUOUS.,.T.,#302);
#136=COMPOSITE_CURVE_SEGMENT(.CONTINUOUS.,.T.,#303);
#137=COMPOSITE_CURVE_SEGMENT(.CONTINUOUS.,.T.,#304);
#138=COMPOSITE_CURVE_SEGMENT(.CONTINUOUS.,.T.,#305);
#140=FACE_OUTER_BOUND('',#306,.T.);
#141=CYLINDRICAL_SURFACE('',#307,0.4);
#142=FACE_OUTER_BOUND('',#308,.T.);
#143=PLANE('',#309);
#144=FACE_OUTER_BOUND('',#310,.T.);
#145=PLANE('',#311);
#146=FACE_OUTER_BOUND('',#312,.T.);
#147=PLANE('',#313);
#148=FACE_OUTER_BOUND('',#314,.T.);
#149=PLANE('',#315);
#150=FACE_OUTER_BOUND('',#316,.T.);
#151=PLANE('',#317);
#152=FACE_OUTER_BOUND('',#318,.T.);
#153=PLANE('',#319);
#154=FACE_OUTER_BOUND('',#320,.T.);
#155=PLANE('',#321);
#156=FACE_OUTER_BOUND('',#322,.T.);
#157=PLANE('',#323);
#158=FACE_OUTER_BOUND('',#324,.T.);
#159=PLANE('',#325);
#160=FACE_OUTER_BOUND('',#326,.T.);
#161=PLANE('',#327);
#162=FACE_OUTER_BOUND('',#328,.T.);
#163=PLANE('',#329);
#164=FACE_OUTER_BOUND('',#330,.T.);
#165=PLANE('',#331);
#166=FACE_OUTER_BOUND('',#332,.T.);
#167=PLANE('',#333);
#168=FACE_OUTER_BOUND('',#334,.T.);
#169=PLANE('',#335);
#170=FACE_OUTER_BOUND('',#336,.T.);
#171=PLANE('',#337);
#172=FACE_OUTER_BOUND('',#338,.T.);
#173=PLANE('',#339);
#174=FACE_OUTER_BOUND('',#340,.T.);
#175=PLANE('',#341);
#176=FACE_OUTER_BOUND('',#342,.T.);
#177=PLANE('',#343);
#178=FACE_OUTER_BOUND('',#344,.T.);
#179=PLANE('',#345);
#180=FACE_OUTER_BOUND('',#346,.T.);
#181=FACE_BOUND('',#347,.T.);
#182=PLANE('',#348);
#183=FACE_OUTER_BOUND('',#349,.T.);
#184=FACE_BOUND('',#350,.T.);
#185=PLANE('',#351);
#186=FACE_OUTER_BOUND('',#352,.T.);
#187=PLANE('',#353);
#188=FACE_OUTER_BOUND('',#354,.T.);
#189=PLANE('',#355);
#190=FACE_OUTER_BOUND('',#356,.T.);
#191=PLANE('',#357);
#192=FACE_OUTER_BOUND('',#358,.T.);
#193=PLANE('',#359);
#194=FACE_OUTER_BOUND('',#360,.T.);
#195=PLANE('',#361);
#196=FACE_OUTER_BOUND('',#362,.T.);
#197=PLANE('',#363);
#198=FACE_OUTER_BOUND('',#364,.T.);
#199=PLANE('',#365);
#200=FACE_OUTER_BOUND('',#366,.T.);
#201=PLANE('',#367);
#202=FACE_OUTER_BOUND('',#368,.T.);
#203=CYLINDRICAL_SURFACE('',#369,0.4);
#204=FACE_OUTER_BOUND('',#370,.T.);
#205=FACE_BOUND('',#371,.T.);
#206=FACE_BOUND('',#372,.T.);
#207=PLANE('',#373);
#208=FACE_OUTER_BOUND('',#374,.T.);
#209=PLANE('',#375);
#210=FACE_OUTER_BOUND('',#376,.T.);
#211=PLANE('',#377);
#212=FACE_OUTER_BOUND('',#378,.T.);
#213=PLANE('',#379);
#214=FACE_OUTER_BOUND('',#380,.T.);
#215=PLANE('',#381);
#216=FACE_OUTER_BOUND('',#382,.T.);
#217=PLANE('',#383);
#218=FACE_OUTER_BOUND('',#384,.T.);
#219=PLANE('',#385);
#220=FACE_OUTER_BOUND('',#386,.T.);
#221=PLANE('',#387);
#222=FACE_OUTER_BOUND('',#388,.T.);
#223=PLANE('',#389);
#224=FACE_OUTER_BOUND('',#390,.T.);
#225=PLANE('',#391);
#226=FACE_OUTER_BOUND('',#392,.T.);
#227=PLANE('',#393);
#228=FACE_OUTER_BOUND('',#394,.T.);
#229=PLANE('',#395);
#230=FACE_OUTER_BOUND('',#396,.T.);
#231=PLANE('',#397);
#232=FACE_OUTER_BOUND('',#398,.T.);
#233=PLANE('',#399);
#234=FACE_OUTER_BOUND('',#400,.T.);
#235=FACE_BOUND('',#401,.T.);
#236=PLANE('',#402);
#237=FACE_OUTER_BOUND('',#403,.T.);
#238=FACE_BOUND('',#404,.T.);
#239=PLANE('',#405);
#240=FACE_OUTER_BOUND('',#406,.T.);
#241=PLANE('',#407);
#242=FACE_OUTER_BOUND('',#408,.T.);
#243=PLANE('',#409);
#244=FACE_OUTER_BOUND('',#410,.T.);
#245=PLANE('',#411);
#246=FACE_OUTER_BOUND('',#412,.T.);
#247=PLANE('',#413);
#248=FACE_OUTER_BOUND('',#414,.T.);
#249=PLANE('',#415);
#250=FACE_OUTER_BOUND('',#416,.T.);
#251=PLANE('',#417);
#252=FACE_OUTER_BOUND('',#418,.T.);
#253=PLANE('',#419);
#254=FACE_OUTER_BOUND('',#420,.T.);
#255=PLANE('',#421);
#256=FACE_OUTER_BOUND('',#422,.T.);
#257=PLANE('',#423);
#258=FACE_OUTER_BOUND('',#424,.T.);
#259=PLANE('',#425);
#260=FACE_OUTER_BOUND('',#426,.T.);
#261=PLANE('',#427);
#262=FACE_OUTER_BOUND('',#428,.T.);
#263=PLANE('',#429);
#264=FACE_OUTER_BOUND('',#430,.T.);
#265=PLANE('',#431);
#266=FACE_OUTER_BOUND('',#432,.T.);
#267=PLANE('',#433);
#268=FACE_OUTER_BOUND('',#434,.T.);
#269=PLANE('',#435);
#270=FACE_OUTER_BOUND('',#436,.T.);
#271=PLANE('',#437);
#272=FACE_OUTER_BOUND('',#438,.T.);
#273=PLANE('',#439);
#274=FACE_OUTER_BOUND('',#440,.T.);
#275=PLANE('',#441);
#276=FACE_OUTER_BOUND('',#442,.T.);
#277=PLANE('',#443);
#278=FACE_OUTER_BOUND('',#444,.T.);
#279=PLANE('',#445);
#280=FACE_OUTER_BOUND('',#446,.T.);
#281=PLANE('',#447);
#282=FACE_OUTER_BOUND('',#448,.T.);
#283=PLANE('',#449);
#284=FACE_OUTER_BOUND('',#450,.T.);
#285=PLANE('',#451);
#286=FACE_OUTER_BOUND('',#452,.T.);
#287=PLANE('',#453);
#288=FACE_OUTER_BOUND('',#454,.T.);
#289=PLANE('',#455);
#290=FACE_OUTER_BOUND('',#456,.T.);
#291=PLANE('',#457);
#292=FACE_OUTER_BOUND('',#458,.T.);
#293=PLANE('',#459);
#294=FACE_OUTER_BOUND('',#460,.T.);
#295=PLANE('',#461);
#296=FACE_OUTER_BOUND('',#462,.T.);
#297=PLANE('',#463);
#298=FACE_OUTER_BOUND('',#464,.T.);
#299=PLANE('',#465);
#300=FACE_OUTER_BOUND('',#466,.T.);
#301=PLANE('',#467);
#302=TRIMMED_CURVE('',#468,(PARAMETER_VALUE(0.0)),(PARAMETER_VALUE(3.1415926535892)),.T.,.UNSPECIFIED.);
#303=TRIMMED_CURVE('',#469,(PARAMETER_VALUE(0.0)),(PARAMETER_VALUE(3.1415926535892)),.T.,.UNSPECIFIED.);
#304=TRIMMED_CURVE('',#470,(PARAMETER_VALUE(0.0)),(PARAMETER_VALUE(3.1415926535892)),.T.,.UNSPECIFIED.);
#305=TRIMMED_CURVE('',#471,(PARAMETER_VALUE(0.0)),(PARAMETER_VALUE(3.1415926535892)),.T.,.UNSPECIFIED.);
#306=EDGE_LOOP('',(#472,#473,#474,#475));
#307=AXIS2_PLACEMENT_3D('',#476,#477,#478);
#308=EDGE_LOOP('',(#479,#480,#481,#482,#483,#484));
#309=AXIS2_PLACEMENT_3D('',#485,#486,#487);
#310=EDGE_LOOP('',(#488,#489,#490,#491,#492,#493));
#311=AXIS2_PLACEMENT_3D('',#494,#495,#496);
#312=EDGE_LOOP('',(#497,#498,#499,#500));
#313=AXIS2_PLACEMENT_3D('',#501,#502,#503);
#314=EDGE_LOOP('',(#504,#505,#506,#507));
#315=AXIS2_PLACEMENT_3D('',#508,#509,#510);
#316=EDGE_LOOP('',(#511,#512,#513,#514,#515,#516,#517,#518,#519,#520,#521,#522));
#317=AXIS2_PLACEMENT_3D('',#523,#524,#525);
#318=EDGE_LOOP('',(#526,#527,#528,#529,#530,#531,#532,#533,#534,#535,#536));
#319=AXIS2_PLACEMENT_3D('',#537,#538,#539);
#320=EDGE_LOOP('',(#540,#541,#542,#543));
#321=AXIS2_PLACEMENT_3D('',#544,#545,#546);
#322=EDGE_LOOP('',(#547,#548,#549,#550,#551,#552));
#323=AXIS2_PLACEMENT_3D('',#553,#554,#555);
#324=EDGE_LOOP('',(#556,#557,#558,#559,#560,#561));
#325=AXIS2_PLACEMENT_3D('',#562,#563,#564);
#326=EDGE_LOOP('',(#565,#566,#567,#568));
#327=AXIS2_PLACEMENT_3D('',#569,#570,#571);
#328=EDGE_LOOP('',(#572,#573,#574,#575,#576,#577,#578,#579));
#329=AXIS2_PLACEMENT_3D('',#580,#581,#582);
#330=EDGE_LOOP('',(#583,#584,#585,#586));
#331=AXIS2_PLACEMENT_3D('',#587,#588,#589);
#332=EDGE_LOOP('',(#590,#591,#592,#593));
#333=AXIS2_PLACEMENT_3D('',#594,#595,#596);
#334=EDGE_LOOP('',(#597,#598,#599,#600));
#335=AXIS2_PLACEMENT_3D('',#601,#602,#603);
#336=EDGE_LOOP('',(#604,#605,#606,#607));
#337=AXIS2_PLACEMENT_3D('',#608,#609,#610);
#338=EDGE_LOOP('',(#611,#612,#613,#614));
#339=AXIS2_PLACEMENT_3D('',#615,#616,#617);
#340=EDGE_LOOP('',(#618,#619,#620,#621));
#341=AXIS2_PLACEMENT_3D('',#622,#623,#624);
#342=EDGE_LOOP('',(#625,#626,#627,#628,#629,#630,#631,#632));
#343=AXIS2_PLACEMENT_3D('',#633,#634,#635);
#344=EDGE_LOOP('',(#636,#637,#638,#639));
#345=AXIS2_PLACEMENT_3D('',#640,#641,#642);
#346=EDGE_LOOP('',(#643,#644,#645,#646,#647,#648,#649,#650));
#347=EDGE_LOOP('',(#651,#652,#653,#654));
#348=AXIS2_PLACEMENT_3D('',#655,#656,#657);
#349=EDGE_LOOP('',(#658,#659,#660,#661,#662,#663,#664,#665));
#350=EDGE_LOOP('',(#666,#667,#668,#669));
#351=AXIS2_PLACEMENT_3D('',#670,#671,#672);
#352=EDGE_LOOP('',(#673,#674,#675,#676,#677,#678,#679,#680,#681,#682,#683,#684));
#353=AXIS2_PLACEMENT_3D('',#685,#686,#687);
#354=EDGE_LOOP('',(#688,#689,#690,#691));
#355=AXIS2_PLACEMENT_3D('',#692,#693,#694);
#356=EDGE_LOOP('',(#695,#696,#697,#698,#699,#700));
#357=AXIS2_PLACEMENT_3D('',#701,#702,#703);
#358=EDGE_LOOP('',(#704,#705,#706,#707,#708,#709));
#359=AXIS2_PLACEMENT_3D('',#710,#711,#712);
#360=EDGE_LOOP('',(#713,#714,#715,#716));
#361=AXIS2_PLACEMENT_3D('',#717,#718,#719);
#362=EDGE_LOOP('',(#720,#721,#722,#723));
#363=AXIS2_PLACEMENT_3D('',#724,#725,#726);
#364=EDGE_LOOP('',(#727,#728,#729,#730,#731,#732));
#365=AXIS2_PLACEMENT_3D('',#733,#734,#735);
#366=EDGE_LOOP('',(#736,#737,#738,#739,#740,#741));
#367=AXIS2_PLACEMENT_3D('',#742,#743,#744);
#368=EDGE_LOOP('',(#745,#746,#747,#748));
#369=AXIS2_PLACEMENT_3D('',#749,#750,#751);
#370=EDGE_LOOP('',(#752,#753,#754,#755,#756,#757,#758,#759,#760,#761,#762,#763,#764));
#371=EDGE_LOOP('',(#765,#766,#767,#768));
#372=EDGE_LOOP('',(#769,#770,#771,#772,#773,#774));
#373=AXIS2_PLACEMENT_3D('',#775,#776,#777);
#374=EDGE_LOOP('',(#778,#779,#780,#781));
#375=AXIS2_PLACEMENT_3D('',#782,#783,#784);
#376=EDGE_LOOP('',(#785,#786,#787,#788));
#377=AXIS2_PLACEMENT_3D('',#789,#790,#791);
#378=EDGE_LOOP('',(#792,#793,#794,#795));
#379=AXIS2_PLACEMENT_3D('',#796,#797,#798);
#380=EDGE_LOOP('',(#799,#800,#801,#802));
#381=AXIS2_PLACEMENT_3D('',#803,#804,#805);
#382=EDGE_LOOP('',(#806,#807,#808,#809));
#383=AXIS2_PLACEMENT_3D('',#810,#811,#812);
#384=EDGE_LOOP('',(#813,#814,#815,#816,#817,#818,#819,#820));
#385=AXIS2_PLACEMENT_3D('',#821,#822,#823);
#386=EDGE_LOOP('',(#824,#825,#826,#827));
#387=AXIS2_PLACEMENT_3D('',#828,#829,#830);
#388=EDGE_LOOP('',(#831,#832,#833,#834));
#389=AXIS2_PLACEMENT_3D('',#835,#836,#837);
#390=EDGE_LOOP('',(#838,#839,#840,#841));
#391=AXIS2_PLACEMENT_3D('',#842,#843,#844);
#392=EDGE_LOOP('',(#845,#846,#847,#848));
#393=AXIS2_PLACEMENT_3D('',#849,#850,#851);
#394=EDGE_LOOP('',(#852,#853,#854,#855));
#395=AXIS2_PLACEMENT_3D('',#856,#857,#858);
#396=EDGE_LOOP('',(#859,#860,#861,#862));
#397=AXIS2_PLACEMENT_3D('',#863,#864,#865);
#398=EDGE_LOOP('',(#866,#867,#868,#869));
#399=AXIS2_PLACEMENT_3D('',#870,#871,#872);
#400=EDGE_LOOP('',(#873,#874,#875,#876));
#401=EDGE_LOOP('',(#877,#878,#879,#880));
#402=AXIS2_PLACEMENT_3D('',#881,#882,#883);
#403=EDGE_LOOP('',(#884,#885,#886,#887,#888,#889));
#404=EDGE_LOOP('',(#890,#891,#892,#893));
#405=AXIS2_PLACEMENT_3D('',#894,#895,#896);
#406=EDGE_LOOP('',(#897,#898,#899,#900));
#407=AXIS2_PLACEMENT_3D('',#901,#902,#903);
#408=EDGE_LOOP('',(#904,#905,#906,#907));
#409=AXIS2_PLACEMENT_3D('',#908,#909,#910);
#410=EDGE_LOOP('',(#911,#912,#913,#914));
#411=AXIS2_PLACEMENT_3D('',#915,#916,#917);
#412=EDGE_LOOP('',(#918,#919,#920,#921));
#413=AXIS2_PLACEMENT_3D('',#922,#923,#924);
#414=EDGE_LOOP('',(#925,#926,#927,#928));
#415=AXIS2_PLACEMENT_3D('',#929,#930,#931);
#416=EDGE_LOOP('',(#932,#933,#934,#935));
#417=AXIS2_PLACEMENT_3D('',#936,#937,#938);
#418=EDGE_LOOP('',(#939,#940,#941,#942,#943));
#419=AXIS2_PLACEMENT_3D('',#944,#945,#946);
#420=EDGE_LOOP('',(#947,#948,#949,#950,#951));
#421=AXIS2_PLACEMENT_3D('',#952,#953,#954);
#422=EDGE_LOOP('',(#955,#956,#957,#958,#959));
#423=AXIS2_PLACEMENT_3D('',#960,#961,#962);
#424=EDGE_LOOP('',(#963,#964,#965,#966,#967));
#425=AXIS2_PLACEMENT_3D('',#968,#969,#970);
#426=EDGE_LOOP('',(#971,#972,#973,#974));
#427=AXIS2_PLACEMENT_3D('',#975,#976,#977);
#428=EDGE_LOOP('',(#978,#979,#980,#981,#982));
#429=AXIS2_PLACEMENT_3D('',#983,#984,#985);
#430=EDGE_LOOP('',(#986,#987,#988,#989,#990));
#431=AXIS2_PLACEMENT_3D('',#991,#992,#993);
#432=EDGE_LOOP('',(#994,#995,#996,#997,#998));
#433=AXIS2_PLACEMENT_3D('',#999,#1000,#1001);
#434=EDGE_LOOP('',(#1002,#1003,#1004,#1005,#1006));
#435=AXIS2_PLACEMENT_3D('',#1007,#1008,#1009);
#436=EDGE_LOOP('',(#1010,#1011,#1012,#1013));
#437=AXIS2_PLACEMENT_3D('',#1014,#1015,#1016);
#438=EDGE_LOOP('',(#1017,#1018,#1019,#1020));
#439=AXIS2_PLACEMENT_3D('',#1021,#1022,#1023);
#440=EDGE_LOOP('',(#1024,#1025,#1026,#1027));
#441=AXIS2_PLACEMENT_3D('',#1028,#1029,#1030);
#442=EDGE_LOOP('',(#1031,#1032,#1033,#1034));
#443=AXIS2_PLACEMENT_3D('',#1035,#1036,#1037);
#444=EDGE_LOOP('',(#1038,#1039,#1040,#1041));
#445=AXIS2_PLACEMENT_3D('',#1042,#1043,#1044);
#446=EDGE_LOOP('',(#1045,#1046,#1047,#1048));
#447=AXIS2_PLACEMENT_3D('',#1049,#1050,#1051);
#448=EDGE_LOOP('',(#1052,#1053,#1054,#1055));
#449=AXIS2_PLACEMENT_3D('',#1056,#1057,#1058);
#450=EDGE_LOOP('',(#1059,#1060,#1061,#1062));
#451=AXIS2_PLACEMENT_3D('',#1063,#1064,#1065);
#452=EDGE_LOOP('',(#1066,#1067,#1068,#1069));
#453=AXIS2_PLACEMENT_3D('',#1070,#1071,#1072);
#454=EDGE_LOOP('',(#1073,#1074,#1075,#1076));
#455=AXIS2_PLACEMENT_3D('',#1077,#1078,#1079);
#456=EDGE_LOOP('',(#1080,#1081,#1082,#1083));
#457=AXIS2_PLACEMENT_3D('',#1084,#1085,#1086);
#458=EDGE_LOOP('',(#1087,#1088,#1089,#1090));
#459=AXIS2_PLACEMENT_3D('',#1091,#1092,#1093);
#460=EDGE_LOOP('',(#1094,#1095,#1096,#1097));
#461=AXIS2_PLACEMENT_3D('',#1098,#1099,#1100);
#462=EDGE_LOOP('',(#1101,#1102,#1103,#1104));
#463=AXIS2_PLACEMENT_3D('',#1105,#1106,#1107);
#464=EDGE_LOOP('',(#1108,#1109,#1110,#1111));
#465=AXIS2_PLACEMENT_3D('',#1112,#1113,#1114);
#466=EDGE_LOOP('',(#1115,#1116,#1117,#1118));
#467=AXIS2_PLACEMENT_3D('',#1119,#1120,#1121);
#468=CIRCLE('',#1122,0.7);
#469=CIRCLE('',#1123,0.7);
#470=CIRCLE('',#1124,0.7);
#471=CIRCLE('',#1125,0.7);
#472=ORIENTED_EDGE('',*,*,#1126,.F.);
#473=ORIENTED_EDGE('',*,*,#1127,.T.);
#474=ORIENTED_EDGE('',*,*,#1128,.T.);
#475=ORIENTED_EDGE('',*,*,#1129,.F.);
#476=CARTESIAN_POINT('',(2.7,12.8,2.6));
#477=DIRECTION('',(0.0,1.0,-0.0));
#478=DIRECTION('',(1.0,0.0,0.0));
#479=ORIENTED_EDGE('',*,*,#1130,.T.);
#480=ORIENTED_EDGE('',*,*,#1131,.F.);
#481=ORIENTED_EDGE('',*,*,#1132,.F.);
#482=ORIENTED_EDGE('',*,*,#1133,.F.);
#483=ORIENTED_EDGE('',*,*,#1134,.F.);
#484=ORIENTED_EDGE('',*,*,#1135,.F.);
#485=CARTESIAN_POINT('',(-2.7,0.0,0.0));
#486=DIRECTION('',(1.0,0.0,0.0));
#487=DIRECTION('',(0.0,1.0,0.0));
#488=ORIENTED_EDGE('',*,*,#1136,.F.);
#489=ORIENTED_EDGE('',*,*,#1137,.F.);
#490=ORIENTED_EDGE('',*,*,#1138,.F.);
#491=ORIENTED_EDGE('',*,*,#1139,.T.);
#492=ORIENTED_EDGE('',*,*,#1140,.T.);
#493=ORIENTED_EDGE('',*,*,#1141,.T.);
#494=CARTESIAN_POINT('',(-2.7,0.0,0.0));
#495=DIRECTION('',(1.0,0.0,0.0));
#496=DIRECTION('',(0.0,1.0,0.0));
#497=ORIENTED_EDGE('',*,*,#1142,.F.);
#498=ORIENTED_EDGE('',*,*,#1135,.T.);
#499=ORIENTED_EDGE('',*,*,#1143,.T.);
#500=ORIENTED_EDGE('',*,*,#1144,.T.);
#501=CARTESIAN_POINT('',(-2.7,12.8,-1.59));
#502=DIRECTION('',(-0.707106781186548,0.0,0.707106781186548));
#503=DIRECTION('',(0.0,1.0,0.0));
#504=ORIENTED_EDGE('',*,*,#1145,.T.);
#505=ORIENTED_EDGE('',*,*,#1146,.T.);
#506=ORIENTED_EDGE('',*,*,#1147,.F.);
#507=ORIENTED_EDGE('',*,*,#1144,.F.);
#508=CARTESIAN_POINT('',(-3.1,12.8,-1.99));
#509=DIRECTION('',(-1.0,0.0,0.0));
#510=DIRECTION('',(0.0,0.0,1.0));
#511=ORIENTED_EDGE('',*,*,#1148,.T.);
#512=ORIENTED_EDGE('',*,*,#1130,.F.);
#513=ORIENTED_EDGE('',*,*,#1142,.T.);
#514=ORIENTED_EDGE('',*,*,#1147,.T.);
#515=ORIENTED_EDGE('',*,*,#1149,.T.);
#516=ORIENTED_EDGE('',*,*,#1140,.F.);
#517=ORIENTED_EDGE('',*,*,#1150,.T.);
#518=ORIENTED_EDGE('',*,*,#1151,.T.);
#519=ORIENTED_EDGE('',*,*,#1152,.T.);
#520=ORIENTED_EDGE('',*,*,#1153,.T.);
#521=ORIENTED_EDGE('',*,*,#1154,.T.);
#522=ORIENTED_EDGE('',*,*,#1155,.T.);
#523=CARTESIAN_POINT('',(-2.7,0.2,0.0));
#524=DIRECTION('',(0.0,-1.0,0.0));
#525=DIRECTION('',(0.0,0.0,-1.0));
#526=ORIENTED_EDGE('',*,*,#1156,.T.);
#527=ORIENTED_EDGE('',*,*,#1157,.T.);
#528=ORIENTED_EDGE('',*,*,#1158,.T.);
#529=ORIENTED_EDGE('',*,*,#1159,.F.);
#530=ORIENTED_EDGE('',*,*,#1160,.T.);
#531=ORIENTED_EDGE('',*,*,#1161,.T.);
#532=ORIENTED_EDGE('',*,*,#1162,.T.);
#533=ORIENTED_EDGE('',*,*,#1129,.T.);
#534=ORIENTED_EDGE('',*,*,#1163,.T.);
#535=ORIENTED_EDGE('',*,*,#1164,.T.);
#536=ORIENTED_EDGE('',*,*,#1165,.F.);
#537=CARTESIAN_POINT('',(-2.7,0.2,0.0));
#538=DIRECTION('',(0.0,-1.0,0.0));
#539=DIRECTION('',(0.0,0.0,-1.0));
#540=ORIENTED_EDGE('',*,*,#1166,.T.);
#541=ORIENTED_EDGE('',*,*,#1167,.F.);
#542=ORIENTED_EDGE('',*,*,#1168,.F.);
#543=ORIENTED_EDGE('',*,*,#1155,.F.);
#544=CARTESIAN_POINT('',(-1.3,0.0,3.8));
#545=DIRECTION('',(-1.0,0.0,0.0));
#546=DIRECTION('',(0.0,0.0,1.0));
#547=ORIENTED_EDGE('',*,*,#1169,.F.);
#548=ORIENTED_EDGE('',*,*,#1170,.F.);
#549=ORIENTED_EDGE('',*,*,#1171,.F.);
#550=ORIENTED_EDGE('',*,*,#1172,.F.);
#551=ORIENTED_EDGE('',*,*,#1173,.F.);
#552=ORIENTED_EDGE('',*,*,#1164,.F.);
#553=CARTESIAN_POINT('',(-1.0,0.0,3.8));
#554=DIRECTION('',(0.0,0.0,1.0));
#555=DIRECTION('',(1.0,0.0,0.0));
#556=ORIENTED_EDGE('',*,*,#1174,.F.);
#557=ORIENTED_EDGE('',*,*,#1175,.F.);
#558=ORIENTED_EDGE('',*,*,#1176,.F.);
#559=ORIENTED_EDGE('',*,*,#1131,.T.);
#560=ORIENTED_EDGE('',*,*,#1148,.F.);
#561=ORIENTED_EDGE('',*,*,#1168,.T.);
#562=CARTESIAN_POINT('',(-1.0,0.0,3.8));
#563=DIRECTION('',(0.0,0.0,1.0));
#564=DIRECTION('',(1.0,0.0,0.0));
#565=ORIENTED_EDGE('',*,*,#1173,.T.);
#566=ORIENTED_EDGE('',*,*,#1177,.F.);
#567=ORIENTED_EDGE('',*,*,#1178,.F.);
#568=ORIENTED_EDGE('',*,*,#1165,.T.);
#569=CARTESIAN_POINT('',(1.3,0.0,0.5));
#570=DIRECTION('',(1.0,0.0,0.0));
#571=DIRECTION('',(0.0,1.0,0.0));
#572=ORIENTED_EDGE('',*,*,#1179,.F.);
#573=ORIENTED_EDGE('',*,*,#1166,.F.);
#574=ORIENTED_EDGE('',*,*,#1154,.F.);
#575=ORIENTED_EDGE('',*,*,#1180,.F.);
#576=ORIENTED_EDGE('',*,*,#1181,.T.);
#577=ORIENTED_EDGE('',*,*,#1182,.T.);
#578=ORIENTED_EDGE('',*,*,#1156,.F.);
#579=ORIENTED_EDGE('',*,*,#1178,.T.);
#580=CARTESIAN_POINT('',(-1.3,0.0,0.5));
#581=DIRECTION('',(0.0,0.0,-1.0));
#582=DIRECTION('',(0.0,-1.0,0.0));
#583=ORIENTED_EDGE('',*,*,#1183,.T.);
#584=ORIENTED_EDGE('',*,*,#1157,.F.);
#585=ORIENTED_EDGE('',*,*,#1182,.F.);
#586=ORIENTED_EDGE('',*,*,#1184,.T.);
#587=CARTESIAN_POINT('',(1.7,0.0,0.5));
#588=DIRECTION('',(-1.0,0.0,0.0));
#589=DIRECTION('',(0.0,0.0,1.0));
#590=ORIENTED_EDGE('',*,*,#1185,.F.);
#591=ORIENTED_EDGE('',*,*,#1186,.F.);
#592=ORIENTED_EDGE('',*,*,#1184,.F.);
#593=ORIENTED_EDGE('',*,*,#1181,.F.);
#594=CARTESIAN_POINT('',(-2.7,0.0,4.8));
#595=DIRECTION('',(0.0,-1.0,0.0));
#596=DIRECTION('',(0.0,0.0,-1.0));
#597=ORIENTED_EDGE('',*,*,#1132,.T.);
#598=ORIENTED_EDGE('',*,*,#1176,.T.);
#599=ORIENTED_EDGE('',*,*,#1187,.F.);
#600=ORIENTED_EDGE('',*,*,#1188,.F.);
#601=CARTESIAN_POINT('',(-2.7,0.0,4.8));
#602=DIRECTION('',(0.0,-1.0,0.0));
#603=DIRECTION('',(0.0,0.0,-1.0));
#604=ORIENTED_EDGE('',*,*,#1189,.T.);
#605=ORIENTED_EDGE('',*,*,#1170,.T.);
#606=ORIENTED_EDGE('',*,*,#1190,.F.);
#607=ORIENTED_EDGE('',*,*,#1191,.F.);
#608=CARTESIAN_POINT('',(-2.7,0.0,4.8));
#609=DIRECTION('',(0.0,-1.0,0.0));
#610=DIRECTION('',(0.0,0.0,-1.0));
#611=ORIENTED_EDGE('',*,*,#1192,.T.);
#612=ORIENTED_EDGE('',*,*,#1193,.F.);
#613=ORIENTED_EDGE('',*,*,#1138,.T.);
#614=ORIENTED_EDGE('',*,*,#1194,.T.);
#615=CARTESIAN_POINT('',(-2.7,0.0,4.8));
#616=DIRECTION('',(0.0,-1.0,0.0));
#617=DIRECTION('',(0.0,0.0,-1.0));
#618=ORIENTED_EDGE('',*,*,#1195,.F.);
#619=ORIENTED_EDGE('',*,*,#1196,.F.);
#620=ORIENTED_EDGE('',*,*,#1197,.F.);
#621=ORIENTED_EDGE('',*,*,#1198,.T.);
#622=CARTESIAN_POINT('',(-2.7,0.0,4.8));
#623=DIRECTION('',(0.0,-1.0,0.0));
#624=DIRECTION('',(0.0,0.0,-1.0));
#625=ORIENTED_EDGE('',*,*,#1199,.F.);
#626=ORIENTED_EDGE('',*,*,#1200,.F.);
#627=ORIENTED_EDGE('',*,*,#1158,.F.);
#628=ORIENTED_EDGE('',*,*,#1183,.F.);
#629=ORIENTED_EDGE('',*,*,#1186,.T.);
#630=ORIENTED_EDGE('',*,*,#1201,.T.);
#631=ORIENTED_EDGE('',*,*,#1152,.F.);
#632=ORIENTED_EDGE('',*,*,#1202,.T.);
#633=CARTESIAN_POINT('',(1.3,0.0,-0.5));
#634=DIRECTION('',(0.0,0.0,1.0));
#635=DIRECTION('',(1.0,0.0,0.0));
#636=ORIENTED_EDGE('',*,*,#1203,.T.);
#637=ORIENTED_EDGE('',*,*,#1204,.F.);
#638=ORIENTED_EDGE('',*,*,#1202,.F.);
#639=ORIENTED_EDGE('',*,*,#1151,.F.);
#640=CARTESIAN_POINT('',(-1.3,0.0,-0.5));
#641=DIRECTION('',(-1.0,0.0,0.0));
#642=DIRECTION('',(0.0,0.0,1.0));
#643=ORIENTED_EDGE('',*,*,#1205,.T.);
#644=ORIENTED_EDGE('',*,*,#1206,.T.);
#645=ORIENTED_EDGE('',*,*,#1207,.T.);
#646=ORIENTED_EDGE('',*,*,#1199,.T.);
#647=ORIENTED_EDGE('',*,*,#1204,.T.);
#648=ORIENTED_EDGE('',*,*,#1208,.T.);
#649=ORIENTED_EDGE('',*,*,#1209,.T.);
#650=ORIENTED_EDGE('',*,*,#1210,.T.);
#651=ORIENTED_EDGE('',*,*,#1211,.T.);
#652=ORIENTED_EDGE('',*,*,#1212,.T.);
#653=ORIENTED_EDGE('',*,*,#1213,.F.);
#654=ORIENTED_EDGE('',*,*,#1214,.F.);
#655=CARTESIAN_POINT('',(-2.7,0.8,4.8));
#656=DIRECTION('',(0.0,-1.0,0.0));
#657=DIRECTION('',(0.0,0.0,-1.0));
#658=ORIENTED_EDGE('',*,*,#1215,.T.);
#659=ORIENTED_EDGE('',*,*,#1174,.T.);
#660=ORIENTED_EDGE('',*,*,#1167,.T.);
#661=ORIENTED_EDGE('',*,*,#1179,.T.);
#662=ORIENTED_EDGE('',*,*,#1177,.T.);
#663=ORIENTED_EDGE('',*,*,#1172,.T.);
#664=ORIENTED_EDGE('',*,*,#1216,.T.);
#665=ORIENTED_EDGE('',*,*,#1217,.F.);
#666=ORIENTED_EDGE('',*,*,#1218,.T.);
#667=ORIENTED_EDGE('',*,*,#1219,.T.);
#668=ORIENTED_EDGE('',*,*,#1220,.F.);
#669=ORIENTED_EDGE('',*,*,#1221,.F.);
#670=CARTESIAN_POINT('',(-2.7,0.8,4.8));
#671=DIRECTION('',(0.0,-1.0,0.0));
#672=DIRECTION('',(0.0,0.0,-1.0));
#673=ORIENTED_EDGE('',*,*,#1137,.T.);
#674=ORIENTED_EDGE('',*,*,#1222,.T.);
#675=ORIENTED_EDGE('',*,*,#1223,.T.);
#676=ORIENTED_EDGE('',*,*,#1224,.T.);
#677=ORIENTED_EDGE('',*,*,#1225,.F.);
#678=ORIENTED_EDGE('',*,*,#1226,.T.);
#679=ORIENTED_EDGE('',*,*,#1227,.F.);
#680=ORIENTED_EDGE('',*,*,#1198,.F.);
#681=ORIENTED_EDGE('',*,*,#1228,.T.);
#682=ORIENTED_EDGE('',*,*,#1210,.F.);
#683=ORIENTED_EDGE('',*,*,#1229,.F.);
#684=ORIENTED_EDGE('',*,*,#1194,.F.);
#685=CARTESIAN_POINT('',(-2.7,0.0,-4.8));
#686=DIRECTION('',(0.0,0.0,-1.0));
#687=DIRECTION('',(0.0,-1.0,0.0));
#688=ORIENTED_EDGE('',*,*,#1229,.T.);
#689=ORIENTED_EDGE('',*,*,#1209,.F.);
#690=ORIENTED_EDGE('',*,*,#1230,.T.);
#691=ORIENTED_EDGE('',*,*,#1192,.F.);
#692=CARTESIAN_POINT('',(-1.0,0.0,-3.8));
#693=DIRECTION('',(-1.0,0.0,0.0));
#694=DIRECTION('',(0.0,0.0,1.0));
#695=ORIENTED_EDGE('',*,*,#1196,.T.);
#696=ORIENTED_EDGE('',*,*,#1231,.T.);
#697=ORIENTED_EDGE('',*,*,#1160,.F.);
#698=ORIENTED_EDGE('',*,*,#1232,.T.);
#699=ORIENTED_EDGE('',*,*,#1206,.F.);
#700=ORIENTED_EDGE('',*,*,#1233,.F.);
#701=CARTESIAN_POINT('',(-1.3,0.0,-3.8));
#702=DIRECTION('',(0.0,0.0,-1.0));
#703=DIRECTION('',(0.0,-1.0,0.0));
#704=ORIENTED_EDGE('',*,*,#1208,.F.);
#705=ORIENTED_EDGE('',*,*,#1203,.F.);
#706=ORIENTED_EDGE('',*,*,#1150,.F.);
#707=ORIENTED_EDGE('',*,*,#1139,.F.);
#708=ORIENTED_EDGE('',*,*,#1193,.T.);
#709=ORIENTED_EDGE('',*,*,#1230,.F.);
#710=CARTESIAN_POINT('',(-1.3,0.0,-3.8));
#711=DIRECTION('',(0.0,0.0,-1.0));
#712=DIRECTION('',(0.0,-1.0,0.0));
#713=ORIENTED_EDGE('',*,*,#1233,.T.);
#714=ORIENTED_EDGE('',*,*,#1205,.F.);
#715=ORIENTED_EDGE('',*,*,#1228,.F.);
#716=ORIENTED_EDGE('',*,*,#1197,.T.);
#717=CARTESIAN_POINT('',(1.0,0.0,-4.8));
#718=DIRECTION('',(1.0,0.0,0.0));
#719=DIRECTION('',(0.0,1.0,0.0));
#720=ORIENTED_EDGE('',*,*,#1200,.T.);
#721=ORIENTED_EDGE('',*,*,#1207,.F.);
#722=ORIENTED_EDGE('',*,*,#1232,.F.);
#723=ORIENTED_EDGE('',*,*,#1159,.T.);
#724=CARTESIAN_POINT('',(1.3,0.0,-3.8));
#725=DIRECTION('',(1.0,0.0,0.0));
#726=DIRECTION('',(0.0,1.0,0.0));
#727=ORIENTED_EDGE('',*,*,#1161,.F.);
#728=ORIENTED_EDGE('',*,*,#1231,.F.);
#729=ORIENTED_EDGE('',*,*,#1195,.T.);
#730=ORIENTED_EDGE('',*,*,#1227,.T.);
#731=ORIENTED_EDGE('',*,*,#1234,.T.);
#732=ORIENTED_EDGE('',*,*,#1235,.T.);
#733=CARTESIAN_POINT('',(2.7,0.0,0.0));
#734=DIRECTION('',(1.0,0.0,0.0));
#735=DIRECTION('',(0.0,1.0,0.0));
#736=ORIENTED_EDGE('',*,*,#1236,.T.);
#737=ORIENTED_EDGE('',*,*,#1237,.T.);
#738=ORIENTED_EDGE('',*,*,#1190,.T.);
#739=ORIENTED_EDGE('',*,*,#1169,.T.);
#740=ORIENTED_EDGE('',*,*,#1163,.F.);
#741=ORIENTED_EDGE('',*,*,#1128,.F.);
#742=CARTESIAN_POINT('',(2.7,0.0,0.0));
#743=DIRECTION('',(1.0,0.0,0.0));
#744=DIRECTION('',(0.0,1.0,0.0));
#745=ORIENTED_EDGE('',*,*,#1126,.T.);
#746=ORIENTED_EDGE('',*,*,#1162,.F.);
#747=ORIENTED_EDGE('',*,*,#1235,.F.);
#748=ORIENTED_EDGE('',*,*,#1238,.T.);
#749=CARTESIAN_POINT('',(2.7,12.8,2.6));
#750=DIRECTION('',(0.0,1.0,-0.0));
#751=DIRECTION('',(1.0,0.0,0.0));
#752=ORIENTED_EDGE('',*,*,#1222,.F.);
#753=ORIENTED_EDGE('',*,*,#1136,.T.);
#754=ORIENTED_EDGE('',*,*,#1239,.F.);
#755=ORIENTED_EDGE('',*,*,#1145,.F.);
#756=ORIENTED_EDGE('',*,*,#1143,.F.);
#757=ORIENTED_EDGE('',*,*,#1134,.T.);
#758=ORIENTED_EDGE('',*,*,#1240,.T.);
#759=ORIENTED_EDGE('',*,*,#1236,.F.);
#760=ORIENTED_EDGE('',*,*,#1127,.F.);
#761=ORIENTED_EDGE('',*,*,#1238,.F.);
#762=ORIENTED_EDGE('',*,*,#1234,.F.);
#763=ORIENTED_EDGE('',*,*,#1226,.F.);
#764=ORIENTED_EDGE('',*,*,#1241,.F.);
#765=ORIENTED_EDGE('',*,*,#1242,.F.);
#766=ORIENTED_EDGE('',*,*,#1243,.F.);
#767=ORIENTED_EDGE('',*,*,#1244,.F.);
#768=ORIENTED_EDGE('',*,*,#1245,.F.);
#769=ORIENTED_EDGE('',*,*,#1246,.F.);
#770=ORIENTED_EDGE('',*,*,#1247,.F.);
#771=ORIENTED_EDGE('',*,*,#1248,.F.);
#772=ORIENTED_EDGE('',*,*,#1249,.F.);
#773=ORIENTED_EDGE('',*,*,#1250,.F.);
#774=ORIENTED_EDGE('',*,*,#1251,.F.);
#775=CARTESIAN_POINT('',(-2.7,12.8,-4.8));
#776=DIRECTION('',(-0.0,1.0,0.0));
#777=DIRECTION('',(1.0,0.0,0.0));
#778=ORIENTED_EDGE('',*,*,#1252,.F.);
#779=ORIENTED_EDGE('',*,*,#1253,.F.);
#780=ORIENTED_EDGE('',*,*,#1254,.T.);
#781=ORIENTED_EDGE('',*,*,#1241,.T.);
#782=CARTESIAN_POINT('',(-1.7,10.45,-6.2));
#783=DIRECTION('',(0.0,0.511805175094575,-0.859101543908758));
#784=DIRECTION('',(-1.0,0.0,0.0));
#785=ORIENTED_EDGE('',*,*,#1254,.F.);
#786=ORIENTED_EDGE('',*,*,#1255,.F.);
#787=ORIENTED_EDGE('',*,*,#1256,.F.);
#788=ORIENTED_EDGE('',*,*,#1223,.F.);
#789=CARTESIAN_POINT('',(-1.7,0.0,0.0));
#790=DIRECTION('',(1.0,0.0,0.0));
#791=DIRECTION('',(0.0,1.0,0.0));
#792=ORIENTED_EDGE('',*,*,#1256,.T.);
#793=ORIENTED_EDGE('',*,*,#1257,.T.);
#794=ORIENTED_EDGE('',*,*,#1258,.F.);
#795=ORIENTED_EDGE('',*,*,#1224,.F.);
#796=CARTESIAN_POINT('',(-1.7,9.75,-4.8));
#797=DIRECTION('',(0.0,-1.0,0.0));
#798=DIRECTION('',(0.0,0.0,-1.0));
#799=ORIENTED_EDGE('',*,*,#1258,.T.);
#800=ORIENTED_EDGE('',*,*,#1259,.T.);
#801=ORIENTED_EDGE('',*,*,#1252,.T.);
#802=ORIENTED_EDGE('',*,*,#1225,.T.);
#803=CARTESIAN_POINT('',(1.7,0.0,0.0));
#804=DIRECTION('',(1.0,0.0,0.0));
#805=DIRECTION('',(0.0,1.0,0.0));
#806=ORIENTED_EDGE('',*,*,#1253,.T.);
#807=ORIENTED_EDGE('',*,*,#1259,.F.);
#808=ORIENTED_EDGE('',*,*,#1257,.F.);
#809=ORIENTED_EDGE('',*,*,#1255,.T.);
#810=CARTESIAN_POINT('',(-1.7,9.75,-6.2));
#811=DIRECTION('',(0.0,0.0,-1.0));
#812=DIRECTION('',(0.0,-1.0,0.0));
#813=ORIENTED_EDGE('',*,*,#1260,.T.);
#814=ORIENTED_EDGE('',*,*,#1217,.T.);
#815=ORIENTED_EDGE('',*,*,#1261,.F.);
#816=ORIENTED_EDGE('',*,*,#1191,.T.);
#817=ORIENTED_EDGE('',*,*,#1237,.F.);
#818=ORIENTED_EDGE('',*,*,#1240,.F.);
#819=ORIENTED_EDGE('',*,*,#1133,.T.);
#820=ORIENTED_EDGE('',*,*,#1188,.T.);
#821=CARTESIAN_POINT('',(-2.7,12.8,4.8));
#822=DIRECTION('',(0.0,0.0,1.0));
#823=DIRECTION('',(1.0,0.0,0.0));
#824=ORIENTED_EDGE('',*,*,#1261,.T.);
#825=ORIENTED_EDGE('',*,*,#1216,.F.);
#826=ORIENTED_EDGE('',*,*,#1171,.T.);
#827=ORIENTED_EDGE('',*,*,#1189,.F.);
#828=CARTESIAN_POINT('',(1.0,0.0,3.8));
#829=DIRECTION('',(1.0,0.0,0.0));
#830=DIRECTION('',(0.0,1.0,0.0));
#831=ORIENTED_EDGE('',*,*,#1175,.T.);
#832=ORIENTED_EDGE('',*,*,#1215,.F.);
#833=ORIENTED_EDGE('',*,*,#1260,.F.);
#834=ORIENTED_EDGE('',*,*,#1187,.T.);
#835=CARTESIAN_POINT('',(-1.0,0.0,4.8));
#836=DIRECTION('',(-1.0,0.0,0.0));
#837=DIRECTION('',(0.0,0.0,1.0));
#838=ORIENTED_EDGE('',*,*,#1239,.T.);
#839=ORIENTED_EDGE('',*,*,#1141,.F.);
#840=ORIENTED_EDGE('',*,*,#1149,.F.);
#841=ORIENTED_EDGE('',*,*,#1146,.F.);
#842=CARTESIAN_POINT('',(-3.1,12.8,-2.99));
#843=DIRECTION('',(-0.707106781186548,0.0,-0.707106781186548));
#844=DIRECTION('',(-0.707106781186548,0.0,0.707106781186548));
#845=ORIENTED_EDGE('',*,*,#1262,.T.);
#846=ORIENTED_EDGE('',*,*,#1263,.F.);
#847=ORIENTED_EDGE('',*,*,#1264,.F.);
#848=ORIENTED_EDGE('',*,*,#1245,.T.);
#849=CARTESIAN_POINT('',(1.8,12.8,3.9));
#850=DIRECTION('',(1.0,0.0,0.0));
#851=DIRECTION('',(0.0,1.0,0.0));
#852=ORIENTED_EDGE('',*,*,#1264,.T.);
#853=ORIENTED_EDGE('',*,*,#1265,.F.);
#854=ORIENTED_EDGE('',*,*,#1266,.F.);
#855=ORIENTED_EDGE('',*,*,#1242,.T.);
#856=CARTESIAN_POINT('',(-1.8,12.8,3.9));
#857=DIRECTION('',(0.0,0.0,1.0));
#858=DIRECTION('',(1.0,0.0,0.0));
#859=ORIENTED_EDGE('',*,*,#1266,.T.);
#860=ORIENTED_EDGE('',*,*,#1267,.F.);
#861=ORIENTED_EDGE('',*,*,#1268,.F.);
#862=ORIENTED_EDGE('',*,*,#1243,.T.);
#863=CARTESIAN_POINT('',(-1.8,12.8,0.3));
#864=DIRECTION('',(-1.0,0.0,0.0));
#865=DIRECTION('',(0.0,0.0,1.0));
#866=ORIENTED_EDGE('',*,*,#1268,.T.);
#867=ORIENTED_EDGE('',*,*,#1269,.F.);
#868=ORIENTED_EDGE('',*,*,#1262,.F.);
#869=ORIENTED_EDGE('',*,*,#1244,.T.);
#870=CARTESIAN_POINT('',(1.8,12.8,0.3));
#871=DIRECTION('',(0.0,0.0,-1.0));
#872=DIRECTION('',(0.0,-1.0,0.0));
#873=ORIENTED_EDGE('',*,*,#1269,.T.);
#874=ORIENTED_EDGE('',*,*,#1267,.T.);
#875=ORIENTED_EDGE('',*,*,#1265,.T.);
#876=ORIENTED_EDGE('',*,*,#1263,.T.);
#877=ORIENTED_EDGE('',*,*,#1270,.T.);
#878=ORIENTED_EDGE('',*,*,#1271,.F.);
#879=ORIENTED_EDGE('',*,*,#1272,.F.);
#880=ORIENTED_EDGE('',*,*,#1273,.T.);
#881=CARTESIAN_POINT('',(-2.7,3.7,-4.8));
#882=DIRECTION('',(-0.0,1.0,0.0));
#883=DIRECTION('',(1.0,0.0,0.0));
#884=ORIENTED_EDGE('',*,*,#1274,.T.);
#885=ORIENTED_EDGE('',*,*,#1275,.T.);
#886=ORIENTED_EDGE('',*,*,#1276,.T.);
#887=ORIENTED_EDGE('',*,*,#1277,.T.);
#888=ORIENTED_EDGE('',*,*,#1278,.T.);
#889=ORIENTED_EDGE('',*,*,#1279,.T.);
#890=ORIENTED_EDGE('',*,*,#1280,.T.);
#891=ORIENTED_EDGE('',*,*,#1281,.F.);
#892=ORIENTED_EDGE('',*,*,#1282,.F.);
#893=ORIENTED_EDGE('',*,*,#1283,.T.);
#894=CARTESIAN_POINT('',(-2.7,3.7,-4.8));
#895=DIRECTION('',(-0.0,1.0,0.0));
#896=DIRECTION('',(1.0,0.0,0.0));
#897=ORIENTED_EDGE('',*,*,#1284,.T.);
#898=ORIENTED_EDGE('',*,*,#1279,.F.);
#899=ORIENTED_EDGE('',*,*,#1285,.F.);
#900=ORIENTED_EDGE('',*,*,#1251,.T.);
#901=CARTESIAN_POINT('',(1.8,12.8,-1.2));
#902=DIRECTION('',(1.0,0.0,0.0));
#903=DIRECTION('',(0.0,1.0,0.0));
#904=ORIENTED_EDGE('',*,*,#1285,.T.);
#905=ORIENTED_EDGE('',*,*,#1278,.F.);
#906=ORIENTED_EDGE('',*,*,#1286,.F.);
#907=ORIENTED_EDGE('',*,*,#1246,.T.);
#908=CARTESIAN_POINT('',(0.9,12.8,-0.3));
#909=DIRECTION('',(0.707106781186548,0.0,0.707106781186548));
#910=DIRECTION('',(0.0,-1.0,0.0));
#911=ORIENTED_EDGE('',*,*,#1286,.T.);
#912=ORIENTED_EDGE('',*,*,#1277,.F.);
#913=ORIENTED_EDGE('',*,*,#1287,.F.);
#914=ORIENTED_EDGE('',*,*,#1247,.T.);
#915=CARTESIAN_POINT('',(-0.9,12.8,-0.3));
#916=DIRECTION('',(0.0,0.0,1.0));
#917=DIRECTION('',(1.0,0.0,0.0));
#918=ORIENTED_EDGE('',*,*,#1287,.T.);
#919=ORIENTED_EDGE('',*,*,#1276,.F.);
#920=ORIENTED_EDGE('',*,*,#1288,.F.);
#921=ORIENTED_EDGE('',*,*,#1248,.T.);
#922=CARTESIAN_POINT('',(-1.8,12.8,-1.2));
#923=DIRECTION('',(-0.707106781186548,0.0,0.707106781186548));
#924=DIRECTION('',(0.0,1.0,0.0));
#925=ORIENTED_EDGE('',*,*,#1288,.T.);
#926=ORIENTED_EDGE('',*,*,#1275,.F.);
#927=ORIENTED_EDGE('',*,*,#1289,.F.);
#928=ORIENTED_EDGE('',*,*,#1249,.T.);
#929=CARTESIAN_POINT('',(-1.8,12.8,-3.9));
#930=DIRECTION('',(-1.0,0.0,0.0));
#931=DIRECTION('',(0.0,0.0,1.0));
#932=ORIENTED_EDGE('',*,*,#1289,.T.);
#933=ORIENTED_EDGE('',*,*,#1274,.F.);
#934=ORIENTED_EDGE('',*,*,#1284,.F.);
#935=ORIENTED_EDGE('',*,*,#1250,.T.);
#936=CARTESIAN_POINT('',(1.8,12.8,-3.9));
#937=DIRECTION('',(0.0,0.0,-1.0));
#938=DIRECTION('',(0.0,-1.0,0.0));
#939=ORIENTED_EDGE('',*,*,#1290,.F.);
#940=ORIENTED_EDGE('',*,*,#1291,.F.);
#941=ORIENTED_EDGE('',*,*,#1292,.F.);
#942=ORIENTED_EDGE('',*,*,#1293,.F.);
#943=ORIENTED_EDGE('',*,*,#1283,.F.);
#944=CARTESIAN_POINT('',(0.57,0.0,0.0));
#945=DIRECTION('',(-1.0,0.0,0.0));
#946=DIRECTION('',(0.0,0.0,1.0));
#947=ORIENTED_EDGE('',*,*,#1294,.F.);
#948=ORIENTED_EDGE('',*,*,#1295,.F.);
#949=ORIENTED_EDGE('',*,*,#1296,.F.);
#950=ORIENTED_EDGE('',*,*,#1297,.F.);
#951=ORIENTED_EDGE('',*,*,#1273,.F.);
#952=CARTESIAN_POINT('',(0.57,0.0,0.0));
#953=DIRECTION('',(-1.0,0.0,0.0));
#954=DIRECTION('',(0.0,0.0,1.0));
#955=ORIENTED_EDGE('',*,*,#1221,.T.);
#956=ORIENTED_EDGE('',*,*,#1298,.F.);
#957=ORIENTED_EDGE('',*,*,#1299,.F.);
#958=ORIENTED_EDGE('',*,*,#1300,.F.);
#959=ORIENTED_EDGE('',*,*,#1301,.F.);
#960=CARTESIAN_POINT('',(0.57,0.0,0.0));
#961=DIRECTION('',(-1.0,0.0,0.0));
#962=DIRECTION('',(0.0,0.0,1.0));
#963=ORIENTED_EDGE('',*,*,#1302,.F.);
#964=ORIENTED_EDGE('',*,*,#1303,.F.);
#965=ORIENTED_EDGE('',*,*,#1304,.F.);
#966=ORIENTED_EDGE('',*,*,#1305,.F.);
#967=ORIENTED_EDGE('',*,*,#1214,.T.);
#968=CARTESIAN_POINT('',(0.57,0.0,0.0));
#969=DIRECTION('',(-1.0,0.0,0.0));
#970=DIRECTION('',(0.0,0.0,1.0));
#971=ORIENTED_EDGE('',*,*,#1293,.T.);
#972=ORIENTED_EDGE('',*,*,#1306,.T.);
#973=ORIENTED_EDGE('',*,*,#1307,.F.);
#974=ORIENTED_EDGE('',*,*,#1280,.F.);
#975=CARTESIAN_POINT('',(0.57,3.7,-1.71));
#976=DIRECTION('',(0.0,0.0,1.0));
#977=DIRECTION('',(1.0,0.0,0.0));
#978=ORIENTED_EDGE('',*,*,#1307,.T.);
#979=ORIENTED_EDGE('',*,*,#1308,.T.);
#980=ORIENTED_EDGE('',*,*,#1309,.T.);
#981=ORIENTED_EDGE('',*,*,#1310,.T.);
#982=ORIENTED_EDGE('',*,*,#1281,.T.);
#983=CARTESIAN_POINT('',(-0.57,0.0,0.0));
#984=DIRECTION('',(-1.0,0.0,0.0));
#985=DIRECTION('',(0.0,0.0,1.0));
#986=ORIENTED_EDGE('',*,*,#1311,.T.);
#987=ORIENTED_EDGE('',*,*,#1312,.T.);
#988=ORIENTED_EDGE('',*,*,#1313,.T.);
#989=ORIENTED_EDGE('',*,*,#1314,.T.);
#990=ORIENTED_EDGE('',*,*,#1271,.T.);
#991=CARTESIAN_POINT('',(-0.57,0.0,0.0));
#992=DIRECTION('',(-1.0,0.0,0.0));
#993=DIRECTION('',(0.0,0.0,1.0));
#994=ORIENTED_EDGE('',*,*,#1315,.T.);
#995=ORIENTED_EDGE('',*,*,#1316,.T.);
#996=ORIENTED_EDGE('',*,*,#1317,.T.);
#997=ORIENTED_EDGE('',*,*,#1219,.F.);
#998=ORIENTED_EDGE('',*,*,#1318,.T.);
#999=CARTESIAN_POINT('',(-0.57,0.0,0.0));
#1000=DIRECTION('',(-1.0,0.0,0.0));
#1001=DIRECTION('',(0.0,0.0,1.0));
#1002=ORIENTED_EDGE('',*,*,#1319,.T.);
#1003=ORIENTED_EDGE('',*,*,#1320,.T.);
#1004=ORIENTED_EDGE('',*,*,#1321,.T.);
#1005=ORIENTED_EDGE('',*,*,#1322,.T.);
#1006=ORIENTED_EDGE('',*,*,#1212,.F.);
#1007=CARTESIAN_POINT('',(-0.57,0.0,0.0));
#1008=DIRECTION('',(-1.0,0.0,0.0));
#1009=DIRECTION('',(0.0,0.0,1.0));
#1010=ORIENTED_EDGE('',*,*,#1310,.F.);
#1011=ORIENTED_EDGE('',*,*,#1323,.F.);
#1012=ORIENTED_EDGE('',*,*,#1290,.T.);
#1013=ORIENTED_EDGE('',*,*,#1282,.T.);
#1014=CARTESIAN_POINT('',(0.57,4.3,-2.85));
#1015=DIRECTION('',(0.0,0.554700196225229,-0.832050294337844));
#1016=DIRECTION('',(-1.0,0.0,0.0));
#1017=ORIENTED_EDGE('',*,*,#1323,.T.);
#1018=ORIENTED_EDGE('',*,*,#1309,.F.);
#1019=ORIENTED_EDGE('',*,*,#1324,.F.);
#1020=ORIENTED_EDGE('',*,*,#1291,.T.);
#1021=CARTESIAN_POINT('',(0.57,9.2,-2.85));
#1022=DIRECTION('',(0.0,0.0,-1.0));
#1023=DIRECTION('',(0.0,-1.0,0.0));
#1024=ORIENTED_EDGE('',*,*,#1324,.T.);
#1025=ORIENTED_EDGE('',*,*,#1308,.F.);
#1026=ORIENTED_EDGE('',*,*,#1306,.F.);
#1027=ORIENTED_EDGE('',*,*,#1292,.T.);
#1028=CARTESIAN_POINT('',(0.57,9.2,-1.71));
#1029=DIRECTION('',(-0.0,1.0,0.0));
#1030=DIRECTION('',(1.0,0.0,0.0));
#1031=ORIENTED_EDGE('',*,*,#1314,.F.);
#1032=ORIENTED_EDGE('',*,*,#1325,.F.);
#1033=ORIENTED_EDGE('',*,*,#1294,.T.);
#1034=ORIENTED_EDGE('',*,*,#1272,.T.);
#1035=CARTESIAN_POINT('',(0.57,9.2,1.31));
#1036=DIRECTION('',(0.0,0.0,-1.0));
#1037=DIRECTION('',(0.0,-1.0,0.0));
#1038=ORIENTED_EDGE('',*,*,#1325,.T.);
#1039=ORIENTED_EDGE('',*,*,#1313,.F.);
#1040=ORIENTED_EDGE('',*,*,#1326,.F.);
#1041=ORIENTED_EDGE('',*,*,#1295,.T.);
#1042=CARTESIAN_POINT('',(0.57,9.2,2.45));
#1043=DIRECTION('',(-0.0,1.0,0.0));
#1044=DIRECTION('',(1.0,0.0,0.0));
#1045=ORIENTED_EDGE('',*,*,#1326,.T.);
#1046=ORIENTED_EDGE('',*,*,#1312,.F.);
#1047=ORIENTED_EDGE('',*,*,#1327,.F.);
#1048=ORIENTED_EDGE('',*,*,#1296,.T.);
#1049=CARTESIAN_POINT('',(0.57,4.3,2.45));
#1050=DIRECTION('',(0.0,0.0,1.0));
#1051=DIRECTION('',(1.0,0.0,0.0));
#1052=ORIENTED_EDGE('',*,*,#1297,.T.);
#1053=ORIENTED_EDGE('',*,*,#1327,.T.);
#1054=ORIENTED_EDGE('',*,*,#1311,.F.);
#1055=ORIENTED_EDGE('',*,*,#1270,.F.);
#1056=CARTESIAN_POINT('',(0.57,3.7,2.85));
#1057=DIRECTION('',(0.0,0.554700196225229,0.832050294337844));
#1058=DIRECTION('',(1.0,-0.0,0.0));
#1059=ORIENTED_EDGE('',*,*,#1328,.T.);
#1060=ORIENTED_EDGE('',*,*,#1318,.F.);
#1061=ORIENTED_EDGE('',*,*,#1218,.F.);
#1062=ORIENTED_EDGE('',*,*,#1301,.T.);
#1063=CARTESIAN_POINT('',(0.57,3.7,2.25));
#1064=DIRECTION('',(0.0,0.0,-1.0));
#1065=DIRECTION('',(0.0,-1.0,0.0));
#1066=ORIENTED_EDGE('',*,*,#1329,.T.);
#1067=ORIENTED_EDGE('',*,*,#1315,.F.);
#1068=ORIENTED_EDGE('',*,*,#1328,.F.);
#1069=ORIENTED_EDGE('',*,*,#1300,.T.);
#1070=CARTESIAN_POINT('',(0.57,-2.23,2.25));
#1071=DIRECTION('',(0.0,-0.333984527886008,-0.942578556478324));
#1072=DIRECTION('',(0.0,-0.942578556478324,0.333984527886008));
#1073=ORIENTED_EDGE('',*,*,#1330,.T.);
#1074=ORIENTED_EDGE('',*,*,#1316,.F.);
#1075=ORIENTED_EDGE('',*,*,#1329,.F.);
#1076=ORIENTED_EDGE('',*,*,#1299,.T.);
#1077=CARTESIAN_POINT('',(0.57,-3.5,2.7));
#1078=DIRECTION('',(0.0,-1.0,0.0));
#1079=DIRECTION('',(0.0,0.0,-1.0));
#1080=ORIENTED_EDGE('',*,*,#1220,.T.);
#1081=ORIENTED_EDGE('',*,*,#1317,.F.);
#1082=ORIENTED_EDGE('',*,*,#1330,.F.);
#1083=ORIENTED_EDGE('',*,*,#1298,.T.);
#1084=CARTESIAN_POINT('',(0.57,-3.5,2.85));
#1085=DIRECTION('',(0.0,0.0,1.0));
#1086=DIRECTION('',(1.0,0.0,0.0));
#1087=ORIENTED_EDGE('',*,*,#1322,.F.);
#1088=ORIENTED_EDGE('',*,*,#1331,.F.);
#1089=ORIENTED_EDGE('',*,*,#1302,.T.);
#1090=ORIENTED_EDGE('',*,*,#1213,.T.);
#1091=CARTESIAN_POINT('',(0.57,-2.23,-2.65));
#1092=DIRECTION('',(0.0,0.0,1.0));
#1093=DIRECTION('',(1.0,0.0,0.0));
#1094=ORIENTED_EDGE('',*,*,#1331,.T.);
#1095=ORIENTED_EDGE('',*,*,#1321,.F.);
#1096=ORIENTED_EDGE('',*,*,#1332,.F.);
#1097=ORIENTED_EDGE('',*,*,#1303,.T.);
#1098=CARTESIAN_POINT('',(0.57,-3.5,-3.1));
#1099=DIRECTION('',(0.0,-0.333984527886008,0.942578556478324));
#1100=DIRECTION('',(-1.0,0.0,0.0));
#1101=ORIENTED_EDGE('',*,*,#1332,.T.);
#1102=ORIENTED_EDGE('',*,*,#1320,.F.);
#1103=ORIENTED_EDGE('',*,*,#1333,.F.);
#1104=ORIENTED_EDGE('',*,*,#1304,.T.);
#1105=CARTESIAN_POINT('',(0.57,-3.5,-3.25));
#1106=DIRECTION('',(0.0,-1.0,0.0));
#1107=DIRECTION('',(0.0,0.0,-1.0));
#1108=ORIENTED_EDGE('',*,*,#1305,.T.);
#1109=ORIENTED_EDGE('',*,*,#1333,.T.);
#1110=ORIENTED_EDGE('',*,*,#1319,.F.);
#1111=ORIENTED_EDGE('',*,*,#1211,.F.);
#1112=CARTESIAN_POINT('',(0.57,3.7,-3.25));
#1113=DIRECTION('',(0.0,0.0,-1.0));
#1114=DIRECTION('',(0.0,-1.0,0.0));
#1115=ORIENTED_EDGE('',*,*,#1180,.T.);
#1116=ORIENTED_EDGE('',*,*,#1153,.F.);
#1117=ORIENTED_EDGE('',*,*,#1201,.F.);
#1118=ORIENTED_EDGE('',*,*,#1185,.T.);
#1119=CARTESIAN_POINT('',(-1.7,0.0,-0.5));
#1120=DIRECTION('',(1.0,0.0,0.0));
#1121=DIRECTION('',(0.0,1.0,0.0));
#1122=AXIS2_PLACEMENT_3D('',#1334,#1335,#1336);
#1123=AXIS2_PLACEMENT_3D('',#1337,#1338,#1339);
#1124=AXIS2_PLACEMENT_3D('',#1340,#1341,#1342);
#1125=AXIS2_PLACEMENT_3D('',#1343,#1344,#1345);
#1126=EDGE_CURVE('',#1346,#1347,#1348,.T.);
#1127=EDGE_CURVE('',#1346,#1349,#1350,.T.);
#1128=EDGE_CURVE('',#1349,#1351,#1352,.T.);
#1129=EDGE_CURVE('',#1347,#1351,#1353,.T.);
#1130=EDGE_CURVE('',#1354,#1355,#1356,.T.);
#1131=EDGE_CURVE('',#1357,#1355,#1358,.T.);
#1132=EDGE_CURVE('',#1359,#1357,#1360,.T.);
#1133=EDGE_CURVE('',#1361,#1359,#1362,.T.);
#1134=EDGE_CURVE('',#1363,#1361,#1364,.T.);
#1135=EDGE_CURVE('',#1354,#1363,#1365,.T.);
#1136=EDGE_CURVE('',#1366,#1367,#1368,.T.);
#1137=EDGE_CURVE('',#1369,#1366,#1370,.T.);
#1138=EDGE_CURVE('',#1371,#1369,#1372,.T.);
#1139=EDGE_CURVE('',#1371,#1373,#1374,.T.);
#1140=EDGE_CURVE('',#1373,#1375,#1376,.T.);
#1141=EDGE_CURVE('',#1375,#1367,#1377,.T.);
#1142=EDGE_CURVE('',#1354,#1378,#1379,.T.);
#1143=EDGE_CURVE('',#1363,#1380,#1381,.T.);
#1144=EDGE_CURVE('',#1380,#1378,#1382,.T.);
#1145=EDGE_CURVE('',#1380,#1383,#1384,.T.);
#1146=EDGE_CURVE('',#1383,#1385,#1386,.T.);
#1147=EDGE_CURVE('',#1378,#1385,#1387,.T.);
#1148=EDGE_CURVE('',#1388,#1355,#1389,.T.);
#1149=EDGE_CURVE('',#1385,#1375,#1390,.T.);
#1150=EDGE_CURVE('',#1373,#1391,#1392,.T.);
#1151=EDGE_CURVE('',#1391,#1393,#1394,.T.);
#1152=EDGE_CURVE('',#1393,#1395,#1396,.T.);
#1153=EDGE_CURVE('',#1395,#1397,#1398,.T.);
#1154=EDGE_CURVE('',#1397,#1399,#1400,.T.);
#1155=EDGE_CURVE('',#1399,#1388,#1401,.T.);
#1156=EDGE_CURVE('',#1402,#1403,#1404,.T.);
#1157=EDGE_CURVE('',#1403,#1405,#1406,.T.);
#1158=EDGE_CURVE('',#1405,#1407,#1408,.T.);
#1159=EDGE_CURVE('',#1409,#1407,#1410,.T.);
#1160=EDGE_CURVE('',#1409,#1411,#1412,.T.);
#1161=EDGE_CURVE('',#1411,#1413,#1414,.T.);
#1162=EDGE_CURVE('',#1413,#1347,#1415,.T.);
#1163=EDGE_CURVE('',#1351,#1416,#1417,.T.);
#1164=EDGE_CURVE('',#1416,#1418,#1419,.T.);
#1165=EDGE_CURVE('',#1402,#1418,#1420,.T.);
#1166=EDGE_CURVE('',#1399,#1421,#1422,.T.);
#1167=EDGE_CURVE('',#1423,#1421,#1424,.T.);
#1168=EDGE_CURVE('',#1388,#1423,#1425,.T.);
#1169=EDGE_CURVE('',#1426,#1416,#1427,.T.);
#1170=EDGE_CURVE('',#1428,#1426,#1429,.T.);
#1171=EDGE_CURVE('',#1430,#1428,#1431,.T.);
#1172=EDGE_CURVE('',#1432,#1430,#1433,.T.);
#1173=EDGE_CURVE('',#1418,#1432,#1434,.T.);
#1174=EDGE_CURVE('',#1435,#1423,#1436,.T.);
#1175=EDGE_CURVE('',#1437,#1435,#1438,.T.);
#1176=EDGE_CURVE('',#1357,#1437,#1439,.T.);
#1177=EDGE_CURVE('',#1440,#1432,#1441,.T.);
#1178=EDGE_CURVE('',#1402,#1440,#1442,.T.);
#1179=EDGE_CURVE('',#1421,#1440,#1443,.T.);
#1180=EDGE_CURVE('',#1444,#1397,#1445,.T.);
#1181=EDGE_CURVE('',#1444,#1446,#1447,.T.);
#1182=EDGE_CURVE('',#1446,#1403,#1448,.T.);
#1183=EDGE_CURVE('',#1449,#1405,#1450,.T.);
#1184=EDGE_CURVE('',#1446,#1449,#1451,.T.);
#1185=EDGE_CURVE('',#1452,#1444,#1453,.T.);
#1186=EDGE_CURVE('',#1449,#1452,#1454,.T.);
#1187=EDGE_CURVE('',#1455,#1437,#1456,.T.);
#1188=EDGE_CURVE('',#1359,#1455,#1457,.T.);
#1189=EDGE_CURVE('',#1458,#1428,#1459,.T.);
#1190=EDGE_CURVE('',#1460,#1426,#1461,.T.);
#1191=EDGE_CURVE('',#1458,#1460,#1462,.T.);
#1192=EDGE_CURVE('',#1463,#1464,#1465,.T.);
#1193=EDGE_CURVE('',#1371,#1464,#1466,.T.);
#1194=EDGE_CURVE('',#1369,#1463,#1467,.T.);
#1195=EDGE_CURVE('',#1468,#1469,#1470,.T.);
#1196=EDGE_CURVE('',#1471,#1468,#1472,.T.);
#1197=EDGE_CURVE('',#1473,#1471,#1474,.T.);
#1198=EDGE_CURVE('',#1473,#1469,#1475,.T.);
#1199=EDGE_CURVE('',#1476,#1477,#1478,.T.);
#1200=EDGE_CURVE('',#1407,#1476,#1479,.T.);
#1201=EDGE_CURVE('',#1452,#1395,#1480,.T.);
#1202=EDGE_CURVE('',#1393,#1477,#1481,.T.);
#1203=EDGE_CURVE('',#1391,#1482,#1483,.T.);
#1204=EDGE_CURVE('',#1477,#1482,#1484,.T.);
#1205=EDGE_CURVE('',#1485,#1486,#1487,.T.);
#1206=EDGE_CURVE('',#1486,#1488,#1489,.T.);
#1207=EDGE_CURVE('',#1488,#1476,#1490,.T.);
#1208=EDGE_CURVE('',#1482,#1491,#1492,.T.);
#1209=EDGE_CURVE('',#1491,#1493,#1494,.T.);
#1210=EDGE_CURVE('',#1493,#1485,#1495,.T.);
#1211=EDGE_CURVE('',#1496,#1497,#1498,.T.);
#1212=EDGE_CURVE('',#1497,#1499,#1500,.T.);
#1213=EDGE_CURVE('',#1501,#1499,#1502,.T.);
#1214=EDGE_CURVE('',#1496,#1501,#1503,.T.);
#1215=EDGE_CURVE('',#1504,#1435,#1505,.T.);
#1216=EDGE_CURVE('',#1430,#1506,#1507,.T.);
#1217=EDGE_CURVE('',#1504,#1506,#1508,.T.);
#1218=EDGE_CURVE('',#1509,#1510,#1511,.T.);
#1219=EDGE_CURVE('',#1510,#1512,#1513,.T.);
#1220=EDGE_CURVE('',#1514,#1512,#1515,.T.);
#1221=EDGE_CURVE('',#1509,#1514,#1516,.T.);
#1222=EDGE_CURVE('',#1366,#1517,#1518,.T.);
#1223=EDGE_CURVE('',#1517,#1519,#1520,.T.);
#1224=EDGE_CURVE('',#1519,#1521,#1522,.T.);
#1225=EDGE_CURVE('',#1523,#1521,#1524,.T.);
#1226=EDGE_CURVE('',#1523,#1525,#1526,.T.);
#1227=EDGE_CURVE('',#1469,#1525,#1527,.T.);
#1228=EDGE_CURVE('',#1473,#1485,#1528,.T.);
#1229=EDGE_CURVE('',#1463,#1493,#1529,.T.);
#1230=EDGE_CURVE('',#1491,#1464,#1530,.T.);
#1231=EDGE_CURVE('',#1468,#1411,#1531,.T.);
#1232=EDGE_CURVE('',#1409,#1488,#1532,.T.);
#1233=EDGE_CURVE('',#1471,#1486,#1533,.T.);
#1234=EDGE_CURVE('',#1525,#1534,#1535,.T.);
#1235=EDGE_CURVE('',#1534,#1413,#1536,.T.);
#1236=EDGE_CURVE('',#1349,#1537,#1538,.T.);
#1237=EDGE_CURVE('',#1537,#1460,#1539,.T.);
#1238=EDGE_CURVE('',#1534,#1346,#1540,.T.);
#1239=EDGE_CURVE('',#1383,#1367,#1541,.T.);
#1240=EDGE_CURVE('',#1361,#1537,#1542,.T.);
#1241=EDGE_CURVE('',#1517,#1523,#1543,.T.);
#1242=EDGE_CURVE('',#1544,#1545,#1546,.T.);
#1243=EDGE_CURVE('',#1547,#1544,#1548,.T.);
#1244=EDGE_CURVE('',#1549,#1547,#1550,.T.);
#1245=EDGE_CURVE('',#1545,#1549,#1551,.T.);
#1246=EDGE_CURVE('',#1552,#1553,#1554,.T.);
#1247=EDGE_CURVE('',#1555,#1552,#1556,.T.);
#1248=EDGE_CURVE('',#1557,#1555,#1558,.T.);
#1249=EDGE_CURVE('',#1559,#1557,#1560,.T.);
#1250=EDGE_CURVE('',#1561,#1559,#1562,.T.);
#1251=EDGE_CURVE('',#1553,#1561,#1563,.T.);
#1252=EDGE_CURVE('',#1564,#1523,#1565,.T.);
#1253=EDGE_CURVE('',#1566,#1564,#1567,.T.);
#1254=EDGE_CURVE('',#1566,#1517,#1568,.T.);
#1255=EDGE_CURVE('',#1569,#1566,#1570,.T.);
#1256=EDGE_CURVE('',#1519,#1569,#1571,.T.);
#1257=EDGE_CURVE('',#1569,#1572,#1573,.T.);
#1258=EDGE_CURVE('',#1521,#1572,#1574,.T.);
#1259=EDGE_CURVE('',#1572,#1564,#1575,.T.);
#1260=EDGE_CURVE('',#1455,#1504,#1576,.T.);
#1261=EDGE_CURVE('',#1458,#1506,#1577,.T.);
#1262=EDGE_CURVE('',#1549,#1578,#1579,.T.);
#1263=EDGE_CURVE('',#1580,#1578,#1581,.T.);
#1264=EDGE_CURVE('',#1545,#1580,#1582,.T.);
#1265=EDGE_CURVE('',#1583,#1580,#1584,.T.);
#1266=EDGE_CURVE('',#1544,#1583,#1585,.T.);
#1267=EDGE_CURVE('',#1586,#1583,#1587,.T.);
#1268=EDGE_CURVE('',#1547,#1586,#1588,.T.);
#1269=EDGE_CURVE('',#1578,#1586,#1589,.T.);
#1270=EDGE_CURVE('',#1590,#1591,#1592,.T.);
#1271=EDGE_CURVE('',#1593,#1591,#1594,.T.);
#1272=EDGE_CURVE('',#1595,#1593,#1596,.T.);
#1273=EDGE_CURVE('',#1595,#1590,#1597,.T.);
#1274=EDGE_CURVE('',#1598,#1599,#1600,.T.);
#1275=EDGE_CURVE('',#1599,#1601,#1602,.T.);
#1276=EDGE_CURVE('',#1601,#1603,#1604,.T.);
#1277=EDGE_CURVE('',#1603,#1605,#1606,.T.);
#1278=EDGE_CURVE('',#1605,#1607,#1608,.T.);
#1279=EDGE_CURVE('',#1607,#1598,#1609,.T.);
#1280=EDGE_CURVE('',#1610,#1611,#1612,.T.);
#1281=EDGE_CURVE('',#1613,#1611,#1614,.T.);
#1282=EDGE_CURVE('',#1615,#1613,#1616,.T.);
#1283=EDGE_CURVE('',#1615,#1610,#1617,.T.);
#1284=EDGE_CURVE('',#1561,#1598,#1618,.T.);
#1285=EDGE_CURVE('',#1553,#1607,#1619,.T.);
#1286=EDGE_CURVE('',#1552,#1605,#1620,.T.);
#1287=EDGE_CURVE('',#1555,#1603,#1621,.T.);
#1288=EDGE_CURVE('',#1557,#1601,#1622,.T.);
#1289=EDGE_CURVE('',#1559,#1599,#1623,.T.);
#1290=EDGE_CURVE('',#1624,#1615,#1625,.T.);
#1291=EDGE_CURVE('',#1626,#1624,#1627,.T.);
#1292=EDGE_CURVE('',#1628,#1626,#1629,.T.);
#1293=EDGE_CURVE('',#1610,#1628,#1630,.T.);
#1294=EDGE_CURVE('',#1631,#1595,#1632,.T.);
#1295=EDGE_CURVE('',#1633,#1631,#1634,.T.);
#1296=EDGE_CURVE('',#1635,#1633,#1636,.T.);
#1297=EDGE_CURVE('',#1590,#1635,#1637,.T.);
#1298=EDGE_CURVE('',#1638,#1514,#1639,.T.);
#1299=EDGE_CURVE('',#1640,#1638,#1641,.T.);
#1300=EDGE_CURVE('',#1642,#1640,#1643,.T.);
#1301=EDGE_CURVE('',#1509,#1642,#1644,.T.);
#1302=EDGE_CURVE('',#1645,#1501,#1646,.T.);
#1303=EDGE_CURVE('',#1647,#1645,#1648,.T.);
#1304=EDGE_CURVE('',#1649,#1647,#1650,.T.);
#1305=EDGE_CURVE('',#1496,#1649,#1651,.T.);
#1306=EDGE_CURVE('',#1628,#1652,#1653,.T.);
#1307=EDGE_CURVE('',#1611,#1652,#1654,.T.);
#1308=EDGE_CURVE('',#1652,#1655,#1656,.T.);
#1309=EDGE_CURVE('',#1655,#1657,#1658,.T.);
#1310=EDGE_CURVE('',#1657,#1613,#1659,.T.);
#1311=EDGE_CURVE('',#1591,#1660,#1661,.T.);
#1312=EDGE_CURVE('',#1660,#1662,#1663,.T.);
#1313=EDGE_CURVE('',#1662,#1664,#1665,.T.);
#1314=EDGE_CURVE('',#1664,#1593,#1666,.T.);
#1315=EDGE_CURVE('',#1667,#1668,#1669,.T.);
#1316=EDGE_CURVE('',#1668,#1670,#1671,.T.);
#1317=EDGE_CURVE('',#1670,#1512,#1672,.T.);
#1318=EDGE_CURVE('',#1510,#1667,#1673,.T.);
#1319=EDGE_CURVE('',#1497,#1674,#1675,.T.);
#1320=EDGE_CURVE('',#1674,#1676,#1677,.T.);
#1321=EDGE_CURVE('',#1676,#1678,#1679,.T.);
#1322=EDGE_CURVE('',#1678,#1499,#1680,.T.);
#1323=EDGE_CURVE('',#1624,#1657,#1681,.T.);
#1324=EDGE_CURVE('',#1626,#1655,#1682,.T.);
#1325=EDGE_CURVE('',#1631,#1664,#1683,.T.);
#1326=EDGE_CURVE('',#1633,#1662,#1684,.T.);
#1327=EDGE_CURVE('',#1635,#1660,#1685,.T.);
#1328=EDGE_CURVE('',#1642,#1667,#1686,.T.);
#1329=EDGE_CURVE('',#1640,#1668,#1687,.T.);
#1330=EDGE_CURVE('',#1638,#1670,#1688,.T.);
#1331=EDGE_CURVE('',#1645,#1678,#1689,.T.);
#1332=EDGE_CURVE('',#1647,#1676,#1690,.T.);
#1333=EDGE_CURVE('',#1649,#1674,#1691,.T.);
#1334=CARTESIAN_POINT('',(0.0,0.0,-2.95));
#1335=DIRECTION('',(0.0,-1.0,0.0));
#1336=DIRECTION('',(1.0,0.0,0.0));
#1337=CARTESIAN_POINT('',(0.0,0.0,-2.95));
#1338=DIRECTION('',(0.0,-1.0,0.0));
#1339=DIRECTION('',(-1.0,0.0,0.0));
#1340=CARTESIAN_POINT('',(0.0,0.0,2.55));
#1341=DIRECTION('',(0.0,-1.0,0.0));
#1342=DIRECTION('',(1.0,0.0,0.0));
#1343=CARTESIAN_POINT('',(0.0,0.0,2.55));
#1344=DIRECTION('',(0.0,-1.0,0.0));
#1345=DIRECTION('',(-1.0,0.0,0.0));
#1346=VERTEX_POINT('',#1692);
#1347=VERTEX_POINT('',#1693);
#1348=LINE('',#1694,#1695);
#1349=VERTEX_POINT('',#1696);
#1350=CIRCLE('',#1697,0.4);
#1351=VERTEX_POINT('',#1698);
#1352=LINE('',#1699,#1700);
#1353=CIRCLE('',#1701,0.4);
#1354=VERTEX_POINT('',#1702);
#1355=VERTEX_POINT('',#1703);
#1356=LINE('',#1704,#1705);
#1357=VERTEX_POINT('',#1706);
#1358=LINE('',#1707,#1708);
#1359=VERTEX_POINT('',#1709);
#1360=LINE('',#1710,#1711);
#1361=VERTEX_POINT('',#1712);
#1362=LINE('',#1713,#1714);
#1363=VERTEX_POINT('',#1715);
#1364=LINE('',#1716,#1717);
#1365=LINE('',#1718,#1719);
#1366=VERTEX_POINT('',#1720);
#1367=VERTEX_POINT('',#1721);
#1368=LINE('',#1722,#1723);
#1369=VERTEX_POINT('',#1724);
#1370=LINE('',#1725,#1726);
#1371=VERTEX_POINT('',#1727);
#1372=LINE('',#1728,#1729);
#1373=VERTEX_POINT('',#1730);
#1374=LINE('',#1731,#1732);
#1375=VERTEX_POINT('',#1733);
#1376=LINE('',#1734,#1735);
#1377=LINE('',#1736,#1737);
#1378=VERTEX_POINT('',#1738);
#1379=LINE('',#1739,#1740);
#1380=VERTEX_POINT('',#1741);
#1381=LINE('',#1742,#1743);
#1382=LINE('',#1744,#1745);
#1383=VERTEX_POINT('',#1746);
#1384=LINE('',#1747,#1748);
#1385=VERTEX_POINT('',#1749);
#1386=LINE('',#1750,#1751);
#1387=LINE('',#1752,#1753);
#1388=VERTEX_POINT('',#1754);
#1389=LINE('',#1755,#1756);
#1390=LINE('',#1757,#1758);
#1391=VERTEX_POINT('',#1759);
#1392=LINE('',#1760,#1761);
#1393=VERTEX_POINT('',#1762);
#1394=LINE('',#1763,#1764);
#1395=VERTEX_POINT('',#1765);
#1396=LINE('',#1766,#1767);
#1397=VERTEX_POINT('',#1768);
#1398=LINE('',#1769,#1770);
#1399=VERTEX_POINT('',#1771);
#1400=LINE('',#1772,#1773);
#1401=LINE('',#1774,#1775);
#1402=VERTEX_POINT('',#1776);
#1403=VERTEX_POINT('',#1777);
#1404=LINE('',#1778,#1779);
#1405=VERTEX_POINT('',#1780);
#1406=LINE('',#1781,#1782);
#1407=VERTEX_POINT('',#1783);
#1408=LINE('',#1784,#1785);
#1409=VERTEX_POINT('',#1786);
#1410=LINE('',#1787,#1788);
#1411=VERTEX_POINT('',#1789);
#1412=LINE('',#1790,#1791);
#1413=VERTEX_POINT('',#1792);
#1414=LINE('',#1793,#1794);
#1415=CIRCLE('',#1795,0.4);
#1416=VERTEX_POINT('',#1796);
#1417=LINE('',#1797,#1798);
#1418=VERTEX_POINT('',#1799);
#1419=LINE('',#1800,#1801);
#1420=LINE('',#1802,#1803);
#1421=VERTEX_POINT('',#1804);
#1422=LINE('',#1805,#1806);
#1423=VERTEX_POINT('',#1807);
#1424=LINE('',#1808,#1809);
#1425=LINE('',#1810,#1811);
#1426=VERTEX_POINT('',#1812);
#1427=LINE('',#1813,#1814);
#1428=VERTEX_POINT('',#1815);
#1429=LINE('',#1816,#1817);
#1430=VERTEX_POINT('',#1818);
#1431=LINE('',#1819,#1820);
#1432=VERTEX_POINT('',#1821);
#1433=LINE('',#1822,#1823);
#1434=LINE('',#1824,#1825);
#1435=VERTEX_POINT('',#1826);
#1436=LINE('',#1827,#1828);
#1437=VERTEX_POINT('',#1829);
#1438=LINE('',#1830,#1831);
#1439=LINE('',#1832,#1833);
#1440=VERTEX_POINT('',#1834);
#1441=LINE('',#1835,#1836);
#1442=LINE('',#1837,#1838);
#1443=LINE('',#1839,#1840);
#1444=VERTEX_POINT('',#1841);
#1445=LINE('',#1842,#1843);
#1446=VERTEX_POINT('',#1844);
#1447=LINE('',#1845,#1846);
#1448=LINE('',#1847,#1848);
#1449=VERTEX_POINT('',#1849);
#1450=LINE('',#1850,#1851);
#1451=LINE('',#1852,#1853);
#1452=VERTEX_POINT('',#1854);
#1453=LINE('',#1855,#1856);
#1454=LINE('',#1857,#1858);
#1455=VERTEX_POINT('',#1859);
#1456=LINE('',#1860,#1861);
#1457=LINE('',#1862,#1863);
#1458=VERTEX_POINT('',#1864);
#1459=LINE('',#1865,#1866);
#1460=VERTEX_POINT('',#1867);
#1461=LINE('',#1868,#1869);
#1462=LINE('',#1870,#1871);
#1463=VERTEX_POINT('',#1872);
#1464=VERTEX_POINT('',#1873);
#1465=LINE('',#1874,#1875);
#1466=LINE('',#1876,#1877);
#1467=LINE('',#1878,#1879);
#1468=VERTEX_POINT('',#1880);
#1469=VERTEX_POINT('',#1881);
#1470=LINE('',#1882,#1883);
#1471=VERTEX_POINT('',#1884);
#1472=LINE('',#1885,#1886);
#1473=VERTEX_POINT('',#1887);
#1474=LINE('',#1888,#1889);
#1475=LINE('',#1890,#1891);
#1476=VERTEX_POINT('',#1892);
#1477=VERTEX_POINT('',#1893);
#1478=LINE('',#1894,#1895);
#1479=LINE('',#1896,#1897);
#1480=LINE('',#1898,#1899);
#1481=LINE('',#1900,#1901);
#1482=VERTEX_POINT('',#1902);
#1483=LINE('',#1903,#1904);
#1484=LINE('',#1905,#1906);
#1485=VERTEX_POINT('',#1907);
#1486=VERTEX_POINT('',#1908);
#1487=LINE('',#1909,#1910);
#1488=VERTEX_POINT('',#1911);
#1489=LINE('',#1912,#1913);
#1490=LINE('',#1914,#1915);
#1491=VERTEX_POINT('',#1916);
#1492=LINE('',#1917,#1918);
#1493=VERTEX_POINT('',#1919);
#1494=LINE('',#1920,#1921);
#1495=LINE('',#1922,#1923);
#1496=VERTEX_POINT('',#1924);
#1497=VERTEX_POINT('',#1925);
#1498=LINE('',#1926,#1927);
#1499=VERTEX_POINT('',#1928);
#1500=LINE('',#1929,#1930);
#1501=VERTEX_POINT('',#1931);
#1502=LINE('',#1932,#1933);
#1503=LINE('',#1934,#1935);
#1504=VERTEX_POINT('',#1936);
#1505=LINE('',#1937,#1938);
#1506=VERTEX_POINT('',#1939);
#1507=LINE('',#1940,#1941);
#1508=LINE('',#1942,#1943);
#1509=VERTEX_POINT('',#1944);
#1510=VERTEX_POINT('',#1945);
#1511=LINE('',#1946,#1947);
#1512=VERTEX_POINT('',#1948);
#1513=LINE('',#1949,#1950);
#1514=VERTEX_POINT('',#1951);
#1515=LINE('',#1952,#1953);
#1516=LINE('',#1954,#1955);
#1517=VERTEX_POINT('',#1956);
#1518=LINE('',#1957,#1958);
#1519=VERTEX_POINT('',#1959);
#1520=LINE('',#1960,#1961);
#1521=VERTEX_POINT('',#1962);
#1522=LINE('',#1963,#1964);
#1523=VERTEX_POINT('',#1965);
#1524=LINE('',#1966,#1967);
#1525=VERTEX_POINT('',#1968);
#1526=LINE('',#1969,#1970);
#1527=LINE('',#1971,#1972);
#1528=LINE('',#1973,#1974);
#1529=LINE('',#1975,#1976);
#1530=LINE('',#1977,#1978);
#1531=LINE('',#1979,#1980);
#1532=LINE('',#1981,#1982);
#1533=LINE('',#1983,#1984);
#1534=VERTEX_POINT('',#1985);
#1535=LINE('',#1986,#1987);
#1536=LINE('',#1988,#1989);
#1537=VERTEX_POINT('',#1990);
#1538=LINE('',#1991,#1992);
#1539=LINE('',#1993,#1994);
#1540=CIRCLE('',#1995,0.4);
#1541=LINE('',#1996,#1997);
#1542=LINE('',#1998,#1999);
#1543=LINE('',#2000,#2001);
#1544=VERTEX_POINT('',#2002);
#1545=VERTEX_POINT('',#2003);
#1546=LINE('',#2004,#2005);
#1547=VERTEX_POINT('',#2006);
#1548=LINE('',#2007,#2008);
#1549=VERTEX_POINT('',#2009);
#1550=LINE('',#2010,#2011);
#1551=LINE('',#2012,#2013);
#1552=VERTEX_POINT('',#2014);
#1553=VERTEX_POINT('',#2015);
#1554=LINE('',#2016,#2017);
#1555=VERTEX_POINT('',#2018);
#1556=LINE('',#2019,#2020);
#1557=VERTEX_POINT('',#2021);
#1558=LINE('',#2022,#2023);
#1559=VERTEX_POINT('',#2024);
#1560=LINE('',#2025,#2026);
#1561=VERTEX_POINT('',#2027);
#1562=LINE('',#2028,#2029);
#1563=LINE('',#2030,#2031);
#1564=VERTEX_POINT('',#2032);
#1565=LINE('',#2033,#2034);
#1566=VERTEX_POINT('',#2035);
#1567=LINE('',#2036,#2037);
#1568=LINE('',#2038,#2039);
#1569=VERTEX_POINT('',#2040);
#1570=LINE('',#2041,#2042);
#1571=LINE('',#2043,#2044);
#1572=VERTEX_POINT('',#2045);
#1573=LINE('',#2046,#2047);
#1574=LINE('',#2048,#2049);
#1575=LINE('',#2050,#2051);
#1576=LINE('',#2052,#2053);
#1577=LINE('',#2054,#2055);
#1578=VERTEX_POINT('',#2056);
#1579=LINE('',#2057,#2058);
#1580=VERTEX_POINT('',#2059);
#1581=LINE('',#2060,#2061);
#1582=LINE('',#2062,#2063);
#1583=VERTEX_POINT('',#2064);
#1584=LINE('',#2065,#2066);
#1585=LINE('',#2067,#2068);
#1586=VERTEX_POINT('',#2069);
#1587=LINE('',#2070,#2071);
#1588=LINE('',#2072,#2073);
#1589=LINE('',#2074,#2075);
#1590=VERTEX_POINT('',#2076);
#1591=VERTEX_POINT('',#2077);
#1592=LINE('',#2078,#2079);
#1593=VERTEX_POINT('',#2080);
#1594=LINE('',#2081,#2082);
#1595=VERTEX_POINT('',#2083);
#1596=LINE('',#2084,#2085);
#1597=LINE('',#2086,#2087);
#1598=VERTEX_POINT('',#2088);
#1599=VERTEX_POINT('',#2089);
#1600=LINE('',#2090,#2091);
#1601=VERTEX_POINT('',#2092);
#1602=LINE('',#2093,#2094);
#1603=VERTEX_POINT('',#2095);
#1604=LINE('',#2096,#2097);
#1605=VERTEX_POINT('',#2098);
#1606=LINE('',#2099,#2100);
#1607=VERTEX_POINT('',#2101);
#1608=LINE('',#2102,#2103);
#1609=LINE('',#2104,#2105);
#1610=VERTEX_POINT('',#2106);
#1611=VERTEX_POINT('',#2107);
#1612=LINE('',#2108,#2109);
#1613=VERTEX_POINT('',#2110);
#1614=LINE('',#2111,#2112);
#1615=VERTEX_POINT('',#2113);
#1616=LINE('',#2114,#2115);
#1617=LINE('',#2116,#2117);
#1618=LINE('',#2118,#2119);
#1619=LINE('',#2120,#2121);
#1620=LINE('',#2122,#2123);
#1621=LINE('',#2124,#2125);
#1622=LINE('',#2126,#2127);
#1623=LINE('',#2128,#2129);
#1624=VERTEX_POINT('',#2130);
#1625=LINE('',#2131,#2132);
#1626=VERTEX_POINT('',#2133);
#1627=LINE('',#2134,#2135);
#1628=VERTEX_POINT('',#2136);
#1629=LINE('',#2137,#2138);
#1630=LINE('',#2139,#2140);
#1631=VERTEX_POINT('',#2141);
#1632=LINE('',#2142,#2143);
#1633=VERTEX_POINT('',#2144);
#1634=LINE('',#2145,#2146);
#1635=VERTEX_POINT('',#2147);
#1636=LINE('',#2148,#2149);
#1637=LINE('',#2150,#2151);
#1638=VERTEX_POINT('',#2152);
#1639=LINE('',#2153,#2154);
#1640=VERTEX_POINT('',#2155);
#1641=LINE('',#2156,#2157);
#1642=VERTEX_POINT('',#2158);
#1643=LINE('',#2159,#2160);
#1644=LINE('',#2161,#2162);
#1645=VERTEX_POINT('',#2163);
#1646=LINE('',#2164,#2165);
#1647=VERTEX_POINT('',#2166);
#1648=LINE('',#2167,#2168);
#1649=VERTEX_POINT('',#2169);
#1650=LINE('',#2170,#2171);
#1651=LINE('',#2172,#2173);
#1652=VERTEX_POINT('',#2174);
#1653=LINE('',#2175,#2176);
#1654=LINE('',#2177,#2178);
#1655=VERTEX_POINT('',#2179);
#1656=LINE('',#2180,#2181);
#1657=VERTEX_POINT('',#2182);
#1658=LINE('',#2183,#2184);
#1659=LINE('',#2185,#2186);
#1660=VERTEX_POINT('',#2187);
#1661=LINE('',#2188,#2189);
#1662=VERTEX_POINT('',#2190);
#1663=LINE('',#2191,#2192);
#1664=VERTEX_POINT('',#2193);
#1665=LINE('',#2194,#2195);
#1666=LINE('',#2196,#2197);
#1667=VERTEX_POINT('',#2198);
#1668=VERTEX_POINT('',#2199);
#1669=LINE('',#2200,#2201);
#1670=VERTEX_POINT('',#2202);
#1671=LINE('',#2203,#2204);
#1672=LINE('',#2205,#2206);
#1673=LINE('',#2207,#2208);
#1674=VERTEX_POINT('',#2209);
#1675=LINE('',#2210,#2211);
#1676=VERTEX_POINT('',#2212);
#1677=LINE('',#2213,#2214);
#1678=VERTEX_POINT('',#2215);
#1679=LINE('',#2216,#2217);
#1680=LINE('',#2218,#2219);
#1681=LINE('',#2220,#2221);
#1682=LINE('',#2222,#2223);
#1683=LINE('',#2224,#2225);
#1684=LINE('',#2226,#2227);
#1685=LINE('',#2228,#2229);
#1686=LINE('',#2230,#2231);
#1687=LINE('',#2232,#2233);
#1688=LINE('',#2234,#2235);
#1689=LINE('',#2236,#2237);
#1690=LINE('',#2238,#2239);
#1691=LINE('',#2240,#2241);
#1692=CARTESIAN_POINT('',(3.1,12.8,2.6));
#1693=CARTESIAN_POINT('',(3.1,0.2,2.6));
#1694=CARTESIAN_POINT('',(3.1,12.8,2.6));
#1695=VECTOR('',#2242,1.0);
#1696=CARTESIAN_POINT('',(2.7,12.8,3.0));
#1697=AXIS2_PLACEMENT_3D('',#2243,#2244,#2245);
#1698=CARTESIAN_POINT('',(2.7,0.2,3.0));
#1699=CARTESIAN_POINT('',(2.7,12.8,3.0));
#1700=VECTOR('',#2246,12.6);
#1701=AXIS2_PLACEMENT_3D('',#2247,#2248,#2249);
#1702=CARTESIAN_POINT('',(-2.7,0.2,-1.59));
#1703=CARTESIAN_POINT('',(-2.7,0.2,3.8));
#1704=CARTESIAN_POINT('',(-2.7,0.2,-1.59));
#1705=VECTOR('',#2250,5.39);
#1706=CARTESIAN_POINT('',(-2.7,0.0,3.8));
#1707=CARTESIAN_POINT('',(-2.7,0.0,3.8));
#1708=VECTOR('',#2251,0.2);
#1709=CARTESIAN_POINT('',(-2.7,0.0,4.8));
#1710=CARTESIAN_POINT('',(-2.7,0.0,4.8));
#1711=VECTOR('',#2252,1.0);
#1712=CARTESIAN_POINT('',(-2.7,12.8,4.8));
#1713=CARTESIAN_POINT('',(-2.7,12.8,4.8));
#1714=VECTOR('',#2253,12.8);
#1715=CARTESIAN_POINT('',(-2.7,12.8,-1.59));
#1716=CARTESIAN_POINT('',(-2.7,12.8,-1.59));
#1717=VECTOR('',#2254,6.39);
#1718=CARTESIAN_POINT('',(-2.7,0.2,-1.59));
#1719=VECTOR('',#2255,12.6);
#1720=CARTESIAN_POINT('',(-2.7,12.8,-4.8));
#1721=CARTESIAN_POINT('',(-2.7,12.8,-3.39));
#1722=CARTESIAN_POINT('',(-2.7,12.8,-4.8));
#1723=VECTOR('',#2256,1.41);
#1724=CARTESIAN_POINT('',(-2.7,0.0,-4.8));
#1725=CARTESIAN_POINT('',(-2.7,0.0,-4.8));
#1726=VECTOR('',#2257,12.8);
#1727=CARTESIAN_POINT('',(-2.7,0.0,-3.8));
#1728=CARTESIAN_POINT('',(-2.7,0.0,-3.8));
#1729=VECTOR('',#2258,1.0);
#1730=CARTESIAN_POINT('',(-2.7,0.2,-3.8));
#1731=CARTESIAN_POINT('',(-2.7,0.0,-3.8));
#1732=VECTOR('',#2259,0.2);
#1733=CARTESIAN_POINT('',(-2.7,0.2,-3.39));
#1734=CARTESIAN_POINT('',(-2.7,0.2,-3.8));
#1735=VECTOR('',#2260,0.41);
#1736=CARTESIAN_POINT('',(-2.7,0.2,-3.39));
#1737=VECTOR('',#2261,12.6);
#1738=CARTESIAN_POINT('',(-3.1,0.2,-1.99));
#1739=CARTESIAN_POINT('',(-2.7,0.2,-1.59));
#1740=VECTOR('',#2262,0.5656854249492);
#1741=CARTESIAN_POINT('',(-3.1,12.8,-1.99));
#1742=CARTESIAN_POINT('',(-2.7,12.8,-1.59));
#1743=VECTOR('',#2263,0.5656854249492);
#1744=CARTESIAN_POINT('',(-3.1,12.8,-1.99));
#1745=VECTOR('',#2264,12.6);
#1746=CARTESIAN_POINT('',(-3.1,12.8,-2.99));
#1747=CARTESIAN_POINT('',(-3.1,12.8,-1.99));
#1748=VECTOR('',#2265,1.0);
#1749=CARTESIAN_POINT('',(-3.1,0.2,-2.99));
#1750=CARTESIAN_POINT('',(-3.1,12.8,-2.99));
#1751=VECTOR('',#2266,12.6);
#1752=CARTESIAN_POINT('',(-3.1,0.2,-1.99));
#1753=VECTOR('',#2267,1.0);
#1754=CARTESIAN_POINT('',(-1.3,0.2,3.8));
#1755=CARTESIAN_POINT('',(-1.3,0.2,3.8));
#1756=VECTOR('',#2268,1.4);
#1757=CARTESIAN_POINT('',(-3.1,0.2,-2.99));
#1758=VECTOR('',#2269,0.5656854249492);
#1759=CARTESIAN_POINT('',(-1.3,0.2,-3.8));
#1760=CARTESIAN_POINT('',(-2.7,0.2,-3.8));
#1761=VECTOR('',#2270,1.4);
#1762=CARTESIAN_POINT('',(-1.3,0.2,-0.5));
#1763=CARTESIAN_POINT('',(-1.3,0.2,-3.8));
#1764=VECTOR('',#2271,3.3);
#1765=CARTESIAN_POINT('',(-1.7,0.2,-0.5));
#1766=CARTESIAN_POINT('',(-1.3,0.2,-0.5));
#1767=VECTOR('',#2272,0.4);
#1768=CARTESIAN_POINT('',(-1.7,0.2,0.5));
#1769=CARTESIAN_POINT('',(-1.7,0.2,-0.5));
#1770=VECTOR('',#2273,1.0);
#1771=CARTESIAN_POINT('',(-1.3,0.2,0.5));
#1772=CARTESIAN_POINT('',(-1.7,0.2,0.5));
#1773=VECTOR('',#2274,0.4);
#1774=CARTESIAN_POINT('',(-1.3,0.2,0.5));
#1775=VECTOR('',#2275,3.3);
#1776=CARTESIAN_POINT('',(1.3,0.2,0.5));
#1777=CARTESIAN_POINT('',(1.7,0.2,0.5));
#1778=CARTESIAN_POINT('',(1.3,0.2,0.5));
#1779=VECTOR('',#2276,0.4);
#1780=CARTESIAN_POINT('',(1.7,0.2,-0.5));
#1781=CARTESIAN_POINT('',(1.7,0.2,0.5));
#1782=VECTOR('',#2277,1.0);
#1783=CARTESIAN_POINT('',(1.3,0.2,-0.5));
#1784=CARTESIAN_POINT('',(1.7,0.2,-0.5));
#1785=VECTOR('',#2278,0.4);
#1786=CARTESIAN_POINT('',(1.3,0.2,-3.8));
#1787=CARTESIAN_POINT('',(1.3,0.2,-3.8));
#1788=VECTOR('',#2279,3.3);
#1789=CARTESIAN_POINT('',(2.7,0.2,-3.8));
#1790=CARTESIAN_POINT('',(1.3,0.2,-3.8));
#1791=VECTOR('',#2280,1.4);
#1792=CARTESIAN_POINT('',(2.7,0.2,2.2));
#1793=CARTESIAN_POINT('',(2.7,0.2,-3.8));
#1794=VECTOR('',#2281,6.0);
#1795=AXIS2_PLACEMENT_3D('',#2282,#2283,#2284);
#1796=CARTESIAN_POINT('',(2.7,0.2,3.8));
#1797=CARTESIAN_POINT('',(2.7,0.2,3.0));
#1798=VECTOR('',#2285,0.8);
#1799=CARTESIAN_POINT('',(1.3,0.2,3.8));
#1800=CARTESIAN_POINT('',(2.7,0.2,3.8));
#1801=VECTOR('',#2286,1.4);
#1802=CARTESIAN_POINT('',(1.3,0.2,0.5));
#1803=VECTOR('',#2287,3.3);
#1804=CARTESIAN_POINT('',(-1.3,0.8,0.5));
#1805=CARTESIAN_POINT('',(-1.3,0.2,0.5));
#1806=VECTOR('',#2288,0.6);
#1807=CARTESIAN_POINT('',(-1.3,0.8,3.8));
#1808=CARTESIAN_POINT('',(-1.3,0.8,3.8));
#1809=VECTOR('',#2289,3.3);
#1810=CARTESIAN_POINT('',(-1.3,0.2,3.8));
#1811=VECTOR('',#2290,0.6);
#1812=CARTESIAN_POINT('',(2.7,0.0,3.8));
#1813=CARTESIAN_POINT('',(2.7,0.0,3.8));
#1814=VECTOR('',#2291,0.2);
#1815=CARTESIAN_POINT('',(1.0,0.0,3.8));
#1816=CARTESIAN_POINT('',(1.0,0.0,3.8));
#1817=VECTOR('',#2292,1.7);
#1818=CARTESIAN_POINT('',(1.0,0.8,3.8));
#1819=CARTESIAN_POINT('',(1.0,0.8,3.8));
#1820=VECTOR('',#2293,0.8);
#1821=CARTESIAN_POINT('',(1.3,0.8,3.8));
#1822=CARTESIAN_POINT('',(1.3,0.8,3.8));
#1823=VECTOR('',#2294,0.3);
#1824=CARTESIAN_POINT('',(1.3,0.2,3.8));
#1825=VECTOR('',#2295,0.6);
#1826=CARTESIAN_POINT('',(-1.0,0.8,3.8));
#1827=CARTESIAN_POINT('',(-1.0,0.8,3.8));
#1828=VECTOR('',#2296,0.3);
#1829=CARTESIAN_POINT('',(-1.0,0.0,3.8));
#1830=CARTESIAN_POINT('',(-1.0,0.0,3.8));
#1831=VECTOR('',#2297,0.8);
#1832=CARTESIAN_POINT('',(-2.7,0.0,3.8));
#1833=VECTOR('',#2298,1.7);
#1834=CARTESIAN_POINT('',(1.3,0.8,0.5));
#1835=CARTESIAN_POINT('',(1.3,0.8,0.5));
#1836=VECTOR('',#2299,3.3);
#1837=CARTESIAN_POINT('',(1.3,0.2,0.5));
#1838=VECTOR('',#2300,0.6);
#1839=CARTESIAN_POINT('',(-1.3,0.8,0.5));
#1840=VECTOR('',#2301,2.6);
#1841=CARTESIAN_POINT('',(-1.7,0.0,0.5));
#1842=CARTESIAN_POINT('',(-1.7,0.0,0.5));
#1843=VECTOR('',#2302,0.2);
#1844=CARTESIAN_POINT('',(1.7,0.0,0.5));
#1845=CARTESIAN_POINT('',(-1.7,0.0,0.5));
#1846=VECTOR('',#2303,3.4);
#1847=CARTESIAN_POINT('',(1.7,0.0,0.5));
#1848=VECTOR('',#2304,0.2);
#1849=CARTESIAN_POINT('',(1.7,0.0,-0.5));
#1850=CARTESIAN_POINT('',(1.7,0.0,-0.5));
#1851=VECTOR('',#2305,0.2);
#1852=CARTESIAN_POINT('',(1.7,0.0,0.5));
#1853=VECTOR('',#2306,1.0);
#1854=CARTESIAN_POINT('',(-1.7,0.0,-0.5));
#1855=CARTESIAN_POINT('',(-1.7,0.0,-0.5));
#1856=VECTOR('',#2307,1.0);
#1857=CARTESIAN_POINT('',(1.7,0.0,-0.5));
#1858=VECTOR('',#2308,3.4);
#1859=CARTESIAN_POINT('',(-1.0,0.0,4.8));
#1860=CARTESIAN_POINT('',(-1.0,0.0,4.8));
#1861=VECTOR('',#2309,1.0);
#1862=CARTESIAN_POINT('',(-2.7,0.0,4.8));
#1863=VECTOR('',#2310,1.7);
#1864=CARTESIAN_POINT('',(1.0,0.0,4.8));
#1865=CARTESIAN_POINT('',(1.0,0.0,4.8));
#1866=VECTOR('',#2311,1.0);
#1867=CARTESIAN_POINT('',(2.7,0.0,4.8));
#1868=CARTESIAN_POINT('',(2.7,0.0,4.8));
#1869=VECTOR('',#2312,1.0);
#1870=CARTESIAN_POINT('',(1.0,0.0,4.8));
#1871=VECTOR('',#2313,1.7);
#1872=CARTESIAN_POINT('',(-1.0,0.0,-4.8));
#1873=CARTESIAN_POINT('',(-1.0,0.0,-3.8));
#1874=CARTESIAN_POINT('',(-1.0,0.0,-4.8));
#1875=VECTOR('',#2314,1.0);
#1876=CARTESIAN_POINT('',(-2.7,0.0,-3.8));
#1877=VECTOR('',#2315,1.7);
#1878=CARTESIAN_POINT('',(-2.7,0.0,-4.8));
#1879=VECTOR('',#2316,1.7);
#1880=CARTESIAN_POINT('',(2.7,0.0,-3.8));
#1881=CARTESIAN_POINT('',(2.7,0.0,-4.8));
#1882=CARTESIAN_POINT('',(2.7,0.0,-3.8));
#1883=VECTOR('',#2317,1.0);
#1884=CARTESIAN_POINT('',(1.0,0.0,-3.8));
#1885=CARTESIAN_POINT('',(1.0,0.0,-3.8));
#1886=VECTOR('',#2318,1.7);
#1887=CARTESIAN_POINT('',(1.0,0.0,-4.8));
#1888=CARTESIAN_POINT('',(1.0,0.0,-4.8));
#1889=VECTOR('',#2319,1.0);
#1890=CARTESIAN_POINT('',(1.0,0.0,-4.8));
#1891=VECTOR('',#2320,1.7);
#1892=CARTESIAN_POINT('',(1.3,0.8,-0.5));
#1893=CARTESIAN_POINT('',(-1.3,0.8,-0.5));
#1894=CARTESIAN_POINT('',(1.3,0.8,-0.5));
#1895=VECTOR('',#2321,2.6);
#1896=CARTESIAN_POINT('',(1.3,0.2,-0.5));
#1897=VECTOR('',#2322,0.6);
#1898=CARTESIAN_POINT('',(-1.7,0.0,-0.5));
#1899=VECTOR('',#2323,0.2);
#1900=CARTESIAN_POINT('',(-1.3,0.2,-0.5));
#1901=VECTOR('',#2324,0.6);
#1902=CARTESIAN_POINT('',(-1.3,0.8,-3.8));
#1903=CARTESIAN_POINT('',(-1.3,0.2,-3.8));
#1904=VECTOR('',#2325,0.6);
#1905=CARTESIAN_POINT('',(-1.3,0.8,-0.5));
#1906=VECTOR('',#2326,3.3);
#1907=CARTESIAN_POINT('',(1.0,0.8,-4.8));
#1908=CARTESIAN_POINT('',(1.0,0.8,-3.8));
#1909=CARTESIAN_POINT('',(1.0,0.8,-4.8));
#1910=VECTOR('',#2327,1.0);
#1911=CARTESIAN_POINT('',(1.3,0.8,-3.8));
#1912=CARTESIAN_POINT('',(1.0,0.8,-3.8));
#1913=VECTOR('',#2328,0.3);
#1914=CARTESIAN_POINT('',(1.3,0.8,-3.8));
#1915=VECTOR('',#2329,3.3);
#1916=CARTESIAN_POINT('',(-1.0,0.8,-3.8));
#1917=CARTESIAN_POINT('',(-1.3,0.8,-3.8));
#1918=VECTOR('',#2330,0.3);
#1919=CARTESIAN_POINT('',(-1.0,0.8,-4.8));
#1920=CARTESIAN_POINT('',(-1.0,0.8,-3.8));
#1921=VECTOR('',#2331,1.0);
#1922=CARTESIAN_POINT('',(-1.0,0.8,-4.8));
#1923=VECTOR('',#2332,2.0);
#1924=CARTESIAN_POINT('',(0.57,0.8,-3.25));
#1925=CARTESIAN_POINT('',(-0.57,0.8,-3.25));
#1926=CARTESIAN_POINT('',(0.57,0.8,-3.25));
#1927=VECTOR('',#2333,1.14);
#1928=CARTESIAN_POINT('',(-0.57,0.8,-2.65));
#1929=CARTESIAN_POINT('',(-0.57,0.8,-3.25));
#1930=VECTOR('',#2334,0.6);
#1931=CARTESIAN_POINT('',(0.57,0.8,-2.65));
#1932=CARTESIAN_POINT('',(0.57,0.8,-2.65));
#1933=VECTOR('',#2335,1.14);
#1934=CARTESIAN_POINT('',(0.57,0.8,-3.25));
#1935=VECTOR('',#2336,0.6);
#1936=CARTESIAN_POINT('',(-1.0,0.8,4.8));
#1937=CARTESIAN_POINT('',(-1.0,0.8,4.8));
#1938=VECTOR('',#2337,1.0);
#1939=CARTESIAN_POINT('',(1.0,0.8,4.8));
#1940=CARTESIAN_POINT('',(1.0,0.8,3.8));
#1941=VECTOR('',#2338,1.0);
#1942=CARTESIAN_POINT('',(-1.0,0.8,4.8));
#1943=VECTOR('',#2339,2.0);
#1944=CARTESIAN_POINT('',(0.57,0.8,2.25));
#1945=CARTESIAN_POINT('',(-0.57,0.8,2.25));
#1946=CARTESIAN_POINT('',(0.57,0.8,2.25));
#1947=VECTOR('',#2340,1.14);
#1948=CARTESIAN_POINT('',(-0.57,0.8,2.85));
#1949=CARTESIAN_POINT('',(-0.57,0.8,2.25));
#1950=VECTOR('',#2341,0.6);
#1951=CARTESIAN_POINT('',(0.57,0.8,2.85));
#1952=CARTESIAN_POINT('',(0.57,0.8,2.85));
#1953=VECTOR('',#2342,1.14);
#1954=CARTESIAN_POINT('',(0.57,0.8,2.25));
#1955=VECTOR('',#2343,0.6);
#1956=CARTESIAN_POINT('',(-1.7,12.8,-4.8));
#1957=CARTESIAN_POINT('',(-2.7,12.8,-4.8));
#1958=VECTOR('',#2344,1.0);
#1959=CARTESIAN_POINT('',(-1.7,9.75,-4.8));
#1960=CARTESIAN_POINT('',(-1.7,12.8,-4.8));
#1961=VECTOR('',#2345,3.05);
#1962=CARTESIAN_POINT('',(1.7,9.75,-4.8));
#1963=CARTESIAN_POINT('',(-1.7,9.75,-4.8));
#1964=VECTOR('',#2346,3.4);
#1965=CARTESIAN_POINT('',(1.7,12.8,-4.8));
#1966=CARTESIAN_POINT('',(1.7,12.8,-4.8));
#1967=VECTOR('',#2347,3.05);
#1968=CARTESIAN_POINT('',(2.7,12.8,-4.8));
#1969=CARTESIAN_POINT('',(1.7,12.8,-4.8));
#1970=VECTOR('',#2348,1.0);
#1971=CARTESIAN_POINT('',(2.7,0.0,-4.8));
#1972=VECTOR('',#2349,12.8);
#1973=CARTESIAN_POINT('',(1.0,0.0,-4.8));
#1974=VECTOR('',#2350,0.8);
#1975=CARTESIAN_POINT('',(-1.0,0.0,-4.8));
#1976=VECTOR('',#2351,0.8);
#1977=CARTESIAN_POINT('',(-1.0,0.8,-3.8));
#1978=VECTOR('',#2352,0.8);
#1979=CARTESIAN_POINT('',(2.7,0.0,-3.8));
#1980=VECTOR('',#2353,0.2);
#1981=CARTESIAN_POINT('',(1.3,0.2,-3.8));
#1982=VECTOR('',#2354,0.6);
#1983=CARTESIAN_POINT('',(1.0,0.0,-3.8));
#1984=VECTOR('',#2355,0.8);
#1985=CARTESIAN_POINT('',(2.7,12.8,2.2));
#1986=CARTESIAN_POINT('',(2.7,12.8,-4.8));
#1987=VECTOR('',#2356,7.0);
#1988=CARTESIAN_POINT('',(2.7,12.8,2.2));
#1989=VECTOR('',#2357,12.6);
#1990=CARTESIAN_POINT('',(2.7,12.8,4.8));
#1991=CARTESIAN_POINT('',(2.7,12.8,3.0));
#1992=VECTOR('',#2358,1.8);
#1993=CARTESIAN_POINT('',(2.7,12.8,4.8));
#1994=VECTOR('',#2359,12.8);
#1995=AXIS2_PLACEMENT_3D('',#2360,#2361,#2362);
#1996=CARTESIAN_POINT('',(-3.1,12.8,-2.99));
#1997=VECTOR('',#2363,0.5656854249492);
#1998=CARTESIAN_POINT('',(-2.7,12.8,4.8));
#1999=VECTOR('',#2364,5.4);
#2000=CARTESIAN_POINT('',(-1.7,12.8,-4.8));
#2001=VECTOR('',#2365,3.4);
#2002=CARTESIAN_POINT('',(-1.8,12.8,3.9));
#2003=CARTESIAN_POINT('',(1.8,12.8,3.9));
#2004=CARTESIAN_POINT('',(-1.8,12.8,3.9));
#2005=VECTOR('',#2366,3.6);
#2006=CARTESIAN_POINT('',(-1.8,12.8,0.3));
#2007=CARTESIAN_POINT('',(-1.8,12.8,0.3));
#2008=VECTOR('',#2367,3.6);
#2009=CARTESIAN_POINT('',(1.8,12.8,0.3));
#2010=CARTESIAN_POINT('',(1.8,12.8,0.3));
#2011=VECTOR('',#2368,3.6);
#2012=CARTESIAN_POINT('',(1.8,12.8,3.9));
#2013=VECTOR('',#2369,3.6);
#2014=CARTESIAN_POINT('',(0.9,12.8,-0.3));
#2015=CARTESIAN_POINT('',(1.8,12.8,-1.2));
#2016=CARTESIAN_POINT('',(0.9,12.8,-0.3));
#2017=VECTOR('',#2370,1.272792206136);
#2018=CARTESIAN_POINT('',(-0.9,12.8,-0.3));
#2019=CARTESIAN_POINT('',(-0.9,12.8,-0.3));
#2020=VECTOR('',#2371,1.8);
#2021=CARTESIAN_POINT('',(-1.8,12.8,-1.2));
#2022=CARTESIAN_POINT('',(-1.8,12.8,-1.2));
#2023=VECTOR('',#2372,1.272792206136);
#2024=CARTESIAN_POINT('',(-1.8,12.8,-3.9));
#2025=CARTESIAN_POINT('',(-1.8,12.8,-3.9));
#2026=VECTOR('',#2373,2.7);
#2027=CARTESIAN_POINT('',(1.8,12.8,-3.9));
#2028=CARTESIAN_POINT('',(1.8,12.8,-3.9));
#2029=VECTOR('',#2374,3.6);
#2030=CARTESIAN_POINT('',(1.8,12.8,-1.2));
#2031=VECTOR('',#2375,2.7);
#2032=CARTESIAN_POINT('',(1.7,10.45,-6.2));
#2033=CARTESIAN_POINT('',(1.7,10.45,-6.2));
#2034=VECTOR('',#2376,2.735415873318);
#2035=CARTESIAN_POINT('',(-1.7,10.45,-6.2));
#2036=CARTESIAN_POINT('',(-1.7,10.45,-6.2));
#2037=VECTOR('',#2377,3.4);
#2038=CARTESIAN_POINT('',(-1.7,10.45,-6.2));
#2039=VECTOR('',#2378,2.735415873318);
#2040=CARTESIAN_POINT('',(-1.7,9.75,-6.2));
#2041=CARTESIAN_POINT('',(-1.7,9.75,-6.2));
#2042=VECTOR('',#2379,0.7);
#2043=CARTESIAN_POINT('',(-1.7,9.75,-4.8));
#2044=VECTOR('',#2380,1.4);
#2045=CARTESIAN_POINT('',(1.7,9.75,-6.2));
#2046=CARTESIAN_POINT('',(-1.7,9.75,-6.2));
#2047=VECTOR('',#2381,3.4);
#2048=CARTESIAN_POINT('',(1.7,9.75,-4.8));
#2049=VECTOR('',#2382,1.4);
#2050=CARTESIAN_POINT('',(1.7,9.75,-6.2));
#2051=VECTOR('',#2383,0.7);
#2052=CARTESIAN_POINT('',(-1.0,0.0,4.8));
#2053=VECTOR('',#2384,0.8);
#2054=CARTESIAN_POINT('',(1.0,0.0,4.8));
#2055=VECTOR('',#2385,0.8);
#2056=CARTESIAN_POINT('',(1.8,3.7,0.3));
#2057=CARTESIAN_POINT('',(1.8,12.8,0.3));
#2058=VECTOR('',#2386,9.1);
#2059=CARTESIAN_POINT('',(1.8,3.7,3.9));
#2060=CARTESIAN_POINT('',(1.8,3.7,3.9));
#2061=VECTOR('',#2387,3.6);
#2062=CARTESIAN_POINT('',(1.8,12.8,3.9));
#2063=VECTOR('',#2388,9.1);
#2064=CARTESIAN_POINT('',(-1.8,3.7,3.9));
#2065=CARTESIAN_POINT('',(-1.8,3.7,3.9));
#2066=VECTOR('',#2389,3.6);
#2067=CARTESIAN_POINT('',(-1.8,12.8,3.9));
#2068=VECTOR('',#2390,9.1);
#2069=CARTESIAN_POINT('',(-1.8,3.7,0.3));
#2070=CARTESIAN_POINT('',(-1.8,3.7,0.3));
#2071=VECTOR('',#2391,3.6);
#2072=CARTESIAN_POINT('',(-1.8,12.8,0.3));
#2073=VECTOR('',#2392,9.1);
#2074=CARTESIAN_POINT('',(1.8,3.7,0.3));
#2075=VECTOR('',#2393,3.6);
#2076=CARTESIAN_POINT('',(0.57,3.7,2.85));
#2077=CARTESIAN_POINT('',(-0.57,3.7,2.85));
#2078=CARTESIAN_POINT('',(0.57,3.7,2.85));
#2079=VECTOR('',#2394,1.14);
#2080=CARTESIAN_POINT('',(-0.57,3.7,1.31));
#2081=CARTESIAN_POINT('',(-0.57,3.7,1.31));
#2082=VECTOR('',#2395,1.54);
#2083=CARTESIAN_POINT('',(0.57,3.7,1.31));
#2084=CARTESIAN_POINT('',(0.57,3.7,1.31));
#2085=VECTOR('',#2396,1.14);
#2086=CARTESIAN_POINT('',(0.57,3.7,1.31));
#2087=VECTOR('',#2397,1.54);
#2088=CARTESIAN_POINT('',(1.8,3.7,-3.9));
#2089=CARTESIAN_POINT('',(-1.8,3.7,-3.9));
#2090=CARTESIAN_POINT('',(1.8,3.7,-3.9));
#2091=VECTOR('',#2398,3.6);
#2092=CARTESIAN_POINT('',(-1.8,3.7,-1.2));
#2093=CARTESIAN_POINT('',(-1.8,3.7,-3.9));
#2094=VECTOR('',#2399,2.7);
#2095=CARTESIAN_POINT('',(-0.9,3.7,-0.3));
#2096=CARTESIAN_POINT('',(-1.8,3.7,-1.2));
#2097=VECTOR('',#2400,1.272792206136);
#2098=CARTESIAN_POINT('',(0.9,3.7,-0.3));
#2099=CARTESIAN_POINT('',(-0.9,3.7,-0.3));
#2100=VECTOR('',#2401,1.8);
#2101=CARTESIAN_POINT('',(1.8,3.7,-1.2));
#2102=CARTESIAN_POINT('',(0.9,3.7,-0.3));
#2103=VECTOR('',#2402,1.272792206136);
#2104=CARTESIAN_POINT('',(1.8,3.7,-1.2));
#2105=VECTOR('',#2403,2.7);
#2106=CARTESIAN_POINT('',(0.57,3.7,-1.71));
#2107=CARTESIAN_POINT('',(-0.57,3.7,-1.71));
#2108=CARTESIAN_POINT('',(0.57,3.7,-1.71));
#2109=VECTOR('',#2404,1.14);
#2110=CARTESIAN_POINT('',(-0.57,3.7,-3.25));
#2111=CARTESIAN_POINT('',(-0.57,3.7,-3.25));
#2112=VECTOR('',#2405,1.54);
#2113=CARTESIAN_POINT('',(0.57,3.7,-3.25));
#2114=CARTESIAN_POINT('',(0.57,3.7,-3.25));
#2115=VECTOR('',#2406,1.14);
#2116=CARTESIAN_POINT('',(0.57,3.7,-3.25));
#2117=VECTOR('',#2407,1.54);
#2118=CARTESIAN_POINT('',(1.8,12.8,-3.9));
#2119=VECTOR('',#2408,9.1);
#2120=CARTESIAN_POINT('',(1.8,12.8,-1.2));
#2121=VECTOR('',#2409,9.1);
#2122=CARTESIAN_POINT('',(0.9,12.8,-0.3));
#2123=VECTOR('',#2410,9.1);
#2124=CARTESIAN_POINT('',(-0.9,12.8,-0.3));
#2125=VECTOR('',#2411,9.1);
#2126=CARTESIAN_POINT('',(-1.8,12.8,-1.2));
#2127=VECTOR('',#2412,9.1);
#2128=CARTESIAN_POINT('',(-1.8,12.8,-3.9));
#2129=VECTOR('',#2413,9.1);
#2130=CARTESIAN_POINT('',(0.57,4.3,-2.85));
#2131=CARTESIAN_POINT('',(0.57,4.3,-2.85));
#2132=VECTOR('',#2414,0.7211102550928);
#2133=CARTESIAN_POINT('',(0.57,9.2,-2.85));
#2134=CARTESIAN_POINT('',(0.57,9.2,-2.85));
#2135=VECTOR('',#2415,4.9);
#2136=CARTESIAN_POINT('',(0.57,9.2,-1.71));
#2137=CARTESIAN_POINT('',(0.57,9.2,-1.71));
#2138=VECTOR('',#2416,1.14);
#2139=CARTESIAN_POINT('',(0.57,3.7,-1.71));
#2140=VECTOR('',#2417,5.5);
#2141=CARTESIAN_POINT('',(0.57,9.2,1.31));
#2142=CARTESIAN_POINT('',(0.57,9.2,1.31));
#2143=VECTOR('',#2418,5.5);
#2144=CARTESIAN_POINT('',(0.57,9.2,2.45));
#2145=CARTESIAN_POINT('',(0.57,9.2,2.45));
#2146=VECTOR('',#2419,1.14);
#2147=CARTESIAN_POINT('',(0.57,4.3,2.45));
#2148=CARTESIAN_POINT('',(0.57,4.3,2.45));
#2149=VECTOR('',#2420,4.9);
#2150=CARTESIAN_POINT('',(0.57,3.7,2.85));
#2151=VECTOR('',#2421,0.7211102550928);
#2152=CARTESIAN_POINT('',(0.57,-3.5,2.85));
#2153=CARTESIAN_POINT('',(0.57,-3.5,2.85));
#2154=VECTOR('',#2422,4.3);
#2155=CARTESIAN_POINT('',(0.57,-3.5,2.7));
#2156=CARTESIAN_POINT('',(0.57,-3.5,2.7));
#2157=VECTOR('',#2423,0.15);
#2158=CARTESIAN_POINT('',(0.57,-2.23,2.25));
#2159=CARTESIAN_POINT('',(0.57,-2.23,2.25));
#2160=VECTOR('',#2424,1.347367804276);
#2161=CARTESIAN_POINT('',(0.57,0.8,2.25));
#2162=VECTOR('',#2425,3.03);
#2163=CARTESIAN_POINT('',(0.57,-2.23,-2.65));
#2164=CARTESIAN_POINT('',(0.57,-2.23,-2.65));
#2165=VECTOR('',#2426,3.03);
#2166=CARTESIAN_POINT('',(0.57,-3.5,-3.1));
#2167=CARTESIAN_POINT('',(0.57,-3.5,-3.1));
#2168=VECTOR('',#2427,1.347367804276);
#2169=CARTESIAN_POINT('',(0.57,-3.5,-3.25));
#2170=CARTESIAN_POINT('',(0.57,-3.5,-3.25));
#2171=VECTOR('',#2428,0.15);
#2172=CARTESIAN_POINT('',(0.57,0.8,-3.25));
#2173=VECTOR('',#2429,4.3);
#2174=CARTESIAN_POINT('',(-0.57,9.2,-1.71));
#2175=CARTESIAN_POINT('',(0.57,9.2,-1.71));
#2176=VECTOR('',#2430,1.14);
#2177=CARTESIAN_POINT('',(-0.57,3.7,-1.71));
#2178=VECTOR('',#2431,5.5);
#2179=CARTESIAN_POINT('',(-0.57,9.2,-2.85));
#2180=CARTESIAN_POINT('',(-0.57,9.2,-1.71));
#2181=VECTOR('',#2432,1.14);
#2182=CARTESIAN_POINT('',(-0.57,4.3,-2.85));
#2183=CARTESIAN_POINT('',(-0.57,9.2,-2.85));
#2184=VECTOR('',#2433,4.9);
#2185=CARTESIAN_POINT('',(-0.57,4.3,-2.85));
#2186=VECTOR('',#2434,0.7211102550928);
#2187=CARTESIAN_POINT('',(-0.57,4.3,2.45));
#2188=CARTESIAN_POINT('',(-0.57,3.7,2.85));
#2189=VECTOR('',#2435,0.7211102550928);
#2190=CARTESIAN_POINT('',(-0.57,9.2,2.45));
#2191=CARTESIAN_POINT('',(-0.57,4.3,2.45));
#2192=VECTOR('',#2436,4.9);
#2193=CARTESIAN_POINT('',(-0.57,9.2,1.31));
#2194=CARTESIAN_POINT('',(-0.57,9.2,2.45));
#2195=VECTOR('',#2437,1.14);
#2196=CARTESIAN_POINT('',(-0.57,9.2,1.31));
#2197=VECTOR('',#2438,5.5);
#2198=CARTESIAN_POINT('',(-0.57,-2.23,2.25));
#2199=CARTESIAN_POINT('',(-0.57,-3.5,2.7));
#2200=CARTESIAN_POINT('',(-0.57,-2.23,2.25));
#2201=VECTOR('',#2439,1.347367804276);
#2202=CARTESIAN_POINT('',(-0.57,-3.5,2.85));
#2203=CARTESIAN_POINT('',(-0.57,-3.5,2.7));
#2204=VECTOR('',#2440,0.15);
#2205=CARTESIAN_POINT('',(-0.57,-3.5,2.85));
#2206=VECTOR('',#2441,4.3);
#2207=CARTESIAN_POINT('',(-0.57,0.8,2.25));
#2208=VECTOR('',#2442,3.03);
#2209=CARTESIAN_POINT('',(-0.57,-3.5,-3.25));
#2210=CARTESIAN_POINT('',(-0.57,0.8,-3.25));
#2211=VECTOR('',#2443,4.3);
#2212=CARTESIAN_POINT('',(-0.57,-3.5,-3.1));
#2213=CARTESIAN_POINT('',(-0.57,-3.5,-3.25));
#2214=VECTOR('',#2444,0.15);
#2215=CARTESIAN_POINT('',(-0.57,-2.23,-2.65));
#2216=CARTESIAN_POINT('',(-0.57,-3.5,-3.1));
#2217=VECTOR('',#2445,1.347367804276);
#2218=CARTESIAN_POINT('',(-0.57,-2.23,-2.65));
#2219=VECTOR('',#2446,3.03);
#2220=CARTESIAN_POINT('',(0.57,4.3,-2.85));
#2221=VECTOR('',#2447,1.14);
#2222=CARTESIAN_POINT('',(0.57,9.2,-2.85));
#2223=VECTOR('',#2448,1.14);
#2224=CARTESIAN_POINT('',(0.57,9.2,1.31));
#2225=VECTOR('',#2449,1.14);
#2226=CARTESIAN_POINT('',(0.57,9.2,2.45));
#2227=VECTOR('',#2450,1.14);
#2228=CARTESIAN_POINT('',(0.57,4.3,2.45));
#2229=VECTOR('',#2451,1.14);
#2230=CARTESIAN_POINT('',(0.57,-2.23,2.25));
#2231=VECTOR('',#2452,1.14);
#2232=CARTESIAN_POINT('',(0.57,-3.5,2.7));
#2233=VECTOR('',#2453,1.14);
#2234=CARTESIAN_POINT('',(0.57,-3.5,2.85));
#2235=VECTOR('',#2454,1.14);
#2236=CARTESIAN_POINT('',(0.57,-2.23,-2.65));
#2237=VECTOR('',#2455,1.14);
#2238=CARTESIAN_POINT('',(0.57,-3.5,-3.1));
#2239=VECTOR('',#2456,1.14);
#2240=CARTESIAN_POINT('',(0.57,-3.5,-3.25));
#2241=VECTOR('',#2457,1.14);
#2242=DIRECTION('',(-0.0,-1.0,0.0));
#2243=CARTESIAN_POINT('',(2.7,12.8,2.6));
#2244=DIRECTION('',(0.0,-1.0,0.0));
#2245=DIRECTION('',(0.0,0.0,-1.0));
#2246=DIRECTION('',(0.0,-1.0,0.0));
#2247=CARTESIAN_POINT('',(2.7,0.2,2.6));
#2248=DIRECTION('',(0.0,-1.0,0.0));
#2249=DIRECTION('',(0.0,0.0,-1.0));
#2250=DIRECTION('',(0.0,0.0,1.0));
#2251=DIRECTION('',(0.0,1.0,0.0));
#2252=DIRECTION('',(0.0,0.0,-1.0));
#2253=DIRECTION('',(0.0,-1.0,0.0));
#2254=DIRECTION('',(0.0,0.0,1.0));
#2255=DIRECTION('',(0.0,1.0,0.0));
#2256=DIRECTION('',(0.0,0.0,1.0));
#2257=DIRECTION('',(0.0,1.0,0.0));
#2258=DIRECTION('',(0.0,0.0,-1.0));
#2259=DIRECTION('',(0.0,1.0,0.0));
#2260=DIRECTION('',(0.0,0.0,1.0));
#2261=DIRECTION('',(0.0,1.0,0.0));
#2262=DIRECTION('',(-0.707106781186548,0.0,-0.707106781186548));
#2263=DIRECTION('',(-0.707106781186548,0.0,-0.707106781186548));
#2264=DIRECTION('',(0.0,-1.0,0.0));
#2265=DIRECTION('',(0.0,0.0,-1.0));
#2266=DIRECTION('',(0.0,-1.0,0.0));
#2267=DIRECTION('',(0.0,0.0,-1.0));
#2268=DIRECTION('',(-1.0,0.0,0.0));
#2269=DIRECTION('',(0.707106781186548,0.0,-0.707106781186548));
#2270=DIRECTION('',(1.0,0.0,0.0));
#2271=DIRECTION('',(0.0,0.0,1.0));
#2272=DIRECTION('',(-1.0,0.0,0.0));
#2273=DIRECTION('',(0.0,0.0,1.0));
#2274=DIRECTION('',(1.0,0.0,0.0));
#2275=DIRECTION('',(0.0,0.0,1.0));
#2276=DIRECTION('',(1.0,0.0,0.0));
#2277=DIRECTION('',(0.0,0.0,-1.0));
#2278=DIRECTION('',(-1.0,0.0,0.0));
#2279=DIRECTION('',(0.0,0.0,1.0));
#2280=DIRECTION('',(1.0,0.0,0.0));
#2281=DIRECTION('',(0.0,0.0,1.0));
#2282=CARTESIAN_POINT('',(2.7,0.2,2.6));
#2283=DIRECTION('',(0.0,-1.0,0.0));
#2284=DIRECTION('',(0.0,0.0,-1.0));
#2285=DIRECTION('',(0.0,0.0,1.0));
#2286=DIRECTION('',(-1.0,0.0,0.0));
#2287=DIRECTION('',(0.0,0.0,1.0));
#2288=DIRECTION('',(0.0,1.0,0.0));
#2289=DIRECTION('',(0.0,0.0,-1.0));
#2290=DIRECTION('',(0.0,1.0,0.0));
#2291=DIRECTION('',(0.0,1.0,0.0));
#2292=DIRECTION('',(1.0,0.0,0.0));
#2293=DIRECTION('',(0.0,-1.0,0.0));
#2294=DIRECTION('',(-1.0,0.0,0.0));
#2295=DIRECTION('',(0.0,1.0,0.0));
#2296=DIRECTION('',(-1.0,0.0,0.0));
#2297=DIRECTION('',(0.0,1.0,0.0));
#2298=DIRECTION('',(1.0,0.0,0.0));
#2299=DIRECTION('',(0.0,0.0,1.0));
#2300=DIRECTION('',(0.0,1.0,0.0));
#2301=DIRECTION('',(1.0,0.0,0.0));
#2302=DIRECTION('',(0.0,1.0,0.0));
#2303=DIRECTION('',(1.0,0.0,0.0));
#2304=DIRECTION('',(0.0,1.0,0.0));
#2305=DIRECTION('',(0.0,1.0,0.0));
#2306=DIRECTION('',(0.0,0.0,-1.0));
#2307=DIRECTION('',(0.0,0.0,1.0));
#2308=DIRECTION('',(-1.0,0.0,0.0));
#2309=DIRECTION('',(0.0,0.0,-1.0));
#2310=DIRECTION('',(1.0,0.0,0.0));
#2311=DIRECTION('',(0.0,0.0,-1.0));
#2312=DIRECTION('',(0.0,0.0,-1.0));
#2313=DIRECTION('',(1.0,0.0,0.0));
#2314=DIRECTION('',(0.0,0.0,1.0));
#2315=DIRECTION('',(1.0,0.0,0.0));
#2316=DIRECTION('',(1.0,0.0,0.0));
#2317=DIRECTION('',(0.0,0.0,-1.0));
#2318=DIRECTION('',(1.0,0.0,0.0));
#2319=DIRECTION('',(0.0,0.0,1.0));
#2320=DIRECTION('',(1.0,0.0,0.0));
#2321=DIRECTION('',(-1.0,0.0,0.0));
#2322=DIRECTION('',(0.0,1.0,0.0));
#2323=DIRECTION('',(0.0,1.0,0.0));
#2324=DIRECTION('',(0.0,1.0,0.0));
#2325=DIRECTION('',(0.0,1.0,0.0));
#2326=DIRECTION('',(0.0,0.0,-1.0));
#2327=DIRECTION('',(0.0,0.0,1.0));
#2328=DIRECTION('',(1.0,0.0,0.0));
#2329=DIRECTION('',(0.0,0.0,1.0));
#2330=DIRECTION('',(1.0,0.0,0.0));
#2331=DIRECTION('',(0.0,0.0,-1.0));
#2332=DIRECTION('',(1.0,0.0,0.0));
#2333=DIRECTION('',(-1.0,0.0,0.0));
#2334=DIRECTION('',(0.0,0.0,1.0));
#2335=DIRECTION('',(-1.0,0.0,0.0));
#2336=DIRECTION('',(0.0,0.0,1.0));
#2337=DIRECTION('',(0.0,0.0,-1.0));
#2338=DIRECTION('',(0.0,0.0,1.0));
#2339=DIRECTION('',(1.0,0.0,0.0));
#2340=DIRECTION('',(-1.0,0.0,0.0));
#2341=DIRECTION('',(0.0,0.0,1.0));
#2342=DIRECTION('',(-1.0,0.0,0.0));
#2343=DIRECTION('',(0.0,0.0,1.0));
#2344=DIRECTION('',(1.0,0.0,0.0));
#2345=DIRECTION('',(0.0,-1.0,0.0));
#2346=DIRECTION('',(1.0,0.0,0.0));
#2347=DIRECTION('',(0.0,-1.0,0.0));
#2348=DIRECTION('',(1.0,0.0,0.0));
#2349=DIRECTION('',(0.0,1.0,0.0));
#2350=DIRECTION('',(0.0,1.0,0.0));
#2351=DIRECTION('',(0.0,1.0,0.0));
#2352=DIRECTION('',(0.0,-1.0,0.0));
#2353=DIRECTION('',(0.0,1.0,0.0));
#2354=DIRECTION('',(0.0,1.0,0.0));
#2355=DIRECTION('',(0.0,1.0,0.0));
#2356=DIRECTION('',(0.0,0.0,1.0));
#2357=DIRECTION('',(0.0,-1.0,0.0));
#2358=DIRECTION('',(0.0,0.0,1.0));
#2359=DIRECTION('',(0.0,-1.0,0.0));
#2360=CARTESIAN_POINT('',(2.7,12.8,2.6));
#2361=DIRECTION('',(0.0,-1.0,0.0));
#2362=DIRECTION('',(0.0,0.0,-1.0));
#2363=DIRECTION('',(0.707106781186548,0.0,-0.707106781186548));
#2364=DIRECTION('',(1.0,0.0,0.0));
#2365=DIRECTION('',(1.0,0.0,0.0));
#2366=DIRECTION('',(1.0,0.0,0.0));
#2367=DIRECTION('',(0.0,0.0,1.0));
#2368=DIRECTION('',(-1.0,0.0,0.0));
#2369=DIRECTION('',(0.0,0.0,-1.0));
#2370=DIRECTION('',(0.707106781186548,0.0,-0.707106781186548));
#2371=DIRECTION('',(1.0,0.0,0.0));
#2372=DIRECTION('',(0.707106781186548,0.0,0.707106781186548));
#2373=DIRECTION('',(0.0,0.0,1.0));
#2374=DIRECTION('',(-1.0,0.0,0.0));
#2375=DIRECTION('',(0.0,0.0,-1.0));
#2376=DIRECTION('',(0.0,0.859101543908758,0.511805175094575));
#2377=DIRECTION('',(1.0,0.0,0.0));
#2378=DIRECTION('',(0.0,0.859101543908758,0.511805175094575));
#2379=DIRECTION('',(0.0,1.0,0.0));
#2380=DIRECTION('',(0.0,0.0,-1.0));
#2381=DIRECTION('',(1.0,0.0,0.0));
#2382=DIRECTION('',(0.0,0.0,-1.0));
#2383=DIRECTION('',(0.0,1.0,0.0));
#2384=DIRECTION('',(0.0,1.0,0.0));
#2385=DIRECTION('',(0.0,1.0,0.0));
#2386=DIRECTION('',(0.0,-1.0,0.0));
#2387=DIRECTION('',(0.0,0.0,-1.0));
#2388=DIRECTION('',(0.0,-1.0,0.0));
#2389=DIRECTION('',(1.0,0.0,0.0));
#2390=DIRECTION('',(0.0,-1.0,0.0));
#2391=DIRECTION('',(0.0,0.0,1.0));
#2392=DIRECTION('',(0.0,-1.0,0.0));
#2393=DIRECTION('',(-1.0,0.0,0.0));
#2394=DIRECTION('',(-1.0,0.0,0.0));
#2395=DIRECTION('',(0.0,0.0,1.0));
#2396=DIRECTION('',(-1.0,0.0,0.0));
#2397=DIRECTION('',(0.0,0.0,1.0));
#2398=DIRECTION('',(-1.0,0.0,0.0));
#2399=DIRECTION('',(0.0,0.0,1.0));
#2400=DIRECTION('',(0.707106781186548,0.0,0.707106781186548));
#2401=DIRECTION('',(1.0,0.0,0.0));
#2402=DIRECTION('',(0.707106781186548,0.0,-0.707106781186548));
#2403=DIRECTION('',(0.0,0.0,-1.0));
#2404=DIRECTION('',(-1.0,0.0,0.0));
#2405=DIRECTION('',(0.0,0.0,1.0));
#2406=DIRECTION('',(-1.0,0.0,0.0));
#2407=DIRECTION('',(0.0,0.0,1.0));
#2408=DIRECTION('',(0.0,-1.0,0.0));
#2409=DIRECTION('',(0.0,-1.0,0.0));
#2410=DIRECTION('',(0.0,-1.0,0.0));
#2411=DIRECTION('',(0.0,-1.0,0.0));
#2412=DIRECTION('',(0.0,-1.0,0.0));
#2413=DIRECTION('',(0.0,-1.0,0.0));
#2414=DIRECTION('',(0.0,-0.832050294337844,-0.554700196225229));
#2415=DIRECTION('',(0.0,-1.0,0.0));
#2416=DIRECTION('',(0.0,0.0,-1.0));
#2417=DIRECTION('',(0.0,1.0,0.0));
#2418=DIRECTION('',(0.0,-1.0,0.0));
#2419=DIRECTION('',(0.0,0.0,-1.0));
#2420=DIRECTION('',(0.0,1.0,0.0));
#2421=DIRECTION('',(0.0,0.832050294337844,-0.554700196225229));
#2422=DIRECTION('',(0.0,1.0,0.0));
#2423=DIRECTION('',(0.0,0.0,1.0));
#2424=DIRECTION('',(0.0,-0.942578556478323,0.333984527886008));
#2425=DIRECTION('',(0.0,-1.0,0.0));
#2426=DIRECTION('',(0.0,1.0,0.0));
#2427=DIRECTION('',(0.0,0.942578556478323,0.333984527886008));
#2428=DIRECTION('',(0.0,0.0,1.0));
#2429=DIRECTION('',(0.0,-1.0,0.0));
#2430=DIRECTION('',(-1.0,0.0,0.0));
#2431=DIRECTION('',(0.0,1.0,0.0));
#2432=DIRECTION('',(0.0,0.0,-1.0));
#2433=DIRECTION('',(0.0,-1.0,0.0));
#2434=DIRECTION('',(0.0,-0.832050294337844,-0.554700196225229));
#2435=DIRECTION('',(0.0,0.832050294337844,-0.554700196225229));
#2436=DIRECTION('',(0.0,1.0,0.0));
#2437=DIRECTION('',(0.0,0.0,-1.0));
#2438=DIRECTION('',(0.0,-1.0,0.0));
#2439=DIRECTION('',(0.0,-0.942578556478323,0.333984527886008));
#2440=DIRECTION('',(0.0,0.0,1.0));
#2441=DIRECTION('',(0.0,1.0,0.0));
#2442=DIRECTION('',(0.0,-1.0,0.0));
#2443=DIRECTION('',(0.0,-1.0,0.0));
#2444=DIRECTION('',(0.0,0.0,1.0));
#2445=DIRECTION('',(0.0,0.942578556478323,0.333984527886008));
#2446=DIRECTION('',(0.0,1.0,0.0));
#2447=DIRECTION('',(-1.0,0.0,0.0));
#2448=DIRECTION('',(-1.0,0.0,0.0));
#2449=DIRECTION('',(-1.0,0.0,0.0));
#2450=DIRECTION('',(-1.0,0.0,0.0));
#2451=DIRECTION('',(-1.0,0.0,0.0));
#2452=DIRECTION('',(-1.0,0.0,0.0));
#2453=DIRECTION('',(-1.0,0.0,0.0));
#2454=DIRECTION('',(-1.0,0.0,0.0));
#2455=DIRECTION('',(-1.0,0.0,0.0));
#2456=DIRECTION('',(-1.0,0.0,0.0));
#2457=DIRECTION('',(-1.0,0.0,0.0));
ENDSEC;
END-ISO-10303-21;
