ISO-10303-21;
HEADER;
FILE_DESCRIPTION(('STEP AP242'),'1');
FILE_NAME('0022035025.stp','2024-11-08T00:11:52',('TraceParts'),('TraceParts S.A.'),'Spatial InterOp 3D',' ',' ');
FILE_SCHEMA(('AP242_MANAGED_MODEL_BASED_3D_ENGINEERING_MIM_LF  {1 0 10303 442 1 1 4}'));
ENDSEC;
DATA;
#1=MECHANICAL_DESIGN_GEOMETRIC_PRESENTATION_REPRESENTATION(' ',(#10),#6);
#2=PRODUCT_DEFINITION_CONTEXT('',#11,'design');
#3=APPLICATION_PROTOCOL_DEFINITION('INTERNATIONAL STANDARD','ap242_managed_model_based_3d_engineering',2014,#11);
#4=PRODUCT_CATEGORY_RELATIONSHIP('NONE','NONE',#12,#13);
#5=SHAPE_DEFINITION_REPRESENTATION(#14,#15);
#6= (GEOMETRIC_REPRESENTATION_CONTEXT(3)GLOBAL_UNCERTAINTY_ASSIGNED_CONTEXT((#18))GLOBAL_UNIT_ASSIGNED_CONTEXT((#20,#21,#22))REPRESENTATION_CONTEXT('NONE','WORKSPACE'));
#10=STYLED_ITEM('',(#24),#25);
#11=APPLICATION_CONTEXT('managed model based 3d engineering');
#12=PRODUCT_CATEGORY('part','NONE');
#13=PRODUCT_RELATED_PRODUCT_CATEGORY('detail',' ',(#26));
#14=PRODUCT_DEFINITION_SHAPE('NONE','NONE',#27);
#15=ADVANCED_BREP_SHAPE_REPRESENTATION('0022035025',(#25,#28),#6);
#18=UNCERTAINTY_MEASURE_WITH_UNIT(LENGTH_MEASURE(1.0E-06),#20,'','');
#20= (CONVERSION_BASED_UNIT('MILLIMETRE',#31)LENGTH_UNIT()NAMED_UNIT(#34));
#21= (NAMED_UNIT(#36)PLANE_ANGLE_UNIT()SI_UNIT($,.RADIAN.));
#22= (NAMED_UNIT(#36)SOLID_ANGLE_UNIT()SI_UNIT($,.STERADIAN.));
#24=PRESENTATION_STYLE_ASSIGNMENT((#42));
#25=MANIFOLD_SOLID_BREP('0022035025',#43);
#26=PRODUCT('0022035025','','PART--DESC',(#44));
#27=PRODUCT_DEFINITION('','NONE',#45,#2);
#28=AXIS2_PLACEMENT_3D('',#46,#47,#48);
#31=LENGTH_MEASURE_WITH_UNIT(LENGTH_MEASURE(1.0),#49);
#34=DIMENSIONAL_EXPONENTS(1.0,0.0,0.0,0.0,0.0,0.0,0.0);
#36=DIMENSIONAL_EXPONENTS(0.0,0.0,0.0,0.0,0.0,0.0,0.0);
#42=SURFACE_STYLE_USAGE(.BOTH.,#50);
#43=CLOSED_SHELL('',(#51,#52,#53,#54,#55,#56,#57,#58,#59,#60,#61,#62,#63,#64,#65,#66,#67,#68,#69,#70,#71,#72,#73,#74,#75,#76,#77,#78,#79,#80,#81,#82,#83,#84,#85,#86,#87,#88,#89,#90,#91,#92,#93,#94,#95,#96,#97,#98,#99,#100,#101,#102,#103,#104,#105,#106,#107,#108,#109,#110,#111,#112));
#44=PRODUCT_CONTEXT('',#11,'mechanical');
#45=PRODUCT_DEFINITION_FORMATION_WITH_SPECIFIED_SOURCE(' ','NONE',#26,.NOT_KNOWN.);
#46=CARTESIAN_POINT('',(0.0,0.0,0.0));
#47=DIRECTION('',(0.0,0.0,1.0));
#48=DIRECTION('',(1.0,0.0,0.0));
#49= (NAMED_UNIT(#34)LENGTH_UNIT()SI_UNIT(.MILLI.,.METRE.));
#50=SURFACE_SIDE_STYLE('',(#114));
#51=ADVANCED_FACE('',(#115),#116,.T.);
#52=ADVANCED_FACE('',(#117),#118,.T.);
#53=ADVANCED_FACE('',(#119),#120,.T.);
#54=ADVANCED_FACE('',(#121),#122,.T.);
#55=ADVANCED_FACE('',(#123),#124,.T.);
#56=ADVANCED_FACE('',(#125),#126,.T.);
#57=ADVANCED_FACE('',(#127),#128,.F.);
#58=ADVANCED_FACE('',(#129),#130,.F.);
#59=ADVANCED_FACE('',(#131),#132,.T.);
#60=ADVANCED_FACE('',(#133),#134,.F.);
#61=ADVANCED_FACE('',(#135),#136,.F.);
#62=ADVANCED_FACE('',(#137),#138,.T.);
#63=ADVANCED_FACE('',(#139),#140,.F.);
#64=ADVANCED_FACE('',(#141),#142,.F.);
#65=ADVANCED_FACE('',(#143),#144,.F.);
#66=ADVANCED_FACE('',(#145),#146,.F.);
#67=ADVANCED_FACE('',(#147),#148,.T.);
#68=ADVANCED_FACE('',(#149),#150,.F.);
#69=ADVANCED_FACE('',(#151),#152,.F.);
#70=ADVANCED_FACE('',(#153),#154,.F.);
#71=ADVANCED_FACE('',(#155),#156,.F.);
#72=ADVANCED_FACE('',(#157),#158,.F.);
#73=ADVANCED_FACE('',(#159),#160,.F.);
#74=ADVANCED_FACE('',(#161),#162,.F.);
#75=ADVANCED_FACE('',(#163),#164,.F.);
#76=ADVANCED_FACE('',(#165),#166,.F.);
#77=ADVANCED_FACE('',(#167),#168,.F.);
#78=ADVANCED_FACE('',(#169),#170,.F.);
#79=ADVANCED_FACE('',(#171),#172,.F.);
#80=ADVANCED_FACE('',(#173),#174,.F.);
#81=ADVANCED_FACE('',(#175,#176,#177),#178,.T.);
#82=ADVANCED_FACE('',(#179),#180,.F.);
#83=ADVANCED_FACE('',(#181),#182,.F.);
#84=ADVANCED_FACE('',(#183),#184,.F.);
#85=ADVANCED_FACE('',(#185),#186,.F.);
#86=ADVANCED_FACE('',(#187),#188,.F.);
#87=ADVANCED_FACE('',(#189),#190,.F.);
#88=ADVANCED_FACE('',(#191),#192,.F.);
#89=ADVANCED_FACE('',(#193),#194,.F.);
#90=ADVANCED_FACE('',(#195),#196,.F.);
#91=ADVANCED_FACE('',(#197),#198,.F.);
#92=ADVANCED_FACE('',(#199),#200,.F.);
#93=ADVANCED_FACE('',(#201),#202,.T.);
#94=ADVANCED_FACE('',(#203),#204,.T.);
#95=ADVANCED_FACE('',(#205,#206,#207),#208,.T.);
#96=ADVANCED_FACE('',(#209),#210,.T.);
#97=ADVANCED_FACE('',(#211),#212,.F.);
#98=ADVANCED_FACE('',(#213),#214,.T.);
#99=ADVANCED_FACE('',(#215),#216,.F.);
#100=ADVANCED_FACE('',(#217),#218,.T.);
#101=ADVANCED_FACE('',(#219),#220,.T.);
#102=ADVANCED_FACE('',(#221),#222,.F.);
#103=ADVANCED_FACE('',(#223),#224,.F.);
#104=ADVANCED_FACE('',(#225),#226,.T.);
#105=ADVANCED_FACE('',(#227),#228,.T.);
#106=ADVANCED_FACE('',(#229),#230,.T.);
#107=ADVANCED_FACE('',(#231),#232,.F.);
#108=ADVANCED_FACE('',(#233),#234,.F.);
#109=ADVANCED_FACE('',(#235),#236,.T.);
#110=ADVANCED_FACE('',(#237),#238,.T.);
#111=ADVANCED_FACE('',(#239),#240,.T.);
#112=ADVANCED_FACE('',(#241),#242,.F.);
#114=SURFACE_STYLE_FILL_AREA(#243);
#115=FACE_OUTER_BOUND('',#244,.T.);
#116=(B_SPLINE_SURFACE(3,3,((#246,#247,#248,#249,#250,#251,#252),(#253,#254,#255,#256,#257,#258,#259),(#260,#261,#262,#263,#264,#265,#266),(#267,#268,#269,#270,#271,#272,#273)),.UNSPECIFIED.,.F.,.T.,.F.)B_SPLINE_SURFACE_WITH_KNOTS((4,4),(4,3,4),(0.0,1.0),(0.0,0.5,1.0),.UNSPECIFIED.)RATIONAL_B_SPLINE_SURFACE(((1.0,0.333333333333333,0.333333333333333,1.0,0.333333333333333,0.333333333333333,1.0),(0.804737854124363,0.268245951374788,0.268245951374788,0.804737854124363,0.268245951374788,0.268245951374788,0.804737854124363),(0.804737854124363,0.268245951374788,0.268245951374788,0.804737854124363,0.268245951374788,0.268245951374788,0.804737854124363),(1.0,0.333333333333333,0.333333333333333,1.0,0.333333333333333,0.333333333333333,1.0)))BOUNDED_SURFACE()REPRESENTATION_ITEM('')GEOMETRIC_REPRESENTATION_ITEM()SURFACE());
#117=FACE_OUTER_BOUND('',#280,.T.);
#118=(B_SPLINE_SURFACE(3,3,((#282,#283,#284,#285,#286,#287,#288),(#289,#290,#291,#292,#293,#294,#295),(#296,#297,#298,#299,#300,#301,#302),(#303,#304,#305,#306,#307,#308,#309)),.UNSPECIFIED.,.F.,.T.,.F.)B_SPLINE_SURFACE_WITH_KNOTS((4,4),(4,3,4),(0.0,1.0),(0.0,0.5,1.0),.UNSPECIFIED.)RATIONAL_B_SPLINE_SURFACE(((1.0,0.333333333333333,0.333333333333333,1.0,0.333333333333333,0.333333333333333,1.0),(0.804737854124363,0.268245951374788,0.268245951374788,0.804737854124363,0.268245951374788,0.268245951374788,0.804737854124363),(0.804737854124363,0.268245951374788,0.268245951374788,0.804737854124363,0.268245951374788,0.268245951374788,0.804737854124363),(1.0,0.333333333333333,0.333333333333333,1.0,0.333333333333333,0.333333333333333,1.0)))BOUNDED_SURFACE()REPRESENTATION_ITEM('')GEOMETRIC_REPRESENTATION_ITEM()SURFACE());
#119=FACE_OUTER_BOUND('',#316,.T.);
#120=CYLINDRICAL_SURFACE('',#317,0.35);
#121=FACE_OUTER_BOUND('',#318,.T.);
#122=CYLINDRICAL_SURFACE('',#319,0.35);
#123=FACE_OUTER_BOUND('',#320,.T.);
#124=CYLINDRICAL_SURFACE('',#321,0.35);
#125=FACE_OUTER_BOUND('',#322,.T.);
#126=CYLINDRICAL_SURFACE('',#323,0.35);
#127=FACE_OUTER_BOUND('',#324,.T.);
#128=PLANE('',#325);
#129=FACE_OUTER_BOUND('',#326,.T.);
#130=PLANE('',#327);
#131=FACE_OUTER_BOUND('',#328,.T.);
#132=PLANE('',#329);
#133=FACE_OUTER_BOUND('',#330,.T.);
#134=PLANE('',#331);
#135=FACE_OUTER_BOUND('',#332,.T.);
#136=PLANE('',#333);
#137=FACE_OUTER_BOUND('',#334,.T.);
#138=PLANE('',#335);
#139=FACE_OUTER_BOUND('',#336,.T.);
#140=PLANE('',#337);
#141=FACE_OUTER_BOUND('',#338,.T.);
#142=PLANE('',#339);
#143=FACE_OUTER_BOUND('',#340,.T.);
#144=PLANE('',#341);
#145=FACE_OUTER_BOUND('',#342,.T.);
#146=PLANE('',#343);
#147=FACE_OUTER_BOUND('',#344,.T.);
#148=PLANE('',#345);
#149=FACE_OUTER_BOUND('',#346,.T.);
#150=PLANE('',#347);
#151=FACE_OUTER_BOUND('',#348,.T.);
#152=PLANE('',#349);
#153=FACE_OUTER_BOUND('',#350,.T.);
#154=PLANE('',#351);
#155=FACE_OUTER_BOUND('',#352,.T.);
#156=PLANE('',#353);
#157=FACE_OUTER_BOUND('',#354,.T.);
#158=PLANE('',#355);
#159=FACE_OUTER_BOUND('',#356,.T.);
#160=PLANE('',#357);
#161=FACE_OUTER_BOUND('',#358,.T.);
#162=PLANE('',#359);
#163=FACE_OUTER_BOUND('',#360,.T.);
#164=PLANE('',#361);
#165=FACE_OUTER_BOUND('',#362,.T.);
#166=PLANE('',#363);
#167=FACE_OUTER_BOUND('',#364,.T.);
#168=PLANE('',#365);
#169=FACE_OUTER_BOUND('',#366,.T.);
#170=PLANE('',#367);
#171=FACE_OUTER_BOUND('',#368,.T.);
#172=PLANE('',#369);
#173=FACE_OUTER_BOUND('',#370,.T.);
#174=PLANE('',#371);
#175=FACE_BOUND('',#372,.T.);
#176=FACE_BOUND('',#373,.T.);
#177=FACE_OUTER_BOUND('',#374,.T.);
#178=PLANE('',#375);
#179=FACE_OUTER_BOUND('',#376,.T.);
#180=PLANE('',#377);
#181=FACE_OUTER_BOUND('',#378,.T.);
#182=PLANE('',#379);
#183=FACE_OUTER_BOUND('',#380,.T.);
#184=PLANE('',#381);
#185=FACE_OUTER_BOUND('',#382,.T.);
#186=PLANE('',#383);
#187=FACE_OUTER_BOUND('',#384,.T.);
#188=PLANE('',#385);
#189=FACE_OUTER_BOUND('',#386,.T.);
#190=PLANE('',#387);
#191=FACE_OUTER_BOUND('',#388,.T.);
#192=PLANE('',#389);
#193=FACE_OUTER_BOUND('',#390,.T.);
#194=PLANE('',#391);
#195=FACE_OUTER_BOUND('',#392,.T.);
#196=PLANE('',#393);
#197=FACE_OUTER_BOUND('',#394,.T.);
#198=PLANE('',#395);
#199=FACE_OUTER_BOUND('',#396,.T.);
#200=PLANE('',#397);
#201=FACE_OUTER_BOUND('',#398,.T.);
#202=PLANE('',#399);
#203=FACE_OUTER_BOUND('',#400,.T.);
#204=PLANE('',#401);
#205=FACE_BOUND('',#402,.T.);
#206=FACE_BOUND('',#403,.T.);
#207=FACE_OUTER_BOUND('',#404,.T.);
#208=PLANE('',#405);
#209=FACE_OUTER_BOUND('',#406,.T.);
#210=PLANE('',#407);
#211=FACE_OUTER_BOUND('',#408,.T.);
#212=PLANE('',#409);
#213=FACE_OUTER_BOUND('',#410,.T.);
#214=PLANE('',#411);
#215=FACE_OUTER_BOUND('',#412,.T.);
#216=PLANE('',#413);
#217=FACE_OUTER_BOUND('',#414,.T.);
#218=PLANE('',#415);
#219=FACE_OUTER_BOUND('',#416,.T.);
#220=PLANE('',#417);
#221=FACE_OUTER_BOUND('',#418,.T.);
#222=PLANE('',#419);
#223=FACE_OUTER_BOUND('',#420,.T.);
#224=PLANE('',#421);
#225=FACE_OUTER_BOUND('',#422,.T.);
#226=(B_SPLINE_SURFACE(3,3,((#424,#425,#426,#427,#428,#429,#430),(#431,#432,#433,#434,#435,#436,#437),(#438,#439,#440,#441,#442,#443,#444),(#445,#446,#447,#448,#449,#450,#451)),.UNSPECIFIED.,.F.,.T.,.F.)B_SPLINE_SURFACE_WITH_KNOTS((4,4),(4,3,4),(0.0,1.0),(0.0,0.5,1.0),.UNSPECIFIED.)RATIONAL_B_SPLINE_SURFACE(((1.0,0.333333333333333,0.333333333333333,1.0,0.333333333333333,0.333333333333333,1.0),(0.804737854124363,0.268245951374788,0.268245951374788,0.804737854124363,0.268245951374788,0.268245951374788,0.804737854124363),(0.804737854124363,0.268245951374788,0.268245951374788,0.804737854124363,0.268245951374788,0.268245951374788,0.804737854124363),(1.0,0.333333333333333,0.333333333333333,1.0,0.333333333333333,0.333333333333333,1.0)))BOUNDED_SURFACE()REPRESENTATION_ITEM('')GEOMETRIC_REPRESENTATION_ITEM()SURFACE());
#227=FACE_OUTER_BOUND('',#458,.T.);
#228=CYLINDRICAL_SURFACE('',#459,0.35);
#229=FACE_OUTER_BOUND('',#460,.T.);
#230=CYLINDRICAL_SURFACE('',#461,0.35);
#231=FACE_OUTER_BOUND('',#462,.T.);
#232=PLANE('',#463);
#233=FACE_OUTER_BOUND('',#464,.T.);
#234=PLANE('',#465);
#235=FACE_OUTER_BOUND('',#466,.T.);
#236=(B_SPLINE_SURFACE(3,3,((#468,#469,#470,#471,#472,#473,#474),(#475,#476,#477,#478,#479,#480,#481),(#482,#483,#484,#485,#486,#487,#488),(#489,#490,#491,#492,#493,#494,#495)),.UNSPECIFIED.,.F.,.T.,.F.)B_SPLINE_SURFACE_WITH_KNOTS((4,4),(4,3,4),(0.0,1.0),(0.0,0.5,1.0),.UNSPECIFIED.)RATIONAL_B_SPLINE_SURFACE(((1.0,0.333333333333333,0.333333333333333,1.0,0.333333333333333,0.333333333333333,1.0),(0.804737854124363,0.268245951374788,0.268245951374788,0.804737854124363,0.268245951374788,0.268245951374788,0.804737854124363),(0.804737854124363,0.268245951374788,0.268245951374788,0.804737854124363,0.268245951374788,0.268245951374788,0.804737854124363),(1.0,0.333333333333333,0.333333333333333,1.0,0.333333333333333,0.333333333333333,1.0)))BOUNDED_SURFACE()REPRESENTATION_ITEM('')GEOMETRIC_REPRESENTATION_ITEM()SURFACE());
#237=FACE_OUTER_BOUND('',#502,.T.);
#238=CYLINDRICAL_SURFACE('',#503,0.35);
#239=FACE_OUTER_BOUND('',#504,.T.);
#240=CYLINDRICAL_SURFACE('',#505,0.35);
#241=FACE_OUTER_BOUND('',#506,.T.);
#242=PLANE('',#507);
#243=FILL_AREA_STYLE('',(#508));
#244=EDGE_LOOP('',(#509,#510,#511,#512));
#246=CARTESIAN_POINT('',(2.5,-0.14999999999999,12.6));
#247=CARTESIAN_POINT('',(2.8,-0.14999999999999,12.6));
#248=CARTESIAN_POINT('',(2.8,0.150000000000006,12.6));
#249=CARTESIAN_POINT('',(2.5,0.150000000000006,12.6));
#250=CARTESIAN_POINT('',(2.2,0.150000000000006,12.6));
#251=CARTESIAN_POINT('',(2.2,-0.14999999999999,12.6));
#252=CARTESIAN_POINT('',(2.5,-0.14999999999999,12.6));
#253=CARTESIAN_POINT('',(2.5,-0.267157287525372,12.6));
#254=CARTESIAN_POINT('',(3.03431457505076,-0.267157287525371,12.6));
#255=CARTESIAN_POINT('',(3.03431457505076,0.267157287525389,12.6));
#256=CARTESIAN_POINT('',(2.5,0.267157287525388,12.6));
#257=CARTESIAN_POINT('',(1.96568542494924,0.267157287525387,12.6));
#258=CARTESIAN_POINT('',(1.96568542494924,-0.267157287525373,12.6));
#259=CARTESIAN_POINT('',(2.5,-0.267157287525372,12.6));
#260=CARTESIAN_POINT('',(2.5,-0.349999999999991,12.5171572875254));
#261=CARTESIAN_POINT('',(3.2,-0.34999999999999,12.5171572875254));
#262=CARTESIAN_POINT('',(3.2,0.350000000000008,12.5171572875254));
#263=CARTESIAN_POINT('',(2.5,0.350000000000007,12.5171572875254));
#264=CARTESIAN_POINT('',(1.8,0.350000000000006,12.5171572875254));
#265=CARTESIAN_POINT('',(1.8,-0.349999999999992,12.5171572875254));
#266=CARTESIAN_POINT('',(2.5,-0.349999999999991,12.5171572875254));
#267=CARTESIAN_POINT('',(2.5,-0.34999999999999,12.4));
#268=CARTESIAN_POINT('',(3.2,-0.34999999999999,12.4));
#269=CARTESIAN_POINT('',(3.2,0.350000000000006,12.4));
#270=CARTESIAN_POINT('',(2.5,0.350000000000006,12.4));
#271=CARTESIAN_POINT('',(1.8,0.350000000000006,12.4));
#272=CARTESIAN_POINT('',(1.8,-0.34999999999999,12.4));
#273=CARTESIAN_POINT('',(2.5,-0.34999999999999,12.4));
#280=EDGE_LOOP('',(#513,#514,#515,#516));
#282=CARTESIAN_POINT('',(0.0,-0.14999999999999,12.6));
#283=CARTESIAN_POINT('',(0.299999999999997,-0.14999999999999,12.6));
#284=CARTESIAN_POINT('',(0.299999999999997,0.150000000000006,12.6));
#285=CARTESIAN_POINT('',(0.0,0.150000000000006,12.6));
#286=CARTESIAN_POINT('',(-0.299999999999997,0.150000000000006,12.6));
#287=CARTESIAN_POINT('',(-0.299999999999997,-0.14999999999999,12.6));
#288=CARTESIAN_POINT('',(0.0,-0.14999999999999,12.6));
#289=CARTESIAN_POINT('',(0.0,-0.267157287525372,12.6));
#290=CARTESIAN_POINT('',(0.53431457505076,-0.267157287525372,12.6));
#291=CARTESIAN_POINT('',(0.53431457505076,0.267157287525388,12.6));
#292=CARTESIAN_POINT('',(0.0,0.267157287525388,12.6));
#293=CARTESIAN_POINT('',(-0.53431457505076,0.267157287525388,12.6));
#294=CARTESIAN_POINT('',(-0.53431457505076,-0.267157287525372,12.6));
#295=CARTESIAN_POINT('',(0.0,-0.267157287525372,12.6));
#296=CARTESIAN_POINT('',(0.0,-0.349999999999991,12.5171572875254));
#297=CARTESIAN_POINT('',(0.699999999999998,-0.349999999999991,12.5171572875254));
#298=CARTESIAN_POINT('',(0.699999999999998,0.350000000000007,12.5171572875254));
#299=CARTESIAN_POINT('',(0.0,0.350000000000007,12.5171572875254));
#300=CARTESIAN_POINT('',(-0.699999999999998,0.350000000000007,12.5171572875254));
#301=CARTESIAN_POINT('',(-0.699999999999998,-0.349999999999991,12.5171572875254));
#302=CARTESIAN_POINT('',(0.0,-0.349999999999991,12.5171572875254));
#303=CARTESIAN_POINT('',(0.0,-0.34999999999999,12.4));
#304=CARTESIAN_POINT('',(0.699999999999996,-0.34999999999999,12.4));
#305=CARTESIAN_POINT('',(0.699999999999996,0.350000000000006,12.4));
#306=CARTESIAN_POINT('',(0.0,0.350000000000006,12.4));
#307=CARTESIAN_POINT('',(-0.699999999999996,0.350000000000006,12.4));
#308=CARTESIAN_POINT('',(-0.699999999999996,-0.34999999999999,12.4));
#309=CARTESIAN_POINT('',(0.0,-0.34999999999999,12.4));
#316=EDGE_LOOP('',(#517,#518,#519,#520));
#317=AXIS2_PLACEMENT_3D('',#521,#522,#523);
#318=EDGE_LOOP('',(#524,#525,#526,#527,#528));
#319=AXIS2_PLACEMENT_3D('',#529,#530,#531);
#320=EDGE_LOOP('',(#532,#533,#534,#535));
#321=AXIS2_PLACEMENT_3D('',#536,#537,#538);
#322=EDGE_LOOP('',(#539,#540,#541,#542,#543));
#323=AXIS2_PLACEMENT_3D('',#544,#545,#546);
#324=EDGE_LOOP('',(#547,#548,#549,#550,#551,#552,#553,#554));
#325=AXIS2_PLACEMENT_3D('',#555,#556,#557);
#326=EDGE_LOOP('',(#558,#559,#560,#561,#562,#563,#564,#565,#566,#567,#568,#569,#570));
#327=AXIS2_PLACEMENT_3D('',#571,#572,#573);
#328=EDGE_LOOP('',(#574,#575,#576,#577));
#329=AXIS2_PLACEMENT_3D('',#578,#579,#580);
#330=EDGE_LOOP('',(#581,#582,#583,#584,#585,#586,#587));
#331=AXIS2_PLACEMENT_3D('',#588,#589,#590);
#332=EDGE_LOOP('',(#591,#592,#593,#594,#595,#596));
#333=AXIS2_PLACEMENT_3D('',#597,#598,#599);
#334=EDGE_LOOP('',(#600,#601,#602,#603,#604,#605,#606,#607));
#335=AXIS2_PLACEMENT_3D('',#608,#609,#610);
#336=EDGE_LOOP('',(#611,#612,#613,#614,#615));
#337=AXIS2_PLACEMENT_3D('',#616,#617,#618);
#338=EDGE_LOOP('',(#619,#620,#621,#622,#623));
#339=AXIS2_PLACEMENT_3D('',#624,#625,#626);
#340=EDGE_LOOP('',(#627,#628,#629,#630,#631,#632,#633,#634));
#341=AXIS2_PLACEMENT_3D('',#635,#636,#637);
#342=EDGE_LOOP('',(#638,#639,#640,#641));
#343=AXIS2_PLACEMENT_3D('',#642,#643,#644);
#344=EDGE_LOOP('',(#645,#646,#647,#648));
#345=AXIS2_PLACEMENT_3D('',#649,#650,#651);
#346=EDGE_LOOP('',(#652,#653,#654,#655,#656));
#347=AXIS2_PLACEMENT_3D('',#657,#658,#659);
#348=EDGE_LOOP('',(#660,#661,#662,#663,#664,#665));
#349=AXIS2_PLACEMENT_3D('',#666,#667,#668);
#350=EDGE_LOOP('',(#669,#670,#671,#672,#673));
#351=AXIS2_PLACEMENT_3D('',#674,#675,#676);
#352=EDGE_LOOP('',(#677,#678,#679,#680,#681,#682,#683,#684,#685));
#353=AXIS2_PLACEMENT_3D('',#686,#687,#688);
#354=EDGE_LOOP('',(#689,#690,#691,#692,#693,#694,#695));
#355=AXIS2_PLACEMENT_3D('',#696,#697,#698);
#356=EDGE_LOOP('',(#699,#700,#701,#702,#703,#704));
#357=AXIS2_PLACEMENT_3D('',#705,#706,#707);
#358=EDGE_LOOP('',(#708,#709,#710,#711,#712));
#359=AXIS2_PLACEMENT_3D('',#713,#714,#715);
#360=EDGE_LOOP('',(#716,#717,#718,#719,#720));
#361=AXIS2_PLACEMENT_3D('',#721,#722,#723);
#362=EDGE_LOOP('',(#724,#725,#726,#727,#728,#729,#730));
#363=AXIS2_PLACEMENT_3D('',#731,#732,#733);
#364=EDGE_LOOP('',(#734,#735,#736,#737));
#365=AXIS2_PLACEMENT_3D('',#738,#739,#740);
#366=EDGE_LOOP('',(#741,#742,#743,#744));
#367=AXIS2_PLACEMENT_3D('',#745,#746,#747);
#368=EDGE_LOOP('',(#748,#749,#750,#751));
#369=AXIS2_PLACEMENT_3D('',#752,#753,#754);
#370=EDGE_LOOP('',(#755,#756,#757,#758,#759,#760,#761,#762));
#371=AXIS2_PLACEMENT_3D('',#763,#764,#765);
#372=EDGE_LOOP('',(#766,#767,#768));
#373=EDGE_LOOP('',(#769,#770,#771));
#374=EDGE_LOOP('',(#772,#773,#774,#775,#776,#777,#778,#779,#780,#781,#782,#783,#784));
#375=AXIS2_PLACEMENT_3D('',#785,#786,#787);
#376=EDGE_LOOP('',(#788,#789,#790,#791,#792,#793,#794,#795));
#377=AXIS2_PLACEMENT_3D('',#796,#797,#798);
#378=EDGE_LOOP('',(#799,#800,#801,#802));
#379=AXIS2_PLACEMENT_3D('',#803,#804,#805);
#380=EDGE_LOOP('',(#806,#807,#808,#809,#810));
#381=AXIS2_PLACEMENT_3D('',#811,#812,#813);
#382=EDGE_LOOP('',(#814,#815,#816,#817));
#383=AXIS2_PLACEMENT_3D('',#818,#819,#820);
#384=EDGE_LOOP('',(#821,#822,#823,#824));
#385=AXIS2_PLACEMENT_3D('',#825,#826,#827);
#386=EDGE_LOOP('',(#828,#829,#830,#831));
#387=AXIS2_PLACEMENT_3D('',#832,#833,#834);
#388=EDGE_LOOP('',(#835,#836,#837,#838));
#389=AXIS2_PLACEMENT_3D('',#839,#840,#841);
#390=EDGE_LOOP('',(#842,#843,#844,#845));
#391=AXIS2_PLACEMENT_3D('',#846,#847,#848);
#392=EDGE_LOOP('',(#849,#850,#851,#852));
#393=AXIS2_PLACEMENT_3D('',#853,#854,#855);
#394=EDGE_LOOP('',(#856,#857,#858,#859));
#395=AXIS2_PLACEMENT_3D('',#860,#861,#862);
#396=EDGE_LOOP('',(#863,#864,#865,#866,#867));
#397=AXIS2_PLACEMENT_3D('',#868,#869,#870);
#398=EDGE_LOOP('',(#871,#872,#873,#874));
#399=AXIS2_PLACEMENT_3D('',#875,#876,#877);
#400=EDGE_LOOP('',(#878,#879,#880,#881));
#401=AXIS2_PLACEMENT_3D('',#882,#883,#884);
#402=EDGE_LOOP('',(#885,#886,#887));
#403=EDGE_LOOP('',(#888,#889,#890));
#404=EDGE_LOOP('',(#891,#892,#893,#894,#895,#896,#897,#898,#899));
#405=AXIS2_PLACEMENT_3D('',#900,#901,#902);
#406=EDGE_LOOP('',(#903,#904,#905,#906));
#407=AXIS2_PLACEMENT_3D('',#907,#908,#909);
#408=EDGE_LOOP('',(#910,#911,#912));
#409=AXIS2_PLACEMENT_3D('',#913,#914,#915);
#410=EDGE_LOOP('',(#916,#917,#918));
#411=AXIS2_PLACEMENT_3D('',#919,#920,#921);
#412=EDGE_LOOP('',(#922,#923,#924,#925));
#413=AXIS2_PLACEMENT_3D('',#926,#927,#928);
#414=EDGE_LOOP('',(#929,#930,#931,#932));
#415=AXIS2_PLACEMENT_3D('',#933,#934,#935);
#416=EDGE_LOOP('',(#936,#937,#938,#939));
#417=AXIS2_PLACEMENT_3D('',#940,#941,#942);
#418=EDGE_LOOP('',(#943,#944,#945));
#419=AXIS2_PLACEMENT_3D('',#946,#947,#948);
#420=EDGE_LOOP('',(#949,#950));
#421=AXIS2_PLACEMENT_3D('',#951,#952,#953);
#422=EDGE_LOOP('',(#954,#955,#956,#957));
#424=CARTESIAN_POINT('',(0.0,-0.14999999999999,12.6));
#425=CARTESIAN_POINT('',(0.299999999999997,-0.14999999999999,12.6));
#426=CARTESIAN_POINT('',(0.299999999999997,0.150000000000006,12.6));
#427=CARTESIAN_POINT('',(0.0,0.150000000000006,12.6));
#428=CARTESIAN_POINT('',(-0.299999999999997,0.150000000000006,12.6));
#429=CARTESIAN_POINT('',(-0.299999999999997,-0.14999999999999,12.6));
#430=CARTESIAN_POINT('',(0.0,-0.14999999999999,12.6));
#431=CARTESIAN_POINT('',(0.0,-0.267157287525372,12.6));
#432=CARTESIAN_POINT('',(0.53431457505076,-0.267157287525372,12.6));
#433=CARTESIAN_POINT('',(0.53431457505076,0.267157287525388,12.6));
#434=CARTESIAN_POINT('',(0.0,0.267157287525388,12.6));
#435=CARTESIAN_POINT('',(-0.53431457505076,0.267157287525388,12.6));
#436=CARTESIAN_POINT('',(-0.53431457505076,-0.267157287525372,12.6));
#437=CARTESIAN_POINT('',(0.0,-0.267157287525372,12.6));
#438=CARTESIAN_POINT('',(0.0,-0.349999999999991,12.5171572875254));
#439=CARTESIAN_POINT('',(0.699999999999998,-0.349999999999991,12.5171572875254));
#440=CARTESIAN_POINT('',(0.699999999999998,0.350000000000007,12.5171572875254));
#441=CARTESIAN_POINT('',(0.0,0.350000000000007,12.5171572875254));
#442=CARTESIAN_POINT('',(-0.699999999999998,0.350000000000007,12.5171572875254));
#443=CARTESIAN_POINT('',(-0.699999999999998,-0.349999999999991,12.5171572875254));
#444=CARTESIAN_POINT('',(0.0,-0.349999999999991,12.5171572875254));
#445=CARTESIAN_POINT('',(0.0,-0.34999999999999,12.4));
#446=CARTESIAN_POINT('',(0.699999999999996,-0.34999999999999,12.4));
#447=CARTESIAN_POINT('',(0.699999999999996,0.350000000000006,12.4));
#448=CARTESIAN_POINT('',(0.0,0.350000000000006,12.4));
#449=CARTESIAN_POINT('',(-0.699999999999996,0.350000000000006,12.4));
#450=CARTESIAN_POINT('',(-0.699999999999996,-0.34999999999999,12.4));
#451=CARTESIAN_POINT('',(0.0,-0.34999999999999,12.4));
#458=EDGE_LOOP('',(#958,#959,#960,#961));
#459=AXIS2_PLACEMENT_3D('',#962,#963,#964);
#460=EDGE_LOOP('',(#965,#966,#967,#968,#969));
#461=AXIS2_PLACEMENT_3D('',#970,#971,#972);
#462=EDGE_LOOP('',(#973,#974));
#463=AXIS2_PLACEMENT_3D('',#975,#976,#977);
#464=EDGE_LOOP('',(#978,#979));
#465=AXIS2_PLACEMENT_3D('',#980,#981,#982);
#466=EDGE_LOOP('',(#983,#984,#985,#986));
#468=CARTESIAN_POINT('',(2.5,-0.14999999999999,12.6));
#469=CARTESIAN_POINT('',(2.8,-0.14999999999999,12.6));
#470=CARTESIAN_POINT('',(2.8,0.150000000000006,12.6));
#471=CARTESIAN_POINT('',(2.5,0.150000000000006,12.6));
#472=CARTESIAN_POINT('',(2.2,0.150000000000006,12.6));
#473=CARTESIAN_POINT('',(2.2,-0.14999999999999,12.6));
#474=CARTESIAN_POINT('',(2.5,-0.14999999999999,12.6));
#475=CARTESIAN_POINT('',(2.5,-0.267157287525372,12.6));
#476=CARTESIAN_POINT('',(3.03431457505076,-0.267157287525371,12.6));
#477=CARTESIAN_POINT('',(3.03431457505076,0.267157287525389,12.6));
#478=CARTESIAN_POINT('',(2.5,0.267157287525388,12.6));
#479=CARTESIAN_POINT('',(1.96568542494924,0.267157287525387,12.6));
#480=CARTESIAN_POINT('',(1.96568542494924,-0.267157287525373,12.6));
#481=CARTESIAN_POINT('',(2.5,-0.267157287525372,12.6));
#482=CARTESIAN_POINT('',(2.5,-0.349999999999991,12.5171572875254));
#483=CARTESIAN_POINT('',(3.2,-0.34999999999999,12.5171572875254));
#484=CARTESIAN_POINT('',(3.2,0.350000000000008,12.5171572875254));
#485=CARTESIAN_POINT('',(2.5,0.350000000000007,12.5171572875254));
#486=CARTESIAN_POINT('',(1.8,0.350000000000006,12.5171572875254));
#487=CARTESIAN_POINT('',(1.8,-0.349999999999992,12.5171572875254));
#488=CARTESIAN_POINT('',(2.5,-0.349999999999991,12.5171572875254));
#489=CARTESIAN_POINT('',(2.5,-0.34999999999999,12.4));
#490=CARTESIAN_POINT('',(3.2,-0.34999999999999,12.4));
#491=CARTESIAN_POINT('',(3.2,0.350000000000006,12.4));
#492=CARTESIAN_POINT('',(2.5,0.350000000000006,12.4));
#493=CARTESIAN_POINT('',(1.8,0.350000000000006,12.4));
#494=CARTESIAN_POINT('',(1.8,-0.34999999999999,12.4));
#495=CARTESIAN_POINT('',(2.5,-0.34999999999999,12.4));
#502=EDGE_LOOP('',(#987,#988,#989,#990));
#503=AXIS2_PLACEMENT_3D('',#991,#992,#993);
#504=EDGE_LOOP('',(#994,#995,#996,#997,#998));
#505=AXIS2_PLACEMENT_3D('',#999,#1000,#1001);
#506=EDGE_LOOP('',(#1002,#1003));
#507=AXIS2_PLACEMENT_3D('',#1004,#1005,#1006);
#508=FILL_AREA_STYLE_COLOUR('',#1007);
#509=ORIENTED_EDGE('',*,*,#1008,.F.);
#510=ORIENTED_EDGE('',*,*,#1009,.T.);
#511=ORIENTED_EDGE('',*,*,#1010,.T.);
#512=ORIENTED_EDGE('',*,*,#1011,.F.);
#513=ORIENTED_EDGE('',*,*,#1012,.F.);
#514=ORIENTED_EDGE('',*,*,#1013,.T.);
#515=ORIENTED_EDGE('',*,*,#1014,.T.);
#516=ORIENTED_EDGE('',*,*,#1015,.F.);
#517=ORIENTED_EDGE('',*,*,#1016,.F.);
#518=ORIENTED_EDGE('',*,*,#1017,.T.);
#519=ORIENTED_EDGE('',*,*,#1018,.F.);
#520=ORIENTED_EDGE('',*,*,#1019,.F.);
#521=CARTESIAN_POINT('',(2.5,9.67425899299638E-15,3.7));
#522=DIRECTION('',(0.0,0.0,-1.0));
#523=DIRECTION('',(0.0,-1.0,0.0));
#524=ORIENTED_EDGE('',*,*,#1020,.F.);
#525=ORIENTED_EDGE('',*,*,#1021,.F.);
#526=ORIENTED_EDGE('',*,*,#1022,.F.);
#527=ORIENTED_EDGE('',*,*,#1023,.F.);
#528=ORIENTED_EDGE('',*,*,#1009,.F.);
#529=CARTESIAN_POINT('',(2.5,9.67425899299638E-15,3.7));
#530=DIRECTION('',(0.0,0.0,-1.0));
#531=DIRECTION('',(0.0,-1.0,0.0));
#532=ORIENTED_EDGE('',*,*,#1024,.F.);
#533=ORIENTED_EDGE('',*,*,#1025,.T.);
#534=ORIENTED_EDGE('',*,*,#1026,.F.);
#535=ORIENTED_EDGE('',*,*,#1027,.F.);
#536=CARTESIAN_POINT('',(0.0,9.67425899299638E-15,3.7));
#537=DIRECTION('',(0.0,0.0,-1.0));
#538=DIRECTION('',(0.0,-1.0,0.0));
#539=ORIENTED_EDGE('',*,*,#1028,.F.);
#540=ORIENTED_EDGE('',*,*,#1029,.F.);
#541=ORIENTED_EDGE('',*,*,#1030,.F.);
#542=ORIENTED_EDGE('',*,*,#1031,.F.);
#543=ORIENTED_EDGE('',*,*,#1013,.F.);
#544=CARTESIAN_POINT('',(0.0,9.67425899299638E-15,3.7));
#545=DIRECTION('',(0.0,0.0,-1.0));
#546=DIRECTION('',(0.0,-1.0,0.0));
#547=ORIENTED_EDGE('',*,*,#1032,.F.);
#548=ORIENTED_EDGE('',*,*,#1033,.T.);
#549=ORIENTED_EDGE('',*,*,#1034,.T.);
#550=ORIENTED_EDGE('',*,*,#1035,.F.);
#551=ORIENTED_EDGE('',*,*,#1036,.F.);
#552=ORIENTED_EDGE('',*,*,#1037,.T.);
#553=ORIENTED_EDGE('',*,*,#1038,.T.);
#554=ORIENTED_EDGE('',*,*,#1039,.F.);
#555=CARTESIAN_POINT('',(-0.85,1.08,9.1));
#556=DIRECTION('',(-0.0,1.0,0.0));
#557=DIRECTION('',(1.0,0.0,0.0));
#558=ORIENTED_EDGE('',*,*,#1040,.F.);
#559=ORIENTED_EDGE('',*,*,#1041,.F.);
#560=ORIENTED_EDGE('',*,*,#1042,.F.);
#561=ORIENTED_EDGE('',*,*,#1043,.T.);
#562=ORIENTED_EDGE('',*,*,#1044,.F.);
#563=ORIENTED_EDGE('',*,*,#1045,.F.);
#564=ORIENTED_EDGE('',*,*,#1046,.F.);
#565=ORIENTED_EDGE('',*,*,#1047,.F.);
#566=ORIENTED_EDGE('',*,*,#1048,.F.);
#567=ORIENTED_EDGE('',*,*,#1049,.F.);
#568=ORIENTED_EDGE('',*,*,#1050,.F.);
#569=ORIENTED_EDGE('',*,*,#1051,.T.);
#570=ORIENTED_EDGE('',*,*,#1052,.T.);
#571=CARTESIAN_POINT('',(0.0,0.0,3.2));
#572=DIRECTION('',(0.0,0.0,1.0));
#573=DIRECTION('',(1.0,0.0,0.0));
#574=ORIENTED_EDGE('',*,*,#1053,.F.);
#575=ORIENTED_EDGE('',*,*,#1054,.T.);
#576=ORIENTED_EDGE('',*,*,#1055,.F.);
#577=ORIENTED_EDGE('',*,*,#1056,.F.);
#578=CARTESIAN_POINT('',(0.0,0.0,9.1));
#579=DIRECTION('',(0.0,0.0,1.0));
#580=DIRECTION('',(1.0,0.0,0.0));
#581=ORIENTED_EDGE('',*,*,#1057,.F.);
#582=ORIENTED_EDGE('',*,*,#1058,.F.);
#583=ORIENTED_EDGE('',*,*,#1059,.F.);
#584=ORIENTED_EDGE('',*,*,#1060,.F.);
#585=ORIENTED_EDGE('',*,*,#1061,.F.);
#586=ORIENTED_EDGE('',*,*,#1047,.T.);
#587=ORIENTED_EDGE('',*,*,#1062,.F.);
#588=CARTESIAN_POINT('',(4.95,-3.1,9.1));
#589=DIRECTION('',(-1.0,0.0,0.0));
#590=DIRECTION('',(0.0,0.0,1.0));
#591=ORIENTED_EDGE('',*,*,#1063,.F.);
#592=ORIENTED_EDGE('',*,*,#1062,.T.);
#593=ORIENTED_EDGE('',*,*,#1046,.T.);
#594=ORIENTED_EDGE('',*,*,#1064,.T.);
#595=ORIENTED_EDGE('',*,*,#1065,.F.);
#596=ORIENTED_EDGE('',*,*,#1066,.F.);
#597=CARTESIAN_POINT('',(4.95,0.540660171779818,9.1));
#598=DIRECTION('',(-0.707106781186548,-0.707106781186548,0.0));
#599=DIRECTION('',(-0.707106781186548,0.707106781186548,0.0));
#600=ORIENTED_EDGE('',*,*,#1055,.T.);
#601=ORIENTED_EDGE('',*,*,#1067,.T.);
#602=ORIENTED_EDGE('',*,*,#1068,.T.);
#603=ORIENTED_EDGE('',*,*,#1069,.F.);
#604=ORIENTED_EDGE('',*,*,#1070,.T.);
#605=ORIENTED_EDGE('',*,*,#1071,.F.);
#606=ORIENTED_EDGE('',*,*,#1072,.T.);
#607=ORIENTED_EDGE('',*,*,#1073,.T.);
#608=CARTESIAN_POINT('',(-1.75,1.65858940218612E-16,0.0));
#609=DIRECTION('',(-1.0,0.0,0.0));
#610=DIRECTION('',(0.0,0.0,1.0));
#611=ORIENTED_EDGE('',*,*,#1074,.F.);
#612=ORIENTED_EDGE('',*,*,#1075,.T.);
#613=ORIENTED_EDGE('',*,*,#1076,.T.);
#614=ORIENTED_EDGE('',*,*,#1077,.F.);
#615=ORIENTED_EDGE('',*,*,#1069,.T.);
#616=CARTESIAN_POINT('',(-1.75,-0.38,9.1));
#617=DIRECTION('',(-2.36941343169445E-16,1.0,-8.85062997947351E-17));
#618=DIRECTION('',(1.0,2.36941343169445E-16,0.0));
#619=ORIENTED_EDGE('',*,*,#1078,.F.);
#620=ORIENTED_EDGE('',*,*,#1079,.T.);
#621=ORIENTED_EDGE('',*,*,#1080,.F.);
#622=ORIENTED_EDGE('',*,*,#1081,.F.);
#623=ORIENTED_EDGE('',*,*,#1058,.T.);
#624=CARTESIAN_POINT('',(4.25,-0.379999999999994,4.2));
#625=DIRECTION('',(-4.00588754492636E-16,1.0,-8.85062997947351E-17));
#626=DIRECTION('',(1.0,4.00588754492636E-16,0.0));
#627=ORIENTED_EDGE('',*,*,#1082,.F.);
#628=ORIENTED_EDGE('',*,*,#1053,.T.);
#629=ORIENTED_EDGE('',*,*,#1083,.T.);
#630=ORIENTED_EDGE('',*,*,#1084,.T.);
#631=ORIENTED_EDGE('',*,*,#1085,.F.);
#632=ORIENTED_EDGE('',*,*,#1086,.T.);
#633=ORIENTED_EDGE('',*,*,#1079,.F.);
#634=ORIENTED_EDGE('',*,*,#1087,.F.);
#635=CARTESIAN_POINT('',(4.25,-2.80412128144845E-16,0.0));
#636=DIRECTION('',(-1.0,0.0,0.0));
#637=DIRECTION('',(0.0,0.0,1.0));
#638=ORIENTED_EDGE('',*,*,#1083,.F.);
#639=ORIENTED_EDGE('',*,*,#1056,.T.);
#640=ORIENTED_EDGE('',*,*,#1073,.F.);
#641=ORIENTED_EDGE('',*,*,#1088,.T.);
#642=CARTESIAN_POINT('',(70.8100000000001,-2.09999999999998,9.1));
#643=DIRECTION('',(-2.36941343169445E-16,1.0,0.0));
#644=DIRECTION('',(1.0,2.36941343169445E-16,-0.0));
#645=ORIENTED_EDGE('',*,*,#1089,.F.);
#646=ORIENTED_EDGE('',*,*,#1065,.T.);
#647=ORIENTED_EDGE('',*,*,#1090,.T.);
#648=ORIENTED_EDGE('',*,*,#1091,.T.);
#649=CARTESIAN_POINT('',(0.0,0.0,9.1));
#650=DIRECTION('',(0.0,0.0,1.0));
#651=DIRECTION('',(1.0,0.0,0.0));
#652=ORIENTED_EDGE('',*,*,#1092,.F.);
#653=ORIENTED_EDGE('',*,*,#1093,.F.);
#654=ORIENTED_EDGE('',*,*,#1094,.F.);
#655=ORIENTED_EDGE('',*,*,#1095,.T.);
#656=ORIENTED_EDGE('',*,*,#1096,.T.);
#657=CARTESIAN_POINT('',(4.95,-3.1,9.1));
#658=DIRECTION('',(-1.0,0.0,0.0));
#659=DIRECTION('',(0.0,0.0,1.0));
#660=ORIENTED_EDGE('',*,*,#1097,.T.);
#661=ORIENTED_EDGE('',*,*,#1098,.T.);
#662=ORIENTED_EDGE('',*,*,#1099,.T.);
#663=ORIENTED_EDGE('',*,*,#1100,.T.);
#664=ORIENTED_EDGE('',*,*,#1101,.F.);
#665=ORIENTED_EDGE('',*,*,#1102,.T.);
#666=CARTESIAN_POINT('',(4.25,0.18,9.1));
#667=DIRECTION('',(1.0,0.0,0.0));
#668=DIRECTION('',(0.0,1.0,0.0));
#669=ORIENTED_EDGE('',*,*,#1103,.F.);
#670=ORIENTED_EDGE('',*,*,#1104,.T.);
#671=ORIENTED_EDGE('',*,*,#1105,.F.);
#672=ORIENTED_EDGE('',*,*,#1106,.F.);
#673=ORIENTED_EDGE('',*,*,#1107,.F.);
#674=CARTESIAN_POINT('',(-2.45,1.8,9.1));
#675=DIRECTION('',(1.0,2.65518899384205E-16,0.0));
#676=DIRECTION('',(-2.65518899384205E-16,1.0,0.0));
#677=ORIENTED_EDGE('',*,*,#1108,.T.);
#678=ORIENTED_EDGE('',*,*,#1109,.T.);
#679=ORIENTED_EDGE('',*,*,#1091,.F.);
#680=ORIENTED_EDGE('',*,*,#1110,.T.);
#681=ORIENTED_EDGE('',*,*,#1044,.T.);
#682=ORIENTED_EDGE('',*,*,#1111,.F.);
#683=ORIENTED_EDGE('',*,*,#1112,.F.);
#684=ORIENTED_EDGE('',*,*,#1113,.F.);
#685=ORIENTED_EDGE('',*,*,#1075,.F.);
#686=CARTESIAN_POINT('',(-2.45,1.8,9.1));
#687=DIRECTION('',(1.0,2.65518899384205E-16,0.0));
#688=DIRECTION('',(-2.65518899384205E-16,1.0,0.0));
#689=ORIENTED_EDGE('',*,*,#1114,.T.);
#690=ORIENTED_EDGE('',*,*,#1115,.T.);
#691=ORIENTED_EDGE('',*,*,#1042,.T.);
#692=ORIENTED_EDGE('',*,*,#1116,.F.);
#693=ORIENTED_EDGE('',*,*,#1117,.T.);
#694=ORIENTED_EDGE('',*,*,#1077,.T.);
#695=ORIENTED_EDGE('',*,*,#1118,.T.);
#696=CARTESIAN_POINT('',(-1.75,-2.38,9.1));
#697=DIRECTION('',(-1.0,-8.47032947254301E-17,0.0));
#698=DIRECTION('',(-8.47032947254301E-17,1.0,0.0));
#699=ORIENTED_EDGE('',*,*,#1119,.T.);
#700=ORIENTED_EDGE('',*,*,#1120,.T.);
#701=ORIENTED_EDGE('',*,*,#1121,.T.);
#702=ORIENTED_EDGE('',*,*,#1122,.T.);
#703=ORIENTED_EDGE('',*,*,#1123,.T.);
#704=ORIENTED_EDGE('',*,*,#1124,.T.);
#705=CARTESIAN_POINT('',(-1.75,-2.38,9.1));
#706=DIRECTION('',(-1.0,-8.47032947254301E-17,0.0));
#707=DIRECTION('',(-8.47032947254301E-17,1.0,0.0));
#708=ORIENTED_EDGE('',*,*,#1034,.F.);
#709=ORIENTED_EDGE('',*,*,#1125,.T.);
#710=ORIENTED_EDGE('',*,*,#1116,.T.);
#711=ORIENTED_EDGE('',*,*,#1041,.T.);
#712=ORIENTED_EDGE('',*,*,#1126,.F.);
#713=CARTESIAN_POINT('',(-1.75,0.18,9.1));
#714=DIRECTION('',(-0.707106781186548,0.707106781186547,0.0));
#715=DIRECTION('',(0.0,0.0,1.0));
#716=ORIENTED_EDGE('',*,*,#1127,.F.);
#717=ORIENTED_EDGE('',*,*,#1128,.T.);
#718=ORIENTED_EDGE('',*,*,#1036,.T.);
#719=ORIENTED_EDGE('',*,*,#1129,.T.);
#720=ORIENTED_EDGE('',*,*,#1050,.T.);
#721=CARTESIAN_POINT('',(3.35,1.08,9.1));
#722=DIRECTION('',(0.707106781186548,0.707106781186547,0.0));
#723=DIRECTION('',(0.0,0.0,-1.0));
#724=ORIENTED_EDGE('',*,*,#1130,.T.);
#725=ORIENTED_EDGE('',*,*,#1080,.T.);
#726=ORIENTED_EDGE('',*,*,#1131,.T.);
#727=ORIENTED_EDGE('',*,*,#1127,.T.);
#728=ORIENTED_EDGE('',*,*,#1049,.T.);
#729=ORIENTED_EDGE('',*,*,#1132,.T.);
#730=ORIENTED_EDGE('',*,*,#1133,.T.);
#731=CARTESIAN_POINT('',(4.25,0.18,9.1));
#732=DIRECTION('',(1.0,0.0,0.0));
#733=DIRECTION('',(0.0,1.0,0.0));
#734=ORIENTED_EDGE('',*,*,#1095,.F.);
#735=ORIENTED_EDGE('',*,*,#1134,.T.);
#736=ORIENTED_EDGE('',*,*,#1105,.T.);
#737=ORIENTED_EDGE('',*,*,#1135,.T.);
#738=CARTESIAN_POINT('',(-2.45,-3.1,9.1));
#739=DIRECTION('',(-4.68844182696434E-16,1.0,0.0));
#740=DIRECTION('',(1.0,4.68844182696434E-16,-0.0));
#741=ORIENTED_EDGE('',*,*,#1045,.T.);
#742=ORIENTED_EDGE('',*,*,#1110,.F.);
#743=ORIENTED_EDGE('',*,*,#1090,.F.);
#744=ORIENTED_EDGE('',*,*,#1064,.F.);
#745=CARTESIAN_POINT('',(3.69066017177982,1.8,9.1));
#746=DIRECTION('',(-7.06244698228436E-17,-1.0,0.0));
#747=DIRECTION('',(-1.0,7.06244698228436E-17,0.0));
#748=ORIENTED_EDGE('',*,*,#1101,.T.);
#749=ORIENTED_EDGE('',*,*,#1136,.T.);
#750=ORIENTED_EDGE('',*,*,#1119,.F.);
#751=ORIENTED_EDGE('',*,*,#1137,.T.);
#752=CARTESIAN_POINT('',(4.25,-2.38,9.1));
#753=DIRECTION('',(7.2280144832367E-17,-1.0,0.0));
#754=DIRECTION('',(0.0,0.0,-1.0));
#755=ORIENTED_EDGE('',*,*,#1138,.F.);
#756=ORIENTED_EDGE('',*,*,#1121,.F.);
#757=ORIENTED_EDGE('',*,*,#1139,.T.);
#758=ORIENTED_EDGE('',*,*,#1099,.F.);
#759=ORIENTED_EDGE('',*,*,#1140,.T.);
#760=ORIENTED_EDGE('',*,*,#1096,.F.);
#761=ORIENTED_EDGE('',*,*,#1135,.F.);
#762=ORIENTED_EDGE('',*,*,#1104,.F.);
#763=CARTESIAN_POINT('',(0.0,0.0,3.2));
#764=DIRECTION('',(0.0,0.0,1.0));
#765=DIRECTION('',(1.0,0.0,0.0));
#766=ORIENTED_EDGE('',*,*,#1141,.T.);
#767=ORIENTED_EDGE('',*,*,#1019,.T.);
#768=ORIENTED_EDGE('',*,*,#1142,.T.);
#769=ORIENTED_EDGE('',*,*,#1143,.T.);
#770=ORIENTED_EDGE('',*,*,#1027,.T.);
#771=ORIENTED_EDGE('',*,*,#1144,.T.);
#772=ORIENTED_EDGE('',*,*,#1145,.F.);
#773=ORIENTED_EDGE('',*,*,#1146,.F.);
#774=ORIENTED_EDGE('',*,*,#1037,.F.);
#775=ORIENTED_EDGE('',*,*,#1128,.F.);
#776=ORIENTED_EDGE('',*,*,#1131,.F.);
#777=ORIENTED_EDGE('',*,*,#1086,.F.);
#778=ORIENTED_EDGE('',*,*,#1102,.F.);
#779=ORIENTED_EDGE('',*,*,#1137,.F.);
#780=ORIENTED_EDGE('',*,*,#1124,.F.);
#781=ORIENTED_EDGE('',*,*,#1070,.F.);
#782=ORIENTED_EDGE('',*,*,#1117,.F.);
#783=ORIENTED_EDGE('',*,*,#1125,.F.);
#784=ORIENTED_EDGE('',*,*,#1033,.F.);
#785=CARTESIAN_POINT('',(0.0,0.0,7.2));
#786=DIRECTION('',(0.0,0.0,-1.0));
#787=DIRECTION('',(0.0,-1.0,0.0));
#788=ORIENTED_EDGE('',*,*,#1094,.T.);
#789=ORIENTED_EDGE('',*,*,#1147,.F.);
#790=ORIENTED_EDGE('',*,*,#1084,.F.);
#791=ORIENTED_EDGE('',*,*,#1088,.F.);
#792=ORIENTED_EDGE('',*,*,#1072,.F.);
#793=ORIENTED_EDGE('',*,*,#1148,.T.);
#794=ORIENTED_EDGE('',*,*,#1106,.T.);
#795=ORIENTED_EDGE('',*,*,#1134,.F.);
#796=CARTESIAN_POINT('',(70.8100000000001,-2.09999999999998,8.1));
#797=DIRECTION('',(0.0,0.0,-1.0));
#798=DIRECTION('',(0.0,-1.0,0.0));
#799=ORIENTED_EDGE('',*,*,#1103,.T.);
#800=ORIENTED_EDGE('',*,*,#1149,.T.);
#801=ORIENTED_EDGE('',*,*,#1122,.F.);
#802=ORIENTED_EDGE('',*,*,#1138,.T.);
#803=CARTESIAN_POINT('',(-1.75,-2.38,3.2));
#804=DIRECTION('',(1.67542830498564E-16,-0.707106781186547,0.707106781186548));
#805=DIRECTION('',(-1.0,-2.36941343169446E-16,0.0));
#806=ORIENTED_EDGE('',*,*,#1107,.T.);
#807=ORIENTED_EDGE('',*,*,#1148,.F.);
#808=ORIENTED_EDGE('',*,*,#1071,.T.);
#809=ORIENTED_EDGE('',*,*,#1123,.F.);
#810=ORIENTED_EDGE('',*,*,#1149,.F.);
#811=CARTESIAN_POINT('',(-1.75,-1.88,3.7));
#812=DIRECTION('',(2.36941343169445E-16,-1.0,9.85638338623186E-17));
#813=DIRECTION('',(0.0,-9.85638338623186E-17,-1.0));
#814=ORIENTED_EDGE('',*,*,#1113,.T.);
#815=ORIENTED_EDGE('',*,*,#1150,.T.);
#816=ORIENTED_EDGE('',*,*,#1118,.F.);
#817=ORIENTED_EDGE('',*,*,#1076,.F.);
#818=CARTESIAN_POINT('',(-1.75,-0.38,4.2));
#819=DIRECTION('',(0.0,0.0,-1.0));
#820=DIRECTION('',(0.0,-1.0,0.0));
#821=ORIENTED_EDGE('',*,*,#1112,.T.);
#822=ORIENTED_EDGE('',*,*,#1151,.T.);
#823=ORIENTED_EDGE('',*,*,#1114,.F.);
#824=ORIENTED_EDGE('',*,*,#1150,.F.);
#825=CARTESIAN_POINT('',(-1.75,-1.08,4.2));
#826=DIRECTION('',(-2.36941343169445E-16,1.0,0.0));
#827=DIRECTION('',(1.0,2.36941343169445E-16,-0.0));
#828=ORIENTED_EDGE('',*,*,#1111,.T.);
#829=ORIENTED_EDGE('',*,*,#1043,.F.);
#830=ORIENTED_EDGE('',*,*,#1115,.F.);
#831=ORIENTED_EDGE('',*,*,#1151,.F.);
#832=CARTESIAN_POINT('',(-1.75,-1.08,3.7));
#833=DIRECTION('',(-1.67542830498564E-16,0.707106781186548,0.707106781186547));
#834=DIRECTION('',(1.0,0.0,2.36941343169446E-16));
#835=ORIENTED_EDGE('',*,*,#1092,.T.);
#836=ORIENTED_EDGE('',*,*,#1140,.F.);
#837=ORIENTED_EDGE('',*,*,#1098,.F.);
#838=ORIENTED_EDGE('',*,*,#1152,.F.);
#839=CARTESIAN_POINT('',(4.25,-1.88,3.7));
#840=DIRECTION('',(2.83259024768816E-16,-0.707106781186548,0.707106781186547));
#841=DIRECTION('',(-1.0,-4.00588754492636E-16,0.0));
#842=ORIENTED_EDGE('',*,*,#1061,.T.);
#843=ORIENTED_EDGE('',*,*,#1153,.T.);
#844=ORIENTED_EDGE('',*,*,#1132,.F.);
#845=ORIENTED_EDGE('',*,*,#1048,.T.);
#846=CARTESIAN_POINT('',(4.25,-0.579999999999995,3.2));
#847=DIRECTION('',(-2.83259024768816E-16,0.707106781186548,0.707106781186547));
#848=DIRECTION('',(1.0,0.0,4.00588754492636E-16));
#849=ORIENTED_EDGE('',*,*,#1060,.T.);
#850=ORIENTED_EDGE('',*,*,#1154,.T.);
#851=ORIENTED_EDGE('',*,*,#1133,.F.);
#852=ORIENTED_EDGE('',*,*,#1153,.F.);
#853=CARTESIAN_POINT('',(4.25,-1.07999999999999,3.7));
#854=DIRECTION('',(-4.00588754492636E-16,1.0,0.0));
#855=DIRECTION('',(1.0,4.00588754492636E-16,-0.0));
#856=ORIENTED_EDGE('',*,*,#1059,.T.);
#857=ORIENTED_EDGE('',*,*,#1081,.T.);
#858=ORIENTED_EDGE('',*,*,#1130,.F.);
#859=ORIENTED_EDGE('',*,*,#1154,.F.);
#860=CARTESIAN_POINT('',(4.25,-1.07999999999999,4.2));
#861=DIRECTION('',(0.0,0.0,-1.0));
#862=DIRECTION('',(0.0,-1.0,0.0));
#863=ORIENTED_EDGE('',*,*,#1093,.T.);
#864=ORIENTED_EDGE('',*,*,#1152,.T.);
#865=ORIENTED_EDGE('',*,*,#1097,.F.);
#866=ORIENTED_EDGE('',*,*,#1085,.T.);
#867=ORIENTED_EDGE('',*,*,#1147,.T.);
#868=CARTESIAN_POINT('',(4.25,-1.87999999999999,8.1));
#869=DIRECTION('',(4.00588754492636E-16,-1.0,1.97127667724637E-16));
#870=DIRECTION('',(0.0,-1.97127667724637E-16,-1.0));
#871=ORIENTED_EDGE('',*,*,#1066,.T.);
#872=ORIENTED_EDGE('',*,*,#1089,.T.);
#873=ORIENTED_EDGE('',*,*,#1109,.F.);
#874=ORIENTED_EDGE('',*,*,#1155,.T.);
#875=CARTESIAN_POINT('',(4.95,0.95,9.0));
#876=DIRECTION('',(0.0,-1.0,-1.08420217248551E-15));
#877=DIRECTION('',(0.0,1.08420217248551E-15,-1.0));
#878=ORIENTED_EDGE('',*,*,#1054,.F.);
#879=ORIENTED_EDGE('',*,*,#1082,.T.);
#880=ORIENTED_EDGE('',*,*,#1156,.F.);
#881=ORIENTED_EDGE('',*,*,#1067,.F.);
#882=CARTESIAN_POINT('',(4.95,-1.25,9.1));
#883=DIRECTION('',(-0.0,1.0,0.0));
#884=DIRECTION('',(1.0,0.0,0.0));
#885=ORIENTED_EDGE('',*,*,#1021,.T.);
#886=ORIENTED_EDGE('',*,*,#1157,.T.);
#887=ORIENTED_EDGE('',*,*,#1022,.T.);
#888=ORIENTED_EDGE('',*,*,#1029,.T.);
#889=ORIENTED_EDGE('',*,*,#1158,.T.);
#890=ORIENTED_EDGE('',*,*,#1030,.T.);
#891=ORIENTED_EDGE('',*,*,#1063,.T.);
#892=ORIENTED_EDGE('',*,*,#1155,.F.);
#893=ORIENTED_EDGE('',*,*,#1108,.F.);
#894=ORIENTED_EDGE('',*,*,#1074,.T.);
#895=ORIENTED_EDGE('',*,*,#1068,.F.);
#896=ORIENTED_EDGE('',*,*,#1156,.T.);
#897=ORIENTED_EDGE('',*,*,#1087,.T.);
#898=ORIENTED_EDGE('',*,*,#1078,.T.);
#899=ORIENTED_EDGE('',*,*,#1057,.T.);
#900=CARTESIAN_POINT('',(4.95,-1.25,9.0));
#901=DIRECTION('',(0.0,0.0,1.0));
#902=DIRECTION('',(1.0,0.0,0.0));
#903=ORIENTED_EDGE('',*,*,#1159,.T.);
#904=ORIENTED_EDGE('',*,*,#1052,.F.);
#905=ORIENTED_EDGE('',*,*,#1160,.F.);
#906=ORIENTED_EDGE('',*,*,#1035,.T.);
#907=CARTESIAN_POINT('',(3.35,1.38,3.2));
#908=DIRECTION('',(0.0,-0.707106781186547,-0.707106781186548));
#909=DIRECTION('',(0.0,-0.707106781186548,0.707106781186547));
#910=ORIENTED_EDGE('',*,*,#1129,.F.);
#911=ORIENTED_EDGE('',*,*,#1160,.T.);
#912=ORIENTED_EDGE('',*,*,#1051,.F.);
#913=CARTESIAN_POINT('',(3.35,0.0,0.0));
#914=DIRECTION('',(1.0,0.0,0.0));
#915=DIRECTION('',(0.0,1.0,0.0));
#916=ORIENTED_EDGE('',*,*,#1126,.T.);
#917=ORIENTED_EDGE('',*,*,#1040,.T.);
#918=ORIENTED_EDGE('',*,*,#1159,.F.);
#919=CARTESIAN_POINT('',(-0.85,0.0,0.0));
#920=DIRECTION('',(1.0,0.0,0.0));
#921=DIRECTION('',(0.0,1.0,0.0));
#922=ORIENTED_EDGE('',*,*,#1100,.F.);
#923=ORIENTED_EDGE('',*,*,#1139,.F.);
#924=ORIENTED_EDGE('',*,*,#1120,.F.);
#925=ORIENTED_EDGE('',*,*,#1136,.F.);
#926=CARTESIAN_POINT('',(4.25,-2.38,3.5));
#927=DIRECTION('',(5.11097805561124E-17,-0.707106781186547,0.707106781186548));
#928=DIRECTION('',(-1.0,-7.22801448323669E-17,0.0));
#929=ORIENTED_EDGE('',*,*,#1161,.F.);
#930=ORIENTED_EDGE('',*,*,#1162,.F.);
#931=ORIENTED_EDGE('',*,*,#1145,.T.);
#932=ORIENTED_EDGE('',*,*,#1032,.T.);
#933=CARTESIAN_POINT('',(1.25,0.629999999999999,7.2));
#934=DIRECTION('',(-0.72701315254982,-0.686623532963713,0.0));
#935=DIRECTION('',(-0.686623532963713,0.72701315254982,0.0));
#936=ORIENTED_EDGE('',*,*,#1163,.F.);
#937=ORIENTED_EDGE('',*,*,#1038,.F.);
#938=ORIENTED_EDGE('',*,*,#1146,.T.);
#939=ORIENTED_EDGE('',*,*,#1162,.T.);
#940=CARTESIAN_POINT('',(1.675,1.08,7.2));
#941=DIRECTION('',(0.727013152549819,-0.686623532963714,0.0));
#942=DIRECTION('',(0.0,0.0,-1.0));
#943=ORIENTED_EDGE('',*,*,#1161,.T.);
#944=ORIENTED_EDGE('',*,*,#1039,.T.);
#945=ORIENTED_EDGE('',*,*,#1163,.T.);
#946=CARTESIAN_POINT('',(0.0,0.0,3.7));
#947=DIRECTION('',(0.0,0.0,1.0));
#948=DIRECTION('',(1.0,0.0,0.0));
#949=ORIENTED_EDGE('',*,*,#1015,.T.);
#950=ORIENTED_EDGE('',*,*,#1164,.T.);
#951=CARTESIAN_POINT('',(0.0,0.150000000000006,12.6));
#952=DIRECTION('',(0.0,1.76363023958735E-16,-1.0));
#953=DIRECTION('',(-1.0,0.0,0.0));
#954=ORIENTED_EDGE('',*,*,#1012,.T.);
#955=ORIENTED_EDGE('',*,*,#1164,.F.);
#956=ORIENTED_EDGE('',*,*,#1014,.F.);
#957=ORIENTED_EDGE('',*,*,#1165,.T.);
#958=ORIENTED_EDGE('',*,*,#1028,.T.);
#959=ORIENTED_EDGE('',*,*,#1165,.F.);
#960=ORIENTED_EDGE('',*,*,#1031,.T.);
#961=ORIENTED_EDGE('',*,*,#1158,.F.);
#962=CARTESIAN_POINT('',(0.0,9.67425899299638E-15,3.7));
#963=DIRECTION('',(0.0,0.0,-1.0));
#964=DIRECTION('',(0.0,-1.0,0.0));
#965=ORIENTED_EDGE('',*,*,#1024,.T.);
#966=ORIENTED_EDGE('',*,*,#1143,.F.);
#967=ORIENTED_EDGE('',*,*,#1144,.F.);
#968=ORIENTED_EDGE('',*,*,#1026,.T.);
#969=ORIENTED_EDGE('',*,*,#1166,.T.);
#970=CARTESIAN_POINT('',(0.0,9.67425899299638E-15,3.7));
#971=DIRECTION('',(0.0,0.0,-1.0));
#972=DIRECTION('',(0.0,-1.0,0.0));
#973=ORIENTED_EDGE('',*,*,#1025,.F.);
#974=ORIENTED_EDGE('',*,*,#1166,.F.);
#975=CARTESIAN_POINT('',(0.0,9.65894031423886E-15,3.7));
#976=DIRECTION('',(0.0,-1.76363023958735E-16,1.0));
#977=DIRECTION('',(0.0,-1.0,-1.76363023958735E-16));
#978=ORIENTED_EDGE('',*,*,#1011,.T.);
#979=ORIENTED_EDGE('',*,*,#1167,.T.);
#980=CARTESIAN_POINT('',(2.5,0.150000000000006,12.6));
#981=DIRECTION('',(0.0,1.76363023958735E-16,-1.0));
#982=DIRECTION('',(-1.0,0.0,0.0));
#983=ORIENTED_EDGE('',*,*,#1008,.T.);
#984=ORIENTED_EDGE('',*,*,#1167,.F.);
#985=ORIENTED_EDGE('',*,*,#1010,.F.);
#986=ORIENTED_EDGE('',*,*,#1168,.T.);
#987=ORIENTED_EDGE('',*,*,#1020,.T.);
#988=ORIENTED_EDGE('',*,*,#1168,.F.);
#989=ORIENTED_EDGE('',*,*,#1023,.T.);
#990=ORIENTED_EDGE('',*,*,#1157,.F.);
#991=CARTESIAN_POINT('',(2.5,9.67425899299638E-15,3.7));
#992=DIRECTION('',(0.0,0.0,-1.0));
#993=DIRECTION('',(0.0,-1.0,0.0));
#994=ORIENTED_EDGE('',*,*,#1016,.T.);
#995=ORIENTED_EDGE('',*,*,#1141,.F.);
#996=ORIENTED_EDGE('',*,*,#1142,.F.);
#997=ORIENTED_EDGE('',*,*,#1018,.T.);
#998=ORIENTED_EDGE('',*,*,#1169,.T.);
#999=CARTESIAN_POINT('',(2.5,9.67425899299638E-15,3.7));
#1000=DIRECTION('',(0.0,0.0,-1.0));
#1001=DIRECTION('',(0.0,-1.0,0.0));
#1002=ORIENTED_EDGE('',*,*,#1017,.F.);
#1003=ORIENTED_EDGE('',*,*,#1169,.F.);
#1004=CARTESIAN_POINT('',(2.5,9.65894031423886E-15,3.7));
#1005=DIRECTION('',(0.0,-1.76363023958735E-16,1.0));
#1006=DIRECTION('',(0.0,-1.0,-1.76363023958735E-16));
#1007=COLOUR_RGB('',0.596063196659088,0.666666686534882,0.686259269714355);
#1008=EDGE_CURVE('',#1170,#1171,#1172,.T.);
#1009=EDGE_CURVE('',#1170,#1173,#1174,.T.);
#1010=EDGE_CURVE('',#1173,#1175,#1176,.T.);
#1011=EDGE_CURVE('',#1171,#1175,#1177,.T.);
#1012=EDGE_CURVE('',#1178,#1179,#1180,.T.);
#1013=EDGE_CURVE('',#1178,#1181,#1182,.T.);
#1014=EDGE_CURVE('',#1181,#1183,#1184,.T.);
#1015=EDGE_CURVE('',#1179,#1183,#1185,.T.);
#1016=EDGE_CURVE('',#1186,#1187,#1188,.T.);
#1017=EDGE_CURVE('',#1186,#1189,#1190,.T.);
#1018=EDGE_CURVE('',#1191,#1189,#1192,.T.);
#1019=EDGE_CURVE('',#1187,#1191,#1193,.T.);
#1020=EDGE_CURVE('',#1194,#1170,#1195,.T.);
#1021=EDGE_CURVE('',#1196,#1194,#1197,.T.);
#1022=EDGE_CURVE('',#1198,#1196,#1199,.T.);
#1023=EDGE_CURVE('',#1173,#1198,#1200,.T.);
#1024=EDGE_CURVE('',#1201,#1202,#1203,.T.);
#1025=EDGE_CURVE('',#1201,#1204,#1205,.T.);
#1026=EDGE_CURVE('',#1206,#1204,#1207,.T.);
#1027=EDGE_CURVE('',#1202,#1206,#1208,.T.);
#1028=EDGE_CURVE('',#1209,#1178,#1210,.T.);
#1029=EDGE_CURVE('',#1211,#1209,#1212,.T.);
#1030=EDGE_CURVE('',#1213,#1211,#1214,.T.);
#1031=EDGE_CURVE('',#1181,#1213,#1215,.T.);
#1032=EDGE_CURVE('',#1216,#1217,#1218,.T.);
#1033=EDGE_CURVE('',#1216,#1219,#1220,.T.);
#1034=EDGE_CURVE('',#1219,#1221,#1222,.T.);
#1035=EDGE_CURVE('',#1223,#1221,#1224,.T.);
#1036=EDGE_CURVE('',#1225,#1223,#1226,.T.);
#1037=EDGE_CURVE('',#1225,#1227,#1228,.T.);
#1038=EDGE_CURVE('',#1227,#1229,#1230,.T.);
#1039=EDGE_CURVE('',#1217,#1229,#1231,.T.);
#1040=EDGE_CURVE('',#1232,#1233,#1234,.T.);
#1041=EDGE_CURVE('',#1235,#1232,#1236,.T.);
#1042=EDGE_CURVE('',#1237,#1235,#1238,.T.);
#1043=EDGE_CURVE('',#1237,#1239,#1240,.T.);
#1044=EDGE_CURVE('',#1241,#1239,#1242,.T.);
#1045=EDGE_CURVE('',#1243,#1241,#1244,.T.);
#1046=EDGE_CURVE('',#1245,#1243,#1246,.T.);
#1047=EDGE_CURVE('',#1247,#1245,#1248,.T.);
#1048=EDGE_CURVE('',#1249,#1247,#1250,.T.);
#1049=EDGE_CURVE('',#1251,#1249,#1252,.T.);
#1050=EDGE_CURVE('',#1253,#1251,#1254,.T.);
#1051=EDGE_CURVE('',#1253,#1255,#1256,.T.);
#1052=EDGE_CURVE('',#1255,#1233,#1257,.T.);
#1053=EDGE_CURVE('',#1258,#1259,#1260,.T.);
#1054=EDGE_CURVE('',#1258,#1261,#1262,.T.);
#1055=EDGE_CURVE('',#1263,#1261,#1264,.T.);
#1056=EDGE_CURVE('',#1259,#1263,#1265,.T.);
#1057=EDGE_CURVE('',#1266,#1267,#1268,.T.);
#1058=EDGE_CURVE('',#1269,#1266,#1270,.T.);
#1059=EDGE_CURVE('',#1271,#1269,#1272,.T.);
#1060=EDGE_CURVE('',#1273,#1271,#1274,.T.);
#1061=EDGE_CURVE('',#1247,#1273,#1275,.T.);
#1062=EDGE_CURVE('',#1267,#1245,#1276,.T.);
#1063=EDGE_CURVE('',#1267,#1277,#1278,.T.);
#1064=EDGE_CURVE('',#1243,#1279,#1280,.T.);
#1065=EDGE_CURVE('',#1281,#1279,#1282,.T.);
#1066=EDGE_CURVE('',#1277,#1281,#1283,.T.);
#1067=EDGE_CURVE('',#1261,#1284,#1285,.T.);
#1068=EDGE_CURVE('',#1284,#1286,#1287,.T.);
#1069=EDGE_CURVE('',#1288,#1286,#1289,.T.);
#1070=EDGE_CURVE('',#1288,#1290,#1291,.T.);
#1071=EDGE_CURVE('',#1292,#1290,#1293,.T.);
#1072=EDGE_CURVE('',#1292,#1294,#1295,.T.);
#1073=EDGE_CURVE('',#1294,#1263,#1296,.T.);
#1074=EDGE_CURVE('',#1297,#1286,#1298,.T.);
#1075=EDGE_CURVE('',#1297,#1299,#1300,.T.);
#1076=EDGE_CURVE('',#1299,#1301,#1302,.T.);
#1077=EDGE_CURVE('',#1288,#1301,#1303,.T.);
#1078=EDGE_CURVE('',#1304,#1266,#1305,.T.);
#1079=EDGE_CURVE('',#1304,#1306,#1307,.T.);
#1080=EDGE_CURVE('',#1308,#1306,#1309,.T.);
#1081=EDGE_CURVE('',#1269,#1308,#1310,.T.);
#1082=EDGE_CURVE('',#1258,#1311,#1312,.T.);
#1083=EDGE_CURVE('',#1259,#1313,#1314,.T.);
#1084=EDGE_CURVE('',#1313,#1315,#1316,.T.);
#1085=EDGE_CURVE('',#1317,#1315,#1318,.T.);
#1086=EDGE_CURVE('',#1317,#1306,#1319,.T.);
#1087=EDGE_CURVE('',#1311,#1304,#1320,.T.);
#1088=EDGE_CURVE('',#1294,#1313,#1321,.T.);
#1089=EDGE_CURVE('',#1281,#1322,#1323,.T.);
#1090=EDGE_CURVE('',#1279,#1324,#1325,.T.);
#1091=EDGE_CURVE('',#1324,#1322,#1326,.T.);
#1092=EDGE_CURVE('',#1327,#1328,#1329,.T.);
#1093=EDGE_CURVE('',#1330,#1327,#1331,.T.);
#1094=EDGE_CURVE('',#1332,#1330,#1333,.T.);
#1095=EDGE_CURVE('',#1332,#1334,#1335,.T.);
#1096=EDGE_CURVE('',#1334,#1328,#1336,.T.);
#1097=EDGE_CURVE('',#1317,#1337,#1338,.T.);
#1098=EDGE_CURVE('',#1337,#1339,#1340,.T.);
#1099=EDGE_CURVE('',#1339,#1341,#1342,.T.);
#1100=EDGE_CURVE('',#1341,#1343,#1344,.T.);
#1101=EDGE_CURVE('',#1345,#1343,#1346,.T.);
#1102=EDGE_CURVE('',#1345,#1317,#1347,.T.);
#1103=EDGE_CURVE('',#1348,#1349,#1350,.T.);
#1104=EDGE_CURVE('',#1348,#1351,#1352,.T.);
#1105=EDGE_CURVE('',#1353,#1351,#1354,.T.);
#1106=EDGE_CURVE('',#1355,#1353,#1356,.T.);
#1107=EDGE_CURVE('',#1349,#1355,#1357,.T.);
#1108=EDGE_CURVE('',#1297,#1358,#1359,.T.);
#1109=EDGE_CURVE('',#1358,#1322,#1360,.T.);
#1110=EDGE_CURVE('',#1324,#1241,#1361,.T.);
#1111=EDGE_CURVE('',#1362,#1239,#1363,.T.);
#1112=EDGE_CURVE('',#1364,#1362,#1365,.T.);
#1113=EDGE_CURVE('',#1299,#1364,#1366,.T.);
#1114=EDGE_CURVE('',#1367,#1368,#1369,.T.);
#1115=EDGE_CURVE('',#1368,#1237,#1370,.T.);
#1116=EDGE_CURVE('',#1371,#1235,#1372,.T.);
#1117=EDGE_CURVE('',#1371,#1288,#1373,.T.);
#1118=EDGE_CURVE('',#1301,#1367,#1374,.T.);
#1119=EDGE_CURVE('',#1375,#1376,#1377,.T.);
#1120=EDGE_CURVE('',#1376,#1378,#1379,.T.);
#1121=EDGE_CURVE('',#1378,#1380,#1381,.T.);
#1122=EDGE_CURVE('',#1380,#1382,#1383,.T.);
#1123=EDGE_CURVE('',#1382,#1290,#1384,.T.);
#1124=EDGE_CURVE('',#1290,#1375,#1385,.T.);
#1125=EDGE_CURVE('',#1219,#1371,#1386,.T.);
#1126=EDGE_CURVE('',#1221,#1232,#1387,.T.);
#1127=EDGE_CURVE('',#1388,#1251,#1389,.T.);
#1128=EDGE_CURVE('',#1388,#1225,#1390,.T.);
#1129=EDGE_CURVE('',#1223,#1253,#1391,.T.);
#1130=EDGE_CURVE('',#1392,#1308,#1393,.T.);
#1131=EDGE_CURVE('',#1306,#1388,#1394,.T.);
#1132=EDGE_CURVE('',#1249,#1395,#1396,.T.);
#1133=EDGE_CURVE('',#1395,#1392,#1397,.T.);
#1134=EDGE_CURVE('',#1332,#1353,#1398,.T.);
#1135=EDGE_CURVE('',#1351,#1334,#1399,.T.);
#1136=EDGE_CURVE('',#1343,#1376,#1400,.T.);
#1137=EDGE_CURVE('',#1375,#1345,#1401,.T.);
#1138=EDGE_CURVE('',#1380,#1348,#1402,.T.);
#1139=EDGE_CURVE('',#1378,#1341,#1403,.T.);
#1140=EDGE_CURVE('',#1339,#1328,#1404,.T.);
#1141=EDGE_CURVE('',#1405,#1187,#1406,.T.);
#1142=EDGE_CURVE('',#1191,#1405,#1407,.T.);
#1143=EDGE_CURVE('',#1408,#1202,#1409,.T.);
#1144=EDGE_CURVE('',#1206,#1408,#1410,.T.);
#1145=EDGE_CURVE('',#1411,#1216,#1412,.T.);
#1146=EDGE_CURVE('',#1227,#1411,#1413,.T.);
#1147=EDGE_CURVE('',#1315,#1330,#1414,.T.);
#1148=EDGE_CURVE('',#1292,#1355,#1415,.T.);
#1149=EDGE_CURVE('',#1349,#1382,#1416,.T.);
#1150=EDGE_CURVE('',#1364,#1367,#1417,.T.);
#1151=EDGE_CURVE('',#1362,#1368,#1418,.T.);
#1152=EDGE_CURVE('',#1327,#1337,#1419,.T.);
#1153=EDGE_CURVE('',#1273,#1395,#1420,.T.);
#1154=EDGE_CURVE('',#1271,#1392,#1421,.T.);
#1155=EDGE_CURVE('',#1358,#1277,#1422,.T.);
#1156=EDGE_CURVE('',#1284,#1311,#1423,.T.);
#1157=EDGE_CURVE('',#1194,#1198,#1424,.T.);
#1158=EDGE_CURVE('',#1209,#1213,#1425,.T.);
#1159=EDGE_CURVE('',#1221,#1233,#1426,.T.);
#1160=EDGE_CURVE('',#1223,#1255,#1427,.T.);
#1161=EDGE_CURVE('',#1428,#1217,#1429,.T.);
#1162=EDGE_CURVE('',#1411,#1428,#1430,.T.);
#1163=EDGE_CURVE('',#1229,#1428,#1431,.T.);
#1164=EDGE_CURVE('',#1183,#1179,#1432,.T.);
#1165=EDGE_CURVE('',#1181,#1178,#1433,.T.);
#1166=EDGE_CURVE('',#1204,#1201,#1434,.T.);
#1167=EDGE_CURVE('',#1175,#1171,#1435,.T.);
#1168=EDGE_CURVE('',#1173,#1170,#1436,.T.);
#1169=EDGE_CURVE('',#1189,#1186,#1437,.T.);
#1170=VERTEX_POINT('',#1438);
#1171=VERTEX_POINT('',#1439);
#1172=(B_SPLINE_CURVE(3,(#1441,#1442,#1443,#1444),.UNSPECIFIED.,.F.,.F.)B_SPLINE_CURVE_WITH_KNOTS((4,4),(-1.0,-0.0),.UNSPECIFIED.)RATIONAL_B_SPLINE_CURVE((1.0,0.804737854124363,0.804737854124363,1.0))BOUNDED_CURVE()REPRESENTATION_ITEM('')GEOMETRIC_REPRESENTATION_ITEM()CURVE());
#1173=VERTEX_POINT('',#1451);
#1174=CIRCLE('',#1452,0.349999999999998);
#1175=VERTEX_POINT('',#1453);
#1176=(B_SPLINE_CURVE(3,(#1455,#1456,#1457,#1458),.UNSPECIFIED.,.F.,.F.)B_SPLINE_CURVE_WITH_KNOTS((4,4),(-1.0,-0.0),.UNSPECIFIED.)RATIONAL_B_SPLINE_CURVE((1.0,0.804737854124363,0.804737854124363,1.0))BOUNDED_CURVE()REPRESENTATION_ITEM('')GEOMETRIC_REPRESENTATION_ITEM()CURVE());
#1177=CIRCLE('',#1465,0.149999999999998);
#1178=VERTEX_POINT('',#1466);
#1179=VERTEX_POINT('',#1467);
#1180=(B_SPLINE_CURVE(3,(#1469,#1470,#1471,#1472),.UNSPECIFIED.,.F.,.F.)B_SPLINE_CURVE_WITH_KNOTS((4,4),(-1.0,-0.0),.UNSPECIFIED.)RATIONAL_B_SPLINE_CURVE((1.0,0.804737854124363,0.804737854124363,1.0))BOUNDED_CURVE()REPRESENTATION_ITEM('')GEOMETRIC_REPRESENTATION_ITEM()CURVE());
#1181=VERTEX_POINT('',#1479);
#1182=CIRCLE('',#1480,0.349999999999998);
#1183=VERTEX_POINT('',#1481);
#1184=(B_SPLINE_CURVE(3,(#1483,#1484,#1485,#1486),.UNSPECIFIED.,.F.,.F.)B_SPLINE_CURVE_WITH_KNOTS((4,4),(-1.0,-0.0),.UNSPECIFIED.)RATIONAL_B_SPLINE_CURVE((1.0,0.804737854124363,0.804737854124363,1.0))BOUNDED_CURVE()REPRESENTATION_ITEM('')GEOMETRIC_REPRESENTATION_ITEM()CURVE());
#1185=CIRCLE('',#1493,0.149999999999998);
#1186=VERTEX_POINT('',#1494);
#1187=VERTEX_POINT('',#1495);
#1188=LINE('',#1496,#1497);
#1189=VERTEX_POINT('',#1498);
#1190=CIRCLE('',#1499,0.350000000000001);
#1191=VERTEX_POINT('',#1500);
#1192=LINE('',#1501,#1502);
#1193=CIRCLE('',#1503,0.35);
#1194=VERTEX_POINT('',#1504);
#1195=LINE('',#1505,#1506);
#1196=VERTEX_POINT('',#1507);
#1197=CIRCLE('',#1508,0.35);
#1198=VERTEX_POINT('',#1509);
#1199=CIRCLE('',#1510,0.35);
#1200=LINE('',#1511,#1512);
#1201=VERTEX_POINT('',#1513);
#1202=VERTEX_POINT('',#1514);
#1203=LINE('',#1515,#1516);
#1204=VERTEX_POINT('',#1517);
#1205=CIRCLE('',#1518,0.350000000000001);
#1206=VERTEX_POINT('',#1519);
#1207=LINE('',#1520,#1521);
#1208=CIRCLE('',#1522,0.35);
#1209=VERTEX_POINT('',#1523);
#1210=LINE('',#1524,#1525);
#1211=VERTEX_POINT('',#1526);
#1212=CIRCLE('',#1527,0.35);
#1213=VERTEX_POINT('',#1528);
#1214=CIRCLE('',#1529,0.35);
#1215=LINE('',#1530,#1531);
#1216=VERTEX_POINT('',#1532);
#1217=VERTEX_POINT('',#1533);
#1218=LINE('',#1534,#1535);
#1219=VERTEX_POINT('',#1536);
#1220=LINE('',#1537,#1538);
#1221=VERTEX_POINT('',#1539);
#1222=LINE('',#1540,#1541);
#1223=VERTEX_POINT('',#1542);
#1224=LINE('',#1543,#1544);
#1225=VERTEX_POINT('',#1545);
#1226=LINE('',#1546,#1547);
#1227=VERTEX_POINT('',#1548);
#1228=LINE('',#1549,#1550);
#1229=VERTEX_POINT('',#1551);
#1230=LINE('',#1552,#1553);
#1231=LINE('',#1554,#1555);
#1232=VERTEX_POINT('',#1556);
#1233=VERTEX_POINT('',#1557);
#1234=LINE('',#1558,#1559);
#1235=VERTEX_POINT('',#1560);
#1236=LINE('',#1561,#1562);
#1237=VERTEX_POINT('',#1563);
#1238=LINE('',#1564,#1565);
#1239=VERTEX_POINT('',#1566);
#1240=LINE('',#1567,#1568);
#1241=VERTEX_POINT('',#1569);
#1242=LINE('',#1570,#1571);
#1243=VERTEX_POINT('',#1572);
#1244=LINE('',#1573,#1574);
#1245=VERTEX_POINT('',#1575);
#1246=LINE('',#1576,#1577);
#1247=VERTEX_POINT('',#1578);
#1248=LINE('',#1579,#1580);
#1249=VERTEX_POINT('',#1581);
#1250=LINE('',#1582,#1583);
#1251=VERTEX_POINT('',#1584);
#1252=LINE('',#1585,#1586);
#1253=VERTEX_POINT('',#1587);
#1254=LINE('',#1588,#1589);
#1255=VERTEX_POINT('',#1590);
#1256=LINE('',#1591,#1592);
#1257=LINE('',#1593,#1594);
#1258=VERTEX_POINT('',#1595);
#1259=VERTEX_POINT('',#1596);
#1260=LINE('',#1597,#1598);
#1261=VERTEX_POINT('',#1599);
#1262=LINE('',#1600,#1601);
#1263=VERTEX_POINT('',#1602);
#1264=LINE('',#1603,#1604);
#1265=LINE('',#1605,#1606);
#1266=VERTEX_POINT('',#1607);
#1267=VERTEX_POINT('',#1608);
#1268=LINE('',#1609,#1610);
#1269=VERTEX_POINT('',#1611);
#1270=LINE('',#1612,#1613);
#1271=VERTEX_POINT('',#1614);
#1272=LINE('',#1615,#1616);
#1273=VERTEX_POINT('',#1617);
#1274=LINE('',#1618,#1619);
#1275=LINE('',#1620,#1621);
#1276=LINE('',#1622,#1623);
#1277=VERTEX_POINT('',#1624);
#1278=LINE('',#1625,#1626);
#1279=VERTEX_POINT('',#1627);
#1280=LINE('',#1628,#1629);
#1281=VERTEX_POINT('',#1630);
#1282=LINE('',#1631,#1632);
#1283=LINE('',#1633,#1634);
#1284=VERTEX_POINT('',#1635);
#1285=LINE('',#1636,#1637);
#1286=VERTEX_POINT('',#1638);
#1287=LINE('',#1639,#1640);
#1288=VERTEX_POINT('',#1641);
#1289=LINE('',#1642,#1643);
#1290=VERTEX_POINT('',#1644);
#1291=LINE('',#1645,#1646);
#1292=VERTEX_POINT('',#1647);
#1293=LINE('',#1648,#1649);
#1294=VERTEX_POINT('',#1650);
#1295=LINE('',#1651,#1652);
#1296=LINE('',#1653,#1654);
#1297=VERTEX_POINT('',#1655);
#1298=LINE('',#1656,#1657);
#1299=VERTEX_POINT('',#1658);
#1300=LINE('',#1659,#1660);
#1301=VERTEX_POINT('',#1661);
#1302=LINE('',#1662,#1663);
#1303=LINE('',#1664,#1665);
#1304=VERTEX_POINT('',#1666);
#1305=LINE('',#1667,#1668);
#1306=VERTEX_POINT('',#1669);
#1307=LINE('',#1670,#1671);
#1308=VERTEX_POINT('',#1672);
#1309=LINE('',#1673,#1674);
#1310=LINE('',#1675,#1676);
#1311=VERTEX_POINT('',#1677);
#1312=LINE('',#1678,#1679);
#1313=VERTEX_POINT('',#1680);
#1314=LINE('',#1681,#1682);
#1315=VERTEX_POINT('',#1683);
#1316=LINE('',#1684,#1685);
#1317=VERTEX_POINT('',#1686);
#1318=LINE('',#1687,#1688);
#1319=LINE('',#1689,#1690);
#1320=LINE('',#1691,#1692);
#1321=LINE('',#1693,#1694);
#1322=VERTEX_POINT('',#1695);
#1323=LINE('',#1696,#1697);
#1324=VERTEX_POINT('',#1698);
#1325=LINE('',#1699,#1700);
#1326=LINE('',#1701,#1702);
#1327=VERTEX_POINT('',#1703);
#1328=VERTEX_POINT('',#1704);
#1329=LINE('',#1705,#1706);
#1330=VERTEX_POINT('',#1707);
#1331=LINE('',#1708,#1709);
#1332=VERTEX_POINT('',#1710);
#1333=LINE('',#1711,#1712);
#1334=VERTEX_POINT('',#1713);
#1335=LINE('',#1714,#1715);
#1336=LINE('',#1716,#1717);
#1337=VERTEX_POINT('',#1718);
#1338=LINE('',#1719,#1720);
#1339=VERTEX_POINT('',#1721);
#1340=LINE('',#1722,#1723);
#1341=VERTEX_POINT('',#1724);
#1342=LINE('',#1725,#1726);
#1343=VERTEX_POINT('',#1727);
#1344=LINE('',#1728,#1729);
#1345=VERTEX_POINT('',#1730);
#1346=LINE('',#1731,#1732);
#1347=LINE('',#1733,#1734);
#1348=VERTEX_POINT('',#1735);
#1349=VERTEX_POINT('',#1736);
#1350=LINE('',#1737,#1738);
#1351=VERTEX_POINT('',#1739);
#1352=LINE('',#1740,#1741);
#1353=VERTEX_POINT('',#1742);
#1354=LINE('',#1743,#1744);
#1355=VERTEX_POINT('',#1745);
#1356=LINE('',#1746,#1747);
#1357=LINE('',#1748,#1749);
#1358=VERTEX_POINT('',#1750);
#1359=LINE('',#1751,#1752);
#1360=LINE('',#1753,#1754);
#1361=LINE('',#1755,#1756);
#1362=VERTEX_POINT('',#1757);
#1363=LINE('',#1758,#1759);
#1364=VERTEX_POINT('',#1760);
#1365=LINE('',#1761,#1762);
#1366=LINE('',#1763,#1764);
#1367=VERTEX_POINT('',#1765);
#1368=VERTEX_POINT('',#1766);
#1369=LINE('',#1767,#1768);
#1370=LINE('',#1769,#1770);
#1371=VERTEX_POINT('',#1771);
#1372=LINE('',#1772,#1773);
#1373=LINE('',#1774,#1775);
#1374=LINE('',#1776,#1777);
#1375=VERTEX_POINT('',#1778);
#1376=VERTEX_POINT('',#1779);
#1377=LINE('',#1780,#1781);
#1378=VERTEX_POINT('',#1782);
#1379=LINE('',#1783,#1784);
#1380=VERTEX_POINT('',#1785);
#1381=LINE('',#1786,#1787);
#1382=VERTEX_POINT('',#1788);
#1383=LINE('',#1789,#1790);
#1384=LINE('',#1791,#1792);
#1385=LINE('',#1793,#1794);
#1386=LINE('',#1795,#1796);
#1387=LINE('',#1797,#1798);
#1388=VERTEX_POINT('',#1799);
#1389=LINE('',#1800,#1801);
#1390=LINE('',#1802,#1803);
#1391=LINE('',#1804,#1805);
#1392=VERTEX_POINT('',#1806);
#1393=LINE('',#1807,#1808);
#1394=LINE('',#1809,#1810);
#1395=VERTEX_POINT('',#1811);
#1396=LINE('',#1812,#1813);
#1397=LINE('',#1814,#1815);
#1398=LINE('',#1816,#1817);
#1399=LINE('',#1818,#1819);
#1400=LINE('',#1820,#1821);
#1401=LINE('',#1822,#1823);
#1402=LINE('',#1824,#1825);
#1403=LINE('',#1826,#1827);
#1404=LINE('',#1828,#1829);
#1405=VERTEX_POINT('',#1830);
#1406=CIRCLE('',#1831,0.35);
#1407=CIRCLE('',#1832,0.35);
#1408=VERTEX_POINT('',#1833);
#1409=CIRCLE('',#1834,0.35);
#1410=CIRCLE('',#1835,0.35);
#1411=VERTEX_POINT('',#1836);
#1412=LINE('',#1837,#1838);
#1413=LINE('',#1839,#1840);
#1414=LINE('',#1841,#1842);
#1415=LINE('',#1843,#1844);
#1416=LINE('',#1845,#1846);
#1417=LINE('',#1847,#1848);
#1418=LINE('',#1849,#1850);
#1419=LINE('',#1851,#1852);
#1420=LINE('',#1853,#1854);
#1421=LINE('',#1855,#1856);
#1422=LINE('',#1857,#1858);
#1423=LINE('',#1859,#1860);
#1424=CIRCLE('',#1861,0.35);
#1425=CIRCLE('',#1862,0.35);
#1426=LINE('',#1863,#1864);
#1427=LINE('',#1865,#1866);
#1428=VERTEX_POINT('',#1867);
#1429=LINE('',#1868,#1869);
#1430=LINE('',#1870,#1871);
#1431=LINE('',#1872,#1873);
#1432=CIRCLE('',#1874,0.149999999999998);
#1433=CIRCLE('',#1875,0.349999999999998);
#1434=CIRCLE('',#1876,0.350000000000001);
#1435=CIRCLE('',#1877,0.149999999999998);
#1436=CIRCLE('',#1878,0.349999999999998);
#1437=CIRCLE('',#1879,0.350000000000001);
#1438=CARTESIAN_POINT('',(2.5,-0.34999999999999,12.4));
#1439=CARTESIAN_POINT('',(2.5,-0.14999999999999,12.6));
#1441=CARTESIAN_POINT('',(2.5,-0.34999999999999,12.4));
#1442=CARTESIAN_POINT('',(2.5,-0.349999999999991,12.5171572875254));
#1443=CARTESIAN_POINT('',(2.5,-0.267157287525372,12.6));
#1444=CARTESIAN_POINT('',(2.5,-0.14999999999999,12.6));
#1451=CARTESIAN_POINT('',(2.5,0.350000000000006,12.4));
#1452=AXIS2_PLACEMENT_3D('',#1880,#1881,#1882);
#1453=CARTESIAN_POINT('',(2.5,0.150000000000006,12.6));
#1455=CARTESIAN_POINT('',(2.5,0.350000000000006,12.4));
#1456=CARTESIAN_POINT('',(2.5,0.350000000000007,12.5171572875254));
#1457=CARTESIAN_POINT('',(2.5,0.267157287525388,12.6));
#1458=CARTESIAN_POINT('',(2.5,0.150000000000006,12.6));
#1465=AXIS2_PLACEMENT_3D('',#1883,#1884,#1885);
#1466=CARTESIAN_POINT('',(0.0,-0.34999999999999,12.4));
#1467=CARTESIAN_POINT('',(0.0,-0.14999999999999,12.6));
#1469=CARTESIAN_POINT('',(0.0,-0.34999999999999,12.4));
#1470=CARTESIAN_POINT('',(0.0,-0.349999999999991,12.5171572875254));
#1471=CARTESIAN_POINT('',(0.0,-0.267157287525372,12.6));
#1472=CARTESIAN_POINT('',(0.0,-0.14999999999999,12.6));
#1479=CARTESIAN_POINT('',(-4.28612223837828E-17,0.350000000000006,12.4));
#1480=AXIS2_PLACEMENT_3D('',#1886,#1887,#1888);
#1481=CARTESIAN_POINT('',(0.0,0.150000000000006,12.6));
#1483=CARTESIAN_POINT('',(0.0,0.350000000000006,12.4));
#1484=CARTESIAN_POINT('',(0.0,0.350000000000007,12.5171572875254));
#1485=CARTESIAN_POINT('',(0.0,0.267157287525388,12.6));
#1486=CARTESIAN_POINT('',(0.0,0.150000000000006,12.6));
#1493=AXIS2_PLACEMENT_3D('',#1889,#1890,#1891);
#1494=CARTESIAN_POINT('',(2.5,-0.349999999999991,3.7));
#1495=CARTESIAN_POINT('',(2.5,-0.349999999999991,7.2));
#1496=CARTESIAN_POINT('',(2.5,-0.34999999999999,3.7));
#1497=VECTOR('',#1892,1.0);
#1498=CARTESIAN_POINT('',(2.5,0.350000000000011,3.7));
#1499=AXIS2_PLACEMENT_3D('',#1893,#1894,#1895);
#1500=CARTESIAN_POINT('',(2.5,0.350000000000009,7.2));
#1501=CARTESIAN_POINT('',(2.5,0.35000000000001,3.7));
#1502=VECTOR('',#1896,1.0);
#1503=AXIS2_PLACEMENT_3D('',#1897,#1898,#1899);
#1504=CARTESIAN_POINT('',(2.5,-0.349999999999991,9.0));
#1505=CARTESIAN_POINT('',(2.5,-0.34999999999999,10.7));
#1506=VECTOR('',#1900,1.0);
#1507=CARTESIAN_POINT('',(2.85,8.73953496601509E-15,9.0));
#1508=AXIS2_PLACEMENT_3D('',#1901,#1902,#1903);
#1509=CARTESIAN_POINT('',(2.5,0.350000000000009,9.0));
#1510=AXIS2_PLACEMENT_3D('',#1904,#1905,#1906);
#1511=CARTESIAN_POINT('',(2.5,0.35000000000001,10.7));
#1512=VECTOR('',#1907,1.0);
#1513=CARTESIAN_POINT('',(0.0,-0.349999999999991,3.7));
#1514=CARTESIAN_POINT('',(4.28612223837833E-17,-0.349999999999991,7.2));
#1515=CARTESIAN_POINT('',(4.28612223837832E-17,-0.34999999999999,3.7));
#1516=VECTOR('',#1908,1.0);
#1517=CARTESIAN_POINT('',(-4.28612223837833E-17,0.350000000000011,3.7));
#1518=AXIS2_PLACEMENT_3D('',#1909,#1910,#1911);
#1519=CARTESIAN_POINT('',(-4.28612223837831E-17,0.350000000000009,7.2));
#1520=CARTESIAN_POINT('',(-4.28612223837832E-17,0.35000000000001,3.7));
#1521=VECTOR('',#1912,1.0);
#1522=AXIS2_PLACEMENT_3D('',#1913,#1914,#1915);
#1523=CARTESIAN_POINT('',(4.28612223837833E-17,-0.349999999999991,9.0));
#1524=CARTESIAN_POINT('',(4.28612223837832E-17,-0.34999999999999,10.7));
#1525=VECTOR('',#1916,1.0);
#1526=CARTESIAN_POINT('',(0.35,8.73953496601509E-15,9.0));
#1527=AXIS2_PLACEMENT_3D('',#1917,#1918,#1919);
#1528=CARTESIAN_POINT('',(-4.28612223837831E-17,0.350000000000009,9.0));
#1529=AXIS2_PLACEMENT_3D('',#1920,#1921,#1922);
#1530=CARTESIAN_POINT('',(-4.28612223837832E-17,0.35000000000001,10.7));
#1531=VECTOR('',#1923,1.0);
#1532=CARTESIAN_POINT('',(0.825000000000002,1.08,7.2));
#1533=CARTESIAN_POINT('',(0.825,1.08,3.7));
#1534=CARTESIAN_POINT('',(0.825,1.08,7.2));
#1535=VECTOR('',#1924,1.0);
#1536=CARTESIAN_POINT('',(-0.85,1.08,7.2));
#1537=CARTESIAN_POINT('',(-0.85,1.08,7.2));
#1538=VECTOR('',#1925,1.0);
#1539=CARTESIAN_POINT('',(-0.85,1.08,3.5));
#1540=CARTESIAN_POINT('',(-0.85,1.08,9.1));
#1541=VECTOR('',#1926,1.0);
#1542=CARTESIAN_POINT('',(3.35,1.08,3.5));
#1543=CARTESIAN_POINT('',(3.35,1.08,3.5));
#1544=VECTOR('',#1927,1.0);
#1545=CARTESIAN_POINT('',(3.35,1.08,7.2));
#1546=CARTESIAN_POINT('',(3.35,1.08,9.1));
#1547=VECTOR('',#1928,1.0);
#1548=CARTESIAN_POINT('',(1.675,1.08,7.2));
#1549=CARTESIAN_POINT('',(-0.85,1.08,7.2));
#1550=VECTOR('',#1929,1.0);
#1551=CARTESIAN_POINT('',(1.675,1.08,3.7));
#1552=CARTESIAN_POINT('',(1.675,1.08,7.2));
#1553=VECTOR('',#1930,1.0);
#1554=CARTESIAN_POINT('',(0.825,1.08,3.7));
#1555=VECTOR('',#1931,1.0);
#1556=CARTESIAN_POINT('',(-0.85,1.08,3.2));
#1557=CARTESIAN_POINT('',(-0.85,1.38,3.2));
#1558=CARTESIAN_POINT('',(-0.85,1.08,3.2));
#1559=VECTOR('',#1932,1.0);
#1560=CARTESIAN_POINT('',(-1.75,0.18,3.2));
#1561=CARTESIAN_POINT('',(-1.75,0.18,3.2));
#1562=VECTOR('',#1933,1.0);
#1563=CARTESIAN_POINT('',(-1.75,-0.580000000000001,3.2));
#1564=CARTESIAN_POINT('',(-1.75,-2.38,3.2));
#1565=VECTOR('',#1934,1.0);
#1566=CARTESIAN_POINT('',(-2.45,-0.580000000000001,3.2));
#1567=CARTESIAN_POINT('',(-1.75,-0.580000000000001,3.2));
#1568=VECTOR('',#1935,1.0);
#1569=CARTESIAN_POINT('',(-2.45,1.8,3.2));
#1570=CARTESIAN_POINT('',(-2.45,1.8,3.2));
#1571=VECTOR('',#1936,1.0);
#1572=CARTESIAN_POINT('',(3.69066017177982,1.8,3.2));
#1573=CARTESIAN_POINT('',(3.69066017177982,1.8,3.2));
#1574=VECTOR('',#1937,1.0);
#1575=CARTESIAN_POINT('',(4.95,0.540660171779818,3.2));
#1576=CARTESIAN_POINT('',(4.95,0.540660171779818,3.2));
#1577=VECTOR('',#1938,1.0);
#1578=CARTESIAN_POINT('',(4.95,-0.579999999999995,3.2));
#1579=CARTESIAN_POINT('',(4.95,-3.1,3.2));
#1580=VECTOR('',#1939,1.0);
#1581=CARTESIAN_POINT('',(4.25,-0.579999999999995,3.2));
#1582=CARTESIAN_POINT('',(4.25,-0.579999999999995,3.2));
#1583=VECTOR('',#1940,1.0);
#1584=CARTESIAN_POINT('',(4.25,0.18,3.2));
#1585=CARTESIAN_POINT('',(4.25,0.18,3.2));
#1586=VECTOR('',#1941,1.0);
#1587=CARTESIAN_POINT('',(3.35,1.08,3.2));
#1588=CARTESIAN_POINT('',(3.35,1.08,3.2));
#1589=VECTOR('',#1942,1.0);
#1590=CARTESIAN_POINT('',(3.35,1.38,3.2));
#1591=CARTESIAN_POINT('',(3.35,1.08,3.2));
#1592=VECTOR('',#1943,1.0);
#1593=CARTESIAN_POINT('',(3.35,1.38,3.2));
#1594=VECTOR('',#1944,1.0);
#1595=CARTESIAN_POINT('',(4.25,-1.25,9.1));
#1596=CARTESIAN_POINT('',(4.25,-2.09999999999999,9.1));
#1597=CARTESIAN_POINT('',(4.25,-0.379999999999994,9.1));
#1598=VECTOR('',#1945,1.0);
#1599=CARTESIAN_POINT('',(-1.75,-1.25,9.1));
#1600=CARTESIAN_POINT('',(4.95,-1.25,9.1));
#1601=VECTOR('',#1946,1.0);
#1602=CARTESIAN_POINT('',(-1.75,-2.1,9.1));
#1603=CARTESIAN_POINT('',(-1.75,-2.1,9.1));
#1604=VECTOR('',#1947,1.0);
#1605=CARTESIAN_POINT('',(70.8100000000001,-2.09999999999998,9.1));
#1606=VECTOR('',#1948,1.0);
#1607=CARTESIAN_POINT('',(4.95,-0.379999999999994,9.0));
#1608=CARTESIAN_POINT('',(4.95,0.540660171779822,9.0));
#1609=CARTESIAN_POINT('',(4.95,-1.25,9.0));
#1610=VECTOR('',#1949,1.0);
#1611=CARTESIAN_POINT('',(4.95,-0.379999999999994,4.2));
#1612=CARTESIAN_POINT('',(4.95,-0.379999999999994,4.2));
#1613=VECTOR('',#1950,1.0);
#1614=CARTESIAN_POINT('',(4.95,-1.07999999999999,4.2));
#1615=CARTESIAN_POINT('',(4.95,-1.07999999999999,4.2));
#1616=VECTOR('',#1951,1.0);
#1617=CARTESIAN_POINT('',(4.95,-1.07999999999999,3.7));
#1618=CARTESIAN_POINT('',(4.95,-1.07999999999999,3.7));
#1619=VECTOR('',#1952,1.0);
#1620=CARTESIAN_POINT('',(4.95,-0.579999999999995,3.2));
#1621=VECTOR('',#1953,1.0);
#1622=CARTESIAN_POINT('',(4.95,0.540660171779818,9.1));
#1623=VECTOR('',#1954,1.0);
#1624=CARTESIAN_POINT('',(4.54066017177982,0.95,9.0));
#1625=CARTESIAN_POINT('',(4.95,0.540660171779818,9.0));
#1626=VECTOR('',#1955,1.0);
#1627=CARTESIAN_POINT('',(3.69066017177982,1.8,9.1));
#1628=CARTESIAN_POINT('',(3.69066017177982,1.8,9.1));
#1629=VECTOR('',#1956,1.0);
#1630=CARTESIAN_POINT('',(4.54066017177982,0.95,9.1));
#1631=CARTESIAN_POINT('',(4.95,0.540660171779818,9.1));
#1632=VECTOR('',#1957,1.0);
#1633=CARTESIAN_POINT('',(4.54066017177982,0.95,9.1));
#1634=VECTOR('',#1958,1.0);
#1635=CARTESIAN_POINT('',(-1.75,-1.25,9.0));
#1636=CARTESIAN_POINT('',(-1.75,-1.25,0.0));
#1637=VECTOR('',#1959,1.0);
#1638=CARTESIAN_POINT('',(-1.75,-0.38,9.0));
#1639=CARTESIAN_POINT('',(-1.75,1.65858940218612E-16,9.0));
#1640=VECTOR('',#1960,1.0);
#1641=CARTESIAN_POINT('',(-1.75,-0.38,7.2));
#1642=CARTESIAN_POINT('',(-1.75,-0.38,9.1));
#1643=VECTOR('',#1961,1.0);
#1644=CARTESIAN_POINT('',(-1.75,-1.88,7.2));
#1645=CARTESIAN_POINT('',(-1.75,-2.38,7.2));
#1646=VECTOR('',#1962,1.0);
#1647=CARTESIAN_POINT('',(-1.75,-1.88,8.1));
#1648=CARTESIAN_POINT('',(-1.75,-1.88,3.7));
#1649=VECTOR('',#1963,1.0);
#1650=CARTESIAN_POINT('',(-1.75,-2.1,8.1));
#1651=CARTESIAN_POINT('',(-1.75,-1.88,8.1));
#1652=VECTOR('',#1964,1.0);
#1653=CARTESIAN_POINT('',(-1.75,-2.1,8.1));
#1654=VECTOR('',#1965,1.0);
#1655=CARTESIAN_POINT('',(-2.45,-0.38,9.0));
#1656=CARTESIAN_POINT('',(-1.75,-0.38,9.0));
#1657=VECTOR('',#1966,1.0);
#1658=CARTESIAN_POINT('',(-2.45,-0.380000000000001,4.2));
#1659=CARTESIAN_POINT('',(-2.45,-0.38,9.1));
#1660=VECTOR('',#1967,1.0);
#1661=CARTESIAN_POINT('',(-1.75,-0.38,4.2));
#1662=CARTESIAN_POINT('',(-1.75,-0.38,4.2));
#1663=VECTOR('',#1968,1.0);
#1664=CARTESIAN_POINT('',(-1.75,-0.38,9.1));
#1665=VECTOR('',#1969,1.0);
#1666=CARTESIAN_POINT('',(4.25,-0.379999999999994,9.0));
#1667=CARTESIAN_POINT('',(4.25,-0.379999999999994,9.0));
#1668=VECTOR('',#1970,1.0);
#1669=CARTESIAN_POINT('',(4.25,-0.379999999999994,7.2));
#1670=CARTESIAN_POINT('',(4.25,-0.379999999999994,4.2));
#1671=VECTOR('',#1971,1.0);
#1672=CARTESIAN_POINT('',(4.25,-0.379999999999994,4.2));
#1673=CARTESIAN_POINT('',(4.25,-0.379999999999994,4.2));
#1674=VECTOR('',#1972,1.0);
#1675=CARTESIAN_POINT('',(4.25,-0.379999999999994,4.2));
#1676=VECTOR('',#1973,1.0);
#1677=CARTESIAN_POINT('',(4.25,-1.25,9.0));
#1678=CARTESIAN_POINT('',(4.25,-1.25,0.0));
#1679=VECTOR('',#1974,1.0);
#1680=CARTESIAN_POINT('',(4.25,-2.09999999999999,8.1));
#1681=CARTESIAN_POINT('',(4.25,-2.09999999999999,9.1));
#1682=VECTOR('',#1975,1.0);
#1683=CARTESIAN_POINT('',(4.25,-1.87999999999999,8.1));
#1684=CARTESIAN_POINT('',(4.25,-2.09999999999999,8.1));
#1685=VECTOR('',#1976,1.0);
#1686=CARTESIAN_POINT('',(4.25,-1.87999999999999,7.2));
#1687=CARTESIAN_POINT('',(4.25,-1.87999999999999,8.1));
#1688=VECTOR('',#1977,1.0);
#1689=CARTESIAN_POINT('',(4.25,0.18,7.2));
#1690=VECTOR('',#1978,1.0);
#1691=CARTESIAN_POINT('',(4.25,-2.80412128144845E-16,9.0));
#1692=VECTOR('',#1979,1.0);
#1693=CARTESIAN_POINT('',(70.8100000000001,-2.09999999999998,8.1));
#1694=VECTOR('',#1980,1.0);
#1695=CARTESIAN_POINT('',(-2.45,0.95,9.1));
#1696=CARTESIAN_POINT('',(4.95,0.95,9.1));
#1697=VECTOR('',#1981,1.0);
#1698=CARTESIAN_POINT('',(-2.45,1.8,9.1));
#1699=CARTESIAN_POINT('',(3.69066017177982,1.8,9.1));
#1700=VECTOR('',#1982,1.0);
#1701=CARTESIAN_POINT('',(-2.45,1.8,9.1));
#1702=VECTOR('',#1983,1.0);
#1703=CARTESIAN_POINT('',(4.95,-1.88,3.7));
#1704=CARTESIAN_POINT('',(4.95,-2.37999999999999,3.2));
#1705=CARTESIAN_POINT('',(4.95,-1.88,3.7));
#1706=VECTOR('',#1984,1.0);
#1707=CARTESIAN_POINT('',(4.95,-1.87999999999999,8.1));
#1708=CARTESIAN_POINT('',(4.95,-1.87999999999999,8.1));
#1709=VECTOR('',#1985,1.0);
#1710=CARTESIAN_POINT('',(4.95,-3.1,8.1));
#1711=CARTESIAN_POINT('',(4.95,-2.09999999999998,8.1));
#1712=VECTOR('',#1986,1.0);
#1713=CARTESIAN_POINT('',(4.95,-3.1,3.2));
#1714=CARTESIAN_POINT('',(4.95,-3.1,9.1));
#1715=VECTOR('',#1987,1.0);
#1716=CARTESIAN_POINT('',(4.95,-3.1,3.2));
#1717=VECTOR('',#1988,1.0);
#1718=CARTESIAN_POINT('',(4.25,-1.88,3.7));
#1719=CARTESIAN_POINT('',(4.25,-1.87999999999999,8.1));
#1720=VECTOR('',#1989,1.0);
#1721=CARTESIAN_POINT('',(4.25,-2.38,3.2));
#1722=CARTESIAN_POINT('',(4.25,-1.88,3.7));
#1723=VECTOR('',#1990,1.0);
#1724=CARTESIAN_POINT('',(4.25,-2.68,3.2));
#1725=CARTESIAN_POINT('',(4.25,0.0,3.2));
#1726=VECTOR('',#1991,1.0);
#1727=CARTESIAN_POINT('',(4.25,-2.38,3.5));
#1728=CARTESIAN_POINT('',(4.25,1.7,7.57999999999999));
#1729=VECTOR('',#1992,1.0);
#1730=CARTESIAN_POINT('',(4.25,-2.38,7.2));
#1731=CARTESIAN_POINT('',(4.25,-2.38,9.1));
#1732=VECTOR('',#1993,1.0);
#1733=CARTESIAN_POINT('',(4.25,0.18,7.2));
#1734=VECTOR('',#1994,1.0);
#1735=CARTESIAN_POINT('',(-2.45,-2.38,3.2));
#1736=CARTESIAN_POINT('',(-2.45,-1.88,3.7));
#1737=CARTESIAN_POINT('',(-2.45,-2.38,3.2));
#1738=VECTOR('',#1995,1.0);
#1739=CARTESIAN_POINT('',(-2.45,-3.1,3.2));
#1740=CARTESIAN_POINT('',(-2.45,1.8,3.2));
#1741=VECTOR('',#1996,1.0);
#1742=CARTESIAN_POINT('',(-2.45,-3.1,8.1));
#1743=CARTESIAN_POINT('',(-2.45,-3.1,9.1));
#1744=VECTOR('',#1997,1.0);
#1745=CARTESIAN_POINT('',(-2.45,-1.88,8.1));
#1746=CARTESIAN_POINT('',(-2.45,-2.1,8.1));
#1747=VECTOR('',#1998,1.0);
#1748=CARTESIAN_POINT('',(-2.45,-1.88,3.7));
#1749=VECTOR('',#1999,1.0);
#1750=CARTESIAN_POINT('',(-2.45,0.95,9.0));
#1751=CARTESIAN_POINT('',(-2.45,-1.25,9.0));
#1752=VECTOR('',#2000,1.0);
#1753=CARTESIAN_POINT('',(-2.45,0.95,9.0));
#1754=VECTOR('',#2001,1.0);
#1755=CARTESIAN_POINT('',(-2.45,1.8,9.1));
#1756=VECTOR('',#2002,1.0);
#1757=CARTESIAN_POINT('',(-2.45,-1.08,3.7));
#1758=CARTESIAN_POINT('',(-2.45,-1.08,3.7));
#1759=VECTOR('',#2003,1.0);
#1760=CARTESIAN_POINT('',(-2.45,-1.08,4.2));
#1761=CARTESIAN_POINT('',(-2.45,-1.08,4.2));
#1762=VECTOR('',#2004,1.0);
#1763=CARTESIAN_POINT('',(-2.45,-0.380000000000001,4.2));
#1764=VECTOR('',#2005,1.0);
#1765=CARTESIAN_POINT('',(-1.75,-1.08,4.2));
#1766=CARTESIAN_POINT('',(-1.75,-1.08,3.7));
#1767=CARTESIAN_POINT('',(-1.75,-1.08,4.2));
#1768=VECTOR('',#2006,1.0);
#1769=CARTESIAN_POINT('',(-1.75,-1.08,3.7));
#1770=VECTOR('',#2007,1.0);
#1771=CARTESIAN_POINT('',(-1.75,0.18,7.2));
#1772=CARTESIAN_POINT('',(-1.75,0.18,9.1));
#1773=VECTOR('',#2008,1.0);
#1774=CARTESIAN_POINT('',(-1.75,-2.38,7.2));
#1775=VECTOR('',#2009,1.0);
#1776=CARTESIAN_POINT('',(-1.75,-0.38,4.2));
#1777=VECTOR('',#2010,1.0);
#1778=CARTESIAN_POINT('',(-1.75,-2.38,7.2));
#1779=CARTESIAN_POINT('',(-1.75,-2.38,3.5));
#1780=CARTESIAN_POINT('',(-1.75,-2.38,9.1));
#1781=VECTOR('',#2011,1.0);
#1782=CARTESIAN_POINT('',(-1.75,-2.68,3.2));
#1783=CARTESIAN_POINT('',(-1.75,0.42,6.29999999999999));
#1784=VECTOR('',#2012,1.0);
#1785=CARTESIAN_POINT('',(-1.75,-2.38,3.2));
#1786=CARTESIAN_POINT('',(-1.75,-1.48230765769503E-16,3.2));
#1787=VECTOR('',#2013,1.0);
#1788=CARTESIAN_POINT('',(-1.75,-1.88,3.7));
#1789=CARTESIAN_POINT('',(-1.75,-2.38,3.2));
#1790=VECTOR('',#2014,1.0);
#1791=CARTESIAN_POINT('',(-1.75,-1.88,3.7));
#1792=VECTOR('',#2015,1.0);
#1793=CARTESIAN_POINT('',(-1.75,-2.38,7.2));
#1794=VECTOR('',#2016,1.0);
#1795=CARTESIAN_POINT('',(-1.75,0.18,7.2));
#1796=VECTOR('',#2017,1.0);
#1797=CARTESIAN_POINT('',(-0.85,1.08,3.5));
#1798=VECTOR('',#2018,1.0);
#1799=CARTESIAN_POINT('',(4.25,0.18,7.2));
#1800=CARTESIAN_POINT('',(4.25,0.18,9.1));
#1801=VECTOR('',#2019,1.0);
#1802=CARTESIAN_POINT('',(3.35,1.08,7.2));
#1803=VECTOR('',#2020,1.0);
#1804=CARTESIAN_POINT('',(3.35,1.08,3.5));
#1805=VECTOR('',#2021,1.0);
#1806=CARTESIAN_POINT('',(4.25,-1.07999999999999,4.2));
#1807=CARTESIAN_POINT('',(4.25,-1.07999999999999,4.2));
#1808=VECTOR('',#2022,1.0);
#1809=CARTESIAN_POINT('',(4.25,0.18,7.2));
#1810=VECTOR('',#2023,1.0);
#1811=CARTESIAN_POINT('',(4.25,-1.07999999999999,3.7));
#1812=CARTESIAN_POINT('',(4.25,-0.579999999999995,3.2));
#1813=VECTOR('',#2024,1.0);
#1814=CARTESIAN_POINT('',(4.25,-1.07999999999999,3.7));
#1815=VECTOR('',#2025,1.0);
#1816=CARTESIAN_POINT('',(70.8100000000001,-3.09999999999998,8.1));
#1817=VECTOR('',#2026,1.0);
#1818=CARTESIAN_POINT('',(-2.45,-3.1,3.2));
#1819=VECTOR('',#2027,1.0);
#1820=CARTESIAN_POINT('',(4.25,-2.38,3.5));
#1821=VECTOR('',#2028,1.0);
#1822=CARTESIAN_POINT('',(4.25,-2.38,7.2));
#1823=VECTOR('',#2029,1.0);
#1824=CARTESIAN_POINT('',(-1.75,-2.38,3.2));
#1825=VECTOR('',#2030,1.0);
#1826=CARTESIAN_POINT('',(1.93710788150743E-16,-2.68,3.2));
#1827=VECTOR('',#2031,1.0);
#1828=CARTESIAN_POINT('',(4.25,-2.38,3.2));
#1829=VECTOR('',#2032,1.0);
#1830=CARTESIAN_POINT('',(2.15,9.05698840914081E-15,7.2));
#1831=AXIS2_PLACEMENT_3D('',#2033,#2034,#2035);
#1832=AXIS2_PLACEMENT_3D('',#2036,#2037,#2038);
#1833=CARTESIAN_POINT('',(-0.35,9.05698840914081E-15,7.2));
#1834=AXIS2_PLACEMENT_3D('',#2039,#2040,#2041);
#1835=AXIS2_PLACEMENT_3D('',#2042,#2043,#2044);
#1836=CARTESIAN_POINT('',(1.25,0.629999999999999,7.2));
#1837=CARTESIAN_POINT('',(1.25,0.629999999999999,7.2));
#1838=VECTOR('',#2045,1.0);
#1839=CARTESIAN_POINT('',(1.675,1.08,7.2));
#1840=VECTOR('',#2046,1.0);
#1841=CARTESIAN_POINT('',(4.25,-1.87999999999999,8.1));
#1842=VECTOR('',#2047,1.0);
#1843=CARTESIAN_POINT('',(-1.75,-1.88,8.1));
#1844=VECTOR('',#2048,1.0);
#1845=CARTESIAN_POINT('',(-1.75,-1.88,3.7));
#1846=VECTOR('',#2049,1.0);
#1847=CARTESIAN_POINT('',(-1.75,-1.08,4.2));
#1848=VECTOR('',#2050,1.0);
#1849=CARTESIAN_POINT('',(-1.75,-1.08,3.7));
#1850=VECTOR('',#2051,1.0);
#1851=CARTESIAN_POINT('',(4.25,-1.88,3.7));
#1852=VECTOR('',#2052,1.0);
#1853=CARTESIAN_POINT('',(4.25,-1.07999999999999,3.7));
#1854=VECTOR('',#2053,1.0);
#1855=CARTESIAN_POINT('',(4.25,-1.07999999999999,4.2));
#1856=VECTOR('',#2054,1.0);
#1857=CARTESIAN_POINT('',(4.95,0.95,9.0));
#1858=VECTOR('',#2055,1.0);
#1859=CARTESIAN_POINT('',(4.95,-1.25,9.0));
#1860=VECTOR('',#2056,1.0);
#1861=AXIS2_PLACEMENT_3D('',#2057,#2058,#2059);
#1862=AXIS2_PLACEMENT_3D('',#2060,#2061,#2062);
#1863=CARTESIAN_POINT('',(-0.85,1.38,3.2));
#1864=VECTOR('',#2063,1.0);
#1865=CARTESIAN_POINT('',(3.35,1.38,3.2));
#1866=VECTOR('',#2064,1.0);
#1867=CARTESIAN_POINT('',(1.25,0.629999999999999,3.7));
#1868=CARTESIAN_POINT('',(1.25,0.629999999999999,3.7));
#1869=VECTOR('',#2065,1.0);
#1870=CARTESIAN_POINT('',(1.25,0.629999999999999,7.2));
#1871=VECTOR('',#2066,1.0);
#1872=CARTESIAN_POINT('',(1.675,1.08,3.7));
#1873=VECTOR('',#2067,1.0);
#1874=AXIS2_PLACEMENT_3D('',#2068,#2069,#2070);
#1875=AXIS2_PLACEMENT_3D('',#2071,#2072,#2073);
#1876=AXIS2_PLACEMENT_3D('',#2074,#2075,#2076);
#1877=AXIS2_PLACEMENT_3D('',#2077,#2078,#2079);
#1878=AXIS2_PLACEMENT_3D('',#2080,#2081,#2082);
#1879=AXIS2_PLACEMENT_3D('',#2083,#2084,#2085);
#1880=CARTESIAN_POINT('',(2.5,8.13990068455539E-15,12.4));
#1881=DIRECTION('',(-0.0,0.0,1.0));
#1882=DIRECTION('',(0.0,-1.0,0.0));
#1883=CARTESIAN_POINT('',(2.5,8.10462807976364E-15,12.6));
#1884=DIRECTION('',(-0.0,0.0,1.0));
#1885=DIRECTION('',(0.0,-1.0,0.0));
#1886=CARTESIAN_POINT('',(0.0,8.13990068455539E-15,12.4));
#1887=DIRECTION('',(-0.0,0.0,1.0));
#1888=DIRECTION('',(0.0,-1.0,0.0));
#1889=CARTESIAN_POINT('',(0.0,8.10462807976364E-15,12.6));
#1890=DIRECTION('',(-0.0,0.0,1.0));
#1891=DIRECTION('',(0.0,-1.0,0.0));
#1892=DIRECTION('',(-0.0,-0.0,1.0));
#1893=CARTESIAN_POINT('',(2.5,9.67425899299638E-15,3.7));
#1894=DIRECTION('',(-0.0,0.0,1.0));
#1895=DIRECTION('',(0.0,-1.0,0.0));
#1896=DIRECTION('',(0.0,0.0,-1.0));
#1897=CARTESIAN_POINT('',(2.5,9.05698840914081E-15,7.2));
#1898=DIRECTION('',(0.0,0.0,1.0));
#1899=DIRECTION('',(-1.0,0.0,0.0));
#1900=DIRECTION('',(-0.0,-0.0,1.0));
#1901=CARTESIAN_POINT('',(2.5,8.73953496601509E-15,9.0));
#1902=DIRECTION('',(0.0,0.0,-1.0));
#1903=DIRECTION('',(1.0,0.0,0.0));
#1904=CARTESIAN_POINT('',(2.5,8.73953496601509E-15,9.0));
#1905=DIRECTION('',(0.0,0.0,-1.0));
#1906=DIRECTION('',(1.0,0.0,0.0));
#1907=DIRECTION('',(0.0,0.0,-1.0));
#1908=DIRECTION('',(-0.0,-0.0,1.0));
#1909=CARTESIAN_POINT('',(0.0,9.67425899299638E-15,3.7));
#1910=DIRECTION('',(-0.0,0.0,1.0));
#1911=DIRECTION('',(0.0,-1.0,0.0));
#1912=DIRECTION('',(0.0,0.0,-1.0));
#1913=CARTESIAN_POINT('',(0.0,9.05698840914081E-15,7.2));
#1914=DIRECTION('',(0.0,0.0,1.0));
#1915=DIRECTION('',(-1.0,0.0,0.0));
#1916=DIRECTION('',(-0.0,-0.0,1.0));
#1917=CARTESIAN_POINT('',(0.0,8.73953496601509E-15,9.0));
#1918=DIRECTION('',(0.0,0.0,-1.0));
#1919=DIRECTION('',(1.0,0.0,0.0));
#1920=CARTESIAN_POINT('',(0.0,8.73953496601509E-15,9.0));
#1921=DIRECTION('',(0.0,0.0,-1.0));
#1922=DIRECTION('',(1.0,0.0,0.0));
#1923=DIRECTION('',(0.0,0.0,-1.0));
#1924=DIRECTION('',(0.0,0.0,-1.0));
#1925=DIRECTION('',(-1.0,0.0,0.0));
#1926=DIRECTION('',(0.0,0.0,-1.0));
#1927=DIRECTION('',(-1.0,0.0,0.0));
#1928=DIRECTION('',(0.0,0.0,-1.0));
#1929=DIRECTION('',(-1.0,0.0,0.0));
#1930=DIRECTION('',(0.0,0.0,-1.0));
#1931=DIRECTION('',(1.0,-2.55106393526001E-16,0.0));
#1932=DIRECTION('',(0.0,1.0,0.0));
#1933=DIRECTION('',(0.707106781186547,0.707106781186548,0.0));
#1934=DIRECTION('',(-8.47032947254301E-17,1.0,0.0));
#1935=DIRECTION('',(-1.0,-2.36941343169445E-16,0.0));
#1936=DIRECTION('',(2.65518899384205E-16,-1.0,0.0));
#1937=DIRECTION('',(-1.0,7.06244698228436E-17,0.0));
#1938=DIRECTION('',(-0.707106781186547,0.707106781186548,0.0));
#1939=DIRECTION('',(0.0,1.0,0.0));
#1940=DIRECTION('',(1.0,4.00588754492636E-16,0.0));
#1941=DIRECTION('',(0.0,-1.0,0.0));
#1942=DIRECTION('',(0.707106781186547,-0.707106781186548,0.0));
#1943=DIRECTION('',(0.0,1.0,0.0));
#1944=DIRECTION('',(-1.0,0.0,0.0));
#1945=DIRECTION('',(0.0,-1.0,-1.00856016045163E-15));
#1946=DIRECTION('',(-1.0,0.0,0.0));
#1947=DIRECTION('',(0.0,1.0,1.00856016045163E-15));
#1948=DIRECTION('',(-1.0,-2.36941343169445E-16,0.0));
#1949=DIRECTION('',(0.0,1.0,0.0));
#1950=DIRECTION('',(0.0,8.85062997947351E-17,1.0));
#1951=DIRECTION('',(0.0,1.0,0.0));
#1952=DIRECTION('',(0.0,0.0,1.0));
#1953=DIRECTION('',(0.0,-0.707106781186547,0.707106781186548));
#1954=DIRECTION('',(0.0,0.0,-1.0));
#1955=DIRECTION('',(-0.707106781186547,0.707106781186548,0.0));
#1956=DIRECTION('',(0.0,0.0,1.0));
#1957=DIRECTION('',(-0.707106781186547,0.707106781186548,0.0));
#1958=DIRECTION('',(1.08420217248551E-15,-1.08420217248551E-15,1.0));
#1959=DIRECTION('',(0.0,0.0,-1.0));
#1960=DIRECTION('',(0.0,1.0,0.0));
#1961=DIRECTION('',(0.0,8.8506299794735E-17,1.0));
#1962=DIRECTION('',(8.47032947254301E-17,-1.0,0.0));
#1963=DIRECTION('',(0.0,-9.85638338623186E-17,-1.0));
#1964=DIRECTION('',(0.0,-1.0,-7.88510670898547E-15));
#1965=DIRECTION('',(0.0,4.33680868994201E-16,1.0));
#1966=DIRECTION('',(1.0,2.36941343169445E-16,0.0));
#1967=DIRECTION('',(0.0,-8.8506299794735E-17,-1.0));
#1968=DIRECTION('',(1.0,2.36941343169445E-16,0.0));
#1969=DIRECTION('',(0.0,-8.8506299794735E-17,-1.0));
#1970=DIRECTION('',(1.0,4.00588754492636E-16,0.0));
#1971=DIRECTION('',(0.0,-8.85062997947351E-17,-1.0));
#1972=DIRECTION('',(0.0,8.85062997947351E-17,1.0));
#1973=DIRECTION('',(-1.0,-4.00588754492636E-16,0.0));
#1974=DIRECTION('',(0.0,0.0,-1.0));
#1975=DIRECTION('',(0.0,-8.67361737988403E-16,-1.0));
#1976=DIRECTION('',(0.0,1.0,7.88510670898548E-15));
#1977=DIRECTION('',(0.0,1.97127667724637E-16,1.0));
#1978=DIRECTION('',(0.0,1.0,0.0));
#1979=DIRECTION('',(0.0,1.0,0.0));
#1980=DIRECTION('',(1.0,2.36941343169445E-16,0.0));
#1981=DIRECTION('',(-1.0,0.0,0.0));
#1982=DIRECTION('',(-1.0,7.06244698228436E-17,0.0));
#1983=DIRECTION('',(2.65518899384205E-16,-1.0,0.0));
#1984=DIRECTION('',(0.0,-0.707106781186547,-0.707106781186548));
#1985=DIRECTION('',(0.0,-1.97127667724637E-16,-1.0));
#1986=DIRECTION('',(0.0,1.0,0.0));
#1987=DIRECTION('',(0.0,0.0,-1.0));
#1988=DIRECTION('',(0.0,1.0,0.0));
#1989=DIRECTION('',(0.0,-1.97127667724637E-16,-1.0));
#1990=DIRECTION('',(0.0,-0.707106781186547,-0.707106781186548));
#1991=DIRECTION('',(0.0,-1.0,0.0));
#1992=DIRECTION('',(0.0,0.707106781186548,0.707106781186547));
#1993=DIRECTION('',(0.0,0.0,-1.0));
#1994=DIRECTION('',(0.0,1.0,0.0));
#1995=DIRECTION('',(0.0,0.707106781186548,0.707106781186547));
#1996=DIRECTION('',(2.65518899384205E-16,-1.0,0.0));
#1997=DIRECTION('',(0.0,0.0,-1.0));
#1998=DIRECTION('',(0.0,-1.0,0.0));
#1999=DIRECTION('',(0.0,9.85638338623186E-17,1.0));
#2000=DIRECTION('',(0.0,1.0,0.0));
#2001=DIRECTION('',(0.0,-1.08420217248551E-15,1.0));
#2002=DIRECTION('',(0.0,0.0,-1.0));
#2003=DIRECTION('',(0.0,0.707106781186547,-0.707106781186548));
#2004=DIRECTION('',(0.0,0.0,-1.0));
#2005=DIRECTION('',(0.0,-1.0,0.0));
#2006=DIRECTION('',(0.0,0.0,-1.0));
#2007=DIRECTION('',(0.0,0.707106781186547,-0.707106781186548));
#2008=DIRECTION('',(0.0,0.0,-1.0));
#2009=DIRECTION('',(8.47032947254301E-17,-1.0,0.0));
#2010=DIRECTION('',(0.0,-1.0,0.0));
#2011=DIRECTION('',(0.0,0.0,-1.0));
#2012=DIRECTION('',(5.98942740891944E-17,-0.707106781186548,-0.707106781186547));
#2013=DIRECTION('',(-8.47032947254301E-17,1.0,0.0));
#2014=DIRECTION('',(0.0,0.707106781186548,0.707106781186547));
#2015=DIRECTION('',(0.0,9.85638338623186E-17,1.0));
#2016=DIRECTION('',(8.47032947254301E-17,-1.0,0.0));
#2017=DIRECTION('',(-0.707106781186547,-0.707106781186548,0.0));
#2018=DIRECTION('',(0.0,0.0,-1.0));
#2019=DIRECTION('',(0.0,0.0,-1.0));
#2020=DIRECTION('',(-0.707106781186547,0.707106781186548,0.0));
#2021=DIRECTION('',(0.0,0.0,-1.0));
#2022=DIRECTION('',(0.0,1.0,0.0));
#2023=DIRECTION('',(0.0,1.0,0.0));
#2024=DIRECTION('',(0.0,-0.707106781186547,0.707106781186548));
#2025=DIRECTION('',(0.0,0.0,1.0));
#2026=DIRECTION('',(-1.0,-2.36941343169445E-16,0.0));
#2027=DIRECTION('',(1.0,4.68844182696434E-16,0.0));
#2028=DIRECTION('',(-1.0,-7.2280144832367E-17,0.0));
#2029=DIRECTION('',(1.0,7.2280144832367E-17,0.0));
#2030=DIRECTION('',(-1.0,-2.36941343169445E-16,0.0));
#2031=DIRECTION('',(1.0,7.2280144832367E-17,0.0));
#2032=DIRECTION('',(1.0,4.00588754492636E-16,0.0));
#2033=CARTESIAN_POINT('',(2.5,9.05698840914081E-15,7.2));
#2034=DIRECTION('',(0.0,0.0,1.0));
#2035=DIRECTION('',(-1.0,0.0,0.0));
#2036=CARTESIAN_POINT('',(2.5,9.05698840914081E-15,7.2));
#2037=DIRECTION('',(0.0,0.0,1.0));
#2038=DIRECTION('',(-1.0,0.0,0.0));
#2039=CARTESIAN_POINT('',(0.0,9.05698840914081E-15,7.2));
#2040=DIRECTION('',(0.0,0.0,1.0));
#2041=DIRECTION('',(-1.0,0.0,0.0));
#2042=CARTESIAN_POINT('',(0.0,9.05698840914081E-15,7.2));
#2043=DIRECTION('',(0.0,0.0,1.0));
#2044=DIRECTION('',(-1.0,0.0,0.0));
#2045=DIRECTION('',(-0.686623532963713,0.72701315254982,0.0));
#2046=DIRECTION('',(-0.686623532963714,-0.727013152549819,0.0));
#2047=DIRECTION('',(1.0,4.00588754492636E-16,0.0));
#2048=DIRECTION('',(-1.0,-2.36941343169445E-16,0.0));
#2049=DIRECTION('',(1.0,2.36941343169445E-16,0.0));
#2050=DIRECTION('',(1.0,2.36941343169445E-16,0.0));
#2051=DIRECTION('',(1.0,2.36941343169445E-16,0.0));
#2052=DIRECTION('',(-1.0,-4.00588754492636E-16,0.0));
#2053=DIRECTION('',(-1.0,-4.00588754492636E-16,0.0));
#2054=DIRECTION('',(-1.0,-4.00588754492636E-16,0.0));
#2055=DIRECTION('',(1.0,0.0,0.0));
#2056=DIRECTION('',(1.0,0.0,0.0));
#2057=CARTESIAN_POINT('',(2.5,8.73953496601509E-15,9.0));
#2058=DIRECTION('',(0.0,0.0,-1.0));
#2059=DIRECTION('',(1.0,0.0,0.0));
#2060=CARTESIAN_POINT('',(0.0,8.73953496601509E-15,9.0));
#2061=DIRECTION('',(0.0,0.0,-1.0));
#2062=DIRECTION('',(1.0,0.0,0.0));
#2063=DIRECTION('',(0.0,0.707106781186548,-0.707106781186547));
#2064=DIRECTION('',(0.0,0.707106781186548,-0.707106781186547));
#2065=DIRECTION('',(-0.686623532963713,0.72701315254982,0.0));
#2066=DIRECTION('',(0.0,0.0,-1.0));
#2067=DIRECTION('',(-0.686623532963714,-0.727013152549819,0.0));
#2068=CARTESIAN_POINT('',(0.0,8.10462807976364E-15,12.6));
#2069=DIRECTION('',(-0.0,0.0,1.0));
#2070=DIRECTION('',(0.0,-1.0,0.0));
#2071=CARTESIAN_POINT('',(0.0,8.13990068455539E-15,12.4));
#2072=DIRECTION('',(-0.0,0.0,1.0));
#2073=DIRECTION('',(0.0,-1.0,0.0));
#2074=CARTESIAN_POINT('',(0.0,9.67425899299638E-15,3.7));
#2075=DIRECTION('',(-0.0,0.0,1.0));
#2076=DIRECTION('',(0.0,-1.0,0.0));
#2077=CARTESIAN_POINT('',(2.5,8.10462807976364E-15,12.6));
#2078=DIRECTION('',(-0.0,0.0,1.0));
#2079=DIRECTION('',(0.0,-1.0,0.0));
#2080=CARTESIAN_POINT('',(2.5,8.13990068455539E-15,12.4));
#2081=DIRECTION('',(-0.0,0.0,1.0));
#2082=DIRECTION('',(0.0,-1.0,0.0));
#2083=CARTESIAN_POINT('',(2.5,9.67425899299638E-15,3.7));
#2084=DIRECTION('',(-0.0,0.0,1.0));
#2085=DIRECTION('',(0.0,-1.0,0.0));
#2086=PRESENTATION_LAYER_ASSIGNMENT('1','Layer 1',(#25));
ENDSEC;
END-ISO-10303-21;
